g Beam8
v -4.201599 -104.2744 7.152557E-07
v -16.64401 -105.4729 -4.768372E-07
v -16.28503 -99.07595 -1.692772E-05
v -3.571472 -99.21064 -1.597404E-05
v 8.240814 -103.0759 1.430511E-06
v -15.83875 -92.73521 -3.314018E-05
v 9.14212 -99.34534 -1.502037E-05
v -2.861206 -94.16457 -3.218651E-05
v -15.21786 -86.50697 -4.935265E-05
v 10.11639 -95.59393 -3.123283E-05
v -1.990662 -89.15394 -4.839897E-05
v -14.33508 -80.44746 -6.556511E-05
v 11.23651 -91.80091 -4.74453E-05
v -0.8797913 -84.19646 -6.461143E-05
v -13.10309 -74.61293 -8.177757E-05
v 12.5755 -87.94547 -6.365776E-05
v 0.5516052 -79.30985 -8.08239E-05
v -11.55209 -68.96399 -9.799004E-05
v 14.2063 -84.00678 -7.987022E-05
v 2.269714 -74.49947 -9.703636E-05
v -9.712311 -63.46125 -0.0001144409
v 16.09155 -80.03498 -9.608269E-05
v 4.240814 -69.77068 -0.0001132488
v -7.614014 -58.06532 -0.0001306534
v 18.19394 -76.08013 -0.0001122952
v 6.431061 -65.12884 -0.0001294613
v -5.287354 -52.73682 -0.0001468658
v 20.47614 -72.19234 -0.0001285076
v 8.806763 -60.57926 -0.0001456738
v -2.713806 -47.48223 -0.0001633167
v 22.90088 -68.4217 -0.0001447201
v 11.37213 -56.13703 -0.0001618862
v 0.1252441 -42.30806 -0.0001795292
v 25.45804 -64.79183 -0.0001609325
v 14.13141 -51.81721 -0.0001780987
v 3.248352 -37.2208 -0.0001957417
v 28.1376 -61.32635 -0.000177145
v 17.0889 -47.63484 -0.0001943111
v 6.674133 -32.22696 -0.0002119541
v 30.9295 -58.04887 -0.0001933575
v 20.2489 -43.605 -0.0002105236
v 10.30817 -27.40641 -0.0002281666
v 33.82373 -54.98303 -0.0002095699
v 23.60022 -39.73238 -0.0002267361
v 14.05615 -22.83907 -0.000244379
v 36.89227 -52.05833 -0.0002257824
v 27.13165 -36.02169 -0.0002429485
v 17.82367 -18.60483 -0.0002608299
v 40.20718 -49.2043 -0.0002419949
v 30.83206 -32.47765 -0.0002596378
v 21.51642 -14.78357 -0.0002772808
v 43.84048 -46.35046 -0.0002582073
v 34.69031 -29.10495 -0.0002758503
v 25.02692 -11.28776 -0.0002934933
v 47.8642 -43.42632 -0.0002746582
v 38.59595 -25.79367 -0.0002920628
v 28.24771 -8.029858 -0.0003099442
v 52.16501 -40.29958 -0.0002911091
v 42.43866 -22.43388 -0.0003087521
v 31.07144 -4.922319 -0.000326395
v 56.62955 -36.8379 -0.00030756
v 46.108 -18.91566 -0.0003254414
v 33.39066 -1.877605 -0.0003428459
v 61.1445 -32.90899 -0.0003240108
v 49.49359 -15.12907 -0.0003416538
v 35.28455 1.164546 -0.0003592968
v 65.5965 -28.38052 -0.0003407001
v 52.58521 -11.09892 -0.0003583431
v 36.83221 4.264397 -0.0003759861
v 69.88586 -23.36237 -0.0003573895
v 55.37259 -6.850029 -0.0003750324
v 38.11292 7.482209 -0.0003926754
v 73.9129 -17.96444 -0.0003740788
v 57.84552 -2.407199 -0.0003917217
v 39.20581 10.87824 -0.0004091263
v 77.578 -12.29659 -0.0003907681
v 59.99365 2.204758 -0.000408411
v 40.10822 14.42386 -0.0004255772
v 80.78149 -6.468719 -0.0004074574
v 61.82968 6.959105 -0.0004251003
v 40.8176 18.09042 -0.0004422665
v 83.55112 -0.5056429 -0.0004241467
v 63.36615 11.82911 -0.0004417896
v 41.33133 21.84927 -0.0004589558
v 85.91467 5.567805 -0.000440836
v 64.61566 16.78804 -0.0004584789
v 41.64679 25.67178 -0.0004756451
v 87.89996 11.7268 -0.0004577637
v 65.59076 21.80915 -0.0004751682
v 41.76636 29.53678 -0.0004923344
v 89.53473 17.94651 -0.000474453
v 66.29755 26.87774 -0.0004916191
v 41.69244 33.42309 -0.0005090237
v 90.82883 24.21868 -0.0004913807
v 66.74225 31.97909 -0.0005085468
v 41.42746 37.30954 -0.000525713
v 91.79211 30.53505 -0.00050807
v 66.93091 37.09848 -0.0005254745
v 40.97379 41.17496 -0.0005424023
v 92.43442 36.88737 -0.0005252361
v 66.86969 42.2212 -0.0005419254
v 40.33572 45.0034 -0.0005590916
v 92.76559 43.26738 -0.0005419254
v 66.55984 47.33515 -0.0005588531
v 39.51758 48.77889 -0.0005757809
v 92.784 49.66683 -0.0005586147
v 66.00275 52.42822 -0.000575304
v 38.52365 52.48549 -0.0005924702
v 92.48792 56.07747 -0.000575304
v 65.19971 57.48829 -0.0005919933
v 37.35822 56.10724 -0.0006086826
v 91.87582 62.49103 -0.0005919933
v 64.1521 62.50328 -0.0006086826
v 36.06415 59.66534 -0.0006253719
v 90.94598 68.89926 -0.0006086826
v 62.92099 67.48444 -0.0006251335
v 34.68433 63.18103 -0.0006420612
v 89.77783 75.3035 -0.0006253719
v 61.5676 72.44306 -0.0006420612
v 33.26163 66.6755 -0.0006585121
v 88.45087 81.70507 -0.0006420612
v 60.15305 77.39041 -0.0006585121
v 87.04443 88.10532 -0.0006585121
vt 0.5 0
vt 0 0
vt 0 0.025
vt 0.5 0.025
vt 1 0
vt 0 0.05
vt 1 0.025
vt 0.5 0.04999999
vt 0 0.075
vt 1 0.05
vt 0.5 0.075
vt 0 0.1
vt 1 0.075
vt 0.5 0.09999999
vt 0 0.125
vt 1 0.1
vt 0.5 0.125
vt 0 0.15
vt 1 0.125
vt 0.5 0.15
vt 0 0.175
vt 1 0.15
vt 0.5 0.175
vt 0 0.2
vt 1 0.175
vt 0.5 0.2
vt 0 0.225
vt 1 0.2
vt 0.5 0.225
vt 0 0.25
vt 1 0.225
vt 0.5 0.25
vt 0 0.275
vt 1 0.25
vt 0.5 0.275
vt 0 0.3
vt 1 0.275
vt 0.5 0.3
vt 0 0.325
vt 1 0.3
vt 0.5 0.325
vt 0 0.35
vt 1 0.325
vt 0.5 0.35
vt 0 0.375
vt 1 0.35
vt 0.5 0.375
vt 0 0.4
vt 1 0.375
vt 0.5 0.4
vt 0 0.425
vt 1 0.4
vt 0.5 0.425
vt 0 0.45
vt 1 0.425
vt 0.5 0.45
vt 0 0.475
vt 1 0.45
vt 0.5 0.475
vt 0 0.5
vt 1 0.475
vt 0.5 0.5
vt 0 0.525
vt 1 0.5
vt 0.5 0.525
vt 0 0.55
vt 1 0.525
vt 0.5 0.55
vt 0 0.575
vt 1 0.55
vt 0.5 0.575
vt 0 0.6
vt 1 0.575
vt 0.5 0.6
vt 0 0.625
vt 1 0.6
vt 0.5 0.625
vt 0 0.65
vt 1 0.625
vt 0.5 0.65
vt 0 0.6750001
vt 1 0.65
vt 0.5 0.6750001
vt 0 0.7
vt 1 0.6750001
vt 0.5 0.7
vt 0 0.725
vt 1 0.7
vt 0.5 0.725
vt 0 0.7500001
vt 1 0.725
vt 0.5 0.7500001
vt 0 0.7750001
vt 1 0.7500001
vt 0.5 0.7750001
vt 0 0.8000001
vt 1 0.7750001
vt 0.5 0.8000001
vt 0 0.825
vt 1 0.8000001
vt 0.5 0.825
vt 0 0.8500001
vt 1 0.825
vt 0.5 0.85
vt 0 0.8750001
vt 1 0.8500001
vt 0.5 0.8750001
vt 0 0.9000001
vt 1 0.8750001
vt 0.5 0.9000001
vt 0 0.9250001
vt 1 0.9000001
vt 0.5 0.9250001
vt 0 0.9500001
vt 1 0.9250001
vt 0.5 0.9500001
vt 0 0.9750001
vt 1 0.9500001
vt 0.5 0.9750001
vt 0 1
vt 1 0.9750001
vt 0.5 1
vt 1 1
vn 0 0 1
vn 0 0 1
vn 0 0 1
vn 0 0 1
vn 0 0 1
vn 0 0 1
vn 0 0 1
vn 0 0 1
vn 0 0 1
vn 0 0 1
vn 0 0 1
vn 0 0 1
vn 0 0 1
vn 0 0 1
vn 0 0 1
vn 0 0 1
vn 0 0 1
vn 0 0 1
vn 0 0 1
vn 0 0 1
vn 0 0 1
vn 0 0 1
vn 0 0 1
vn 0 0 1
vn 0 0 1
vn 0 0 1
vn 0 0 1
vn 0 0 1
vn 0 0 1
vn 0 0 1
vn 0 0 1
vn 0 0 1
vn 0 0 1
vn 0 0 1
vn 0 0 1
vn 0 0 1
vn 0 0 1
vn 0 0 1
vn 0 0 1
vn 0 0 1
vn 0 0 1
vn 0 0 1
vn 0 0 1
vn 0 0 1
vn 0 0 1
vn 0 0 1
vn 0 0 1
vn 0 0 1
vn 0 0 1
vn 0 0 1
vn 0 0 1
vn 0 0 1
vn 0 0 1
vn 0 0 1
vn 0 0 1
vn 0 0 1
vn 0 0 1
vn 0 0 1
vn 0 0 1
vn 0 0 1
vn 0 0 1
vn 0 0 1
vn 0 0 1
vn 0 0 1
vn 0 0 1
vn 0 0 1
vn 0 0 1
vn 0 0 1
vn 0 0 1
vn 0 0 1
vn 0 0 1
vn 0 0 1
vn 0 0 1
vn 0 0 1
vn 0 0 1
vn 0 0 1
vn 0 0 1
vn 0 0 1
vn 0 0 1
vn 0 0 1
vn 0 0 1
vn 0 0 1
vn 0 0 1
vn 0 0 1
vn 0 0 1
vn 0 0 1
vn 0 0 1
vn 0 0 1
vn 0 0 1
vn 0 0 1
vn 0 0 1
vn 0 0 1
vn 0 0 1
vn 0 0 1
vn 0 0 1
vn 0 0 1
vn 0 0 1
vn 0 0 1
vn 0 0 1
vn 0 0 1
vn 0 0 1
vn 0 0 1
vn 0 0 1
vn 0 0 1
vn 0 0 1
vn 0 0 1
vn 0 0 1
vn 0 0 1
vn 0 0 1
vn 0 0 1
vn 0 0 1
vn 0 0 1
vn 0 0 1
vn 0 0 1
vn 0 0 1
vn 0 0 1
vn 0 0 1
vn 0 0 1
vn 0 0 1
vn 0 0 1
vn 0 0 1
vn 0 0 1
vn 0 0 1
g Beam8_0
f 3/3/3 2/2/2 1/1/1
f 4/4/4 3/3/3 1/1/1
f 4/4/4 1/1/1 5/5/5
f 6/6/6 3/3/3 4/4/4
f 7/7/7 4/4/4 5/5/5
f 8/8/8 6/6/6 4/4/4
f 8/8/8 4/4/4 7/7/7
f 9/9/9 6/6/6 8/8/8
f 10/10/10 8/8/8 7/7/7
f 11/11/11 9/9/9 8/8/8
f 11/11/11 8/8/8 10/10/10
f 12/12/12 9/9/9 11/11/11
f 13/13/13 11/11/11 10/10/10
f 14/14/14 12/12/12 11/11/11
f 14/14/14 11/11/11 13/13/13
f 15/15/15 12/12/12 14/14/14
f 16/16/16 14/14/14 13/13/13
f 17/17/17 15/15/15 14/14/14
f 17/17/17 14/14/14 16/16/16
f 18/18/18 15/15/15 17/17/17
f 19/19/19 17/17/17 16/16/16
f 20/20/20 18/18/18 17/17/17
f 20/20/20 17/17/17 19/19/19
f 21/21/21 18/18/18 20/20/20
f 22/22/22 20/20/20 19/19/19
f 23/23/23 21/21/21 20/20/20
f 23/23/23 20/20/20 22/22/22
f 24/24/24 21/21/21 23/23/23
f 25/25/25 23/23/23 22/22/22
f 26/26/26 24/24/24 23/23/23
f 26/26/26 23/23/23 25/25/25
f 27/27/27 24/24/24 26/26/26
f 28/28/28 26/26/26 25/25/25
f 29/29/29 27/27/27 26/26/26
f 29/29/29 26/26/26 28/28/28
f 30/30/30 27/27/27 29/29/29
f 31/31/31 29/29/29 28/28/28
f 32/32/32 30/30/30 29/29/29
f 32/32/32 29/29/29 31/31/31
f 33/33/33 30/30/30 32/32/32
f 34/34/34 32/32/32 31/31/31
f 35/35/35 33/33/33 32/32/32
f 35/35/35 32/32/32 34/34/34
f 36/36/36 33/33/33 35/35/35
f 37/37/37 35/35/35 34/34/34
f 38/38/38 36/36/36 35/35/35
f 38/38/38 35/35/35 37/37/37
f 39/39/39 36/36/36 38/38/38
f 40/40/40 38/38/38 37/37/37
f 41/41/41 39/39/39 38/38/38
f 41/41/41 38/38/38 40/40/40
f 42/42/42 39/39/39 41/41/41
f 43/43/43 41/41/41 40/40/40
f 44/44/44 42/42/42 41/41/41
f 44/44/44 41/41/41 43/43/43
f 45/45/45 42/42/42 44/44/44
f 46/46/46 44/44/44 43/43/43
f 47/47/47 45/45/45 44/44/44
f 47/47/47 44/44/44 46/46/46
f 48/48/48 45/45/45 47/47/47
f 49/49/49 47/47/47 46/46/46
f 50/50/50 48/48/48 47/47/47
f 50/50/50 47/47/47 49/49/49
f 51/51/51 48/48/48 50/50/50
f 52/52/52 50/50/50 49/49/49
f 53/53/53 51/51/51 50/50/50
f 53/53/53 50/50/50 52/52/52
f 54/54/54 51/51/51 53/53/53
f 55/55/55 53/53/53 52/52/52
f 56/56/56 54/54/54 53/53/53
f 56/56/56 53/53/53 55/55/55
f 57/57/57 54/54/54 56/56/56
f 58/58/58 56/56/56 55/55/55
f 59/59/59 57/57/57 56/56/56
f 59/59/59 56/56/56 58/58/58
f 60/60/60 57/57/57 59/59/59
f 61/61/61 59/59/59 58/58/58
f 62/62/62 60/60/60 59/59/59
f 62/62/62 59/59/59 61/61/61
f 63/63/63 60/60/60 62/62/62
f 64/64/64 62/62/62 61/61/61
f 65/65/65 63/63/63 62/62/62
f 65/65/65 62/62/62 64/64/64
f 66/66/66 63/63/63 65/65/65
f 67/67/67 65/65/65 64/64/64
f 68/68/68 66/66/66 65/65/65
f 68/68/68 65/65/65 67/67/67
f 69/69/69 66/66/66 68/68/68
f 70/70/70 68/68/68 67/67/67
f 71/71/71 69/69/69 68/68/68
f 71/71/71 68/68/68 70/70/70
f 72/72/72 69/69/69 71/71/71
f 73/73/73 71/71/71 70/70/70
f 74/74/74 72/72/72 71/71/71
f 74/74/74 71/71/71 73/73/73
f 75/75/75 72/72/72 74/74/74
f 76/76/76 74/74/74 73/73/73
f 77/77/77 75/75/75 74/74/74
f 77/77/77 74/74/74 76/76/76
f 78/78/78 75/75/75 77/77/77
f 79/79/79 77/77/77 76/76/76
f 80/80/80 78/78/78 77/77/77
f 80/80/80 77/77/77 79/79/79
f 81/81/81 78/78/78 80/80/80
f 82/82/82 80/80/80 79/79/79
f 83/83/83 81/81/81 80/80/80
f 83/83/83 80/80/80 82/82/82
f 84/84/84 81/81/81 83/83/83
f 85/85/85 83/83/83 82/82/82
f 86/86/86 84/84/84 83/83/83
f 86/86/86 83/83/83 85/85/85
f 87/87/87 84/84/84 86/86/86
f 88/88/88 86/86/86 85/85/85
f 89/89/89 87/87/87 86/86/86
f 89/89/89 86/86/86 88/88/88
f 90/90/90 87/87/87 89/89/89
f 91/91/91 89/89/89 88/88/88
f 92/92/92 90/90/90 89/89/89
f 92/92/92 89/89/89 91/91/91
f 93/93/93 90/90/90 92/92/92
f 94/94/94 92/92/92 91/91/91
f 95/95/95 93/93/93 92/92/92
f 95/95/95 92/92/92 94/94/94
f 96/96/96 93/93/93 95/95/95
f 97/97/97 95/95/95 94/94/94
f 98/98/98 96/96/96 95/95/95
f 98/98/98 95/95/95 97/97/97
f 99/99/99 96/96/96 98/98/98
f 100/100/100 98/98/98 97/97/97
f 101/101/101 99/99/99 98/98/98
f 101/101/101 98/98/98 100/100/100
f 102/102/102 99/99/99 101/101/101
f 103/103/103 101/101/101 100/100/100
f 104/104/104 102/102/102 101/101/101
f 104/104/104 101/101/101 103/103/103
f 105/105/105 102/102/102 104/104/104
f 106/106/106 104/104/104 103/103/103
f 107/107/107 105/105/105 104/104/104
f 107/107/107 104/104/104 106/106/106
f 108/108/108 105/105/105 107/107/107
f 109/109/109 107/107/107 106/106/106
f 110/110/110 108/108/108 107/107/107
f 110/110/110 107/107/107 109/109/109
f 111/111/111 108/108/108 110/110/110
f 112/112/112 110/110/110 109/109/109
f 113/113/113 111/111/111 110/110/110
f 113/113/113 110/110/110 112/112/112
f 114/114/114 111/111/111 113/113/113
f 115/115/115 113/113/113 112/112/112
f 116/116/116 114/114/114 113/113/113
f 116/116/116 113/113/113 115/115/115
f 117/117/117 114/114/114 116/116/116
f 118/118/118 116/116/116 115/115/115
f 119/119/119 117/117/117 116/116/116
f 119/119/119 116/116/116 118/118/118
f 120/120/120 117/117/117 119/119/119
f 121/121/121 119/119/119 118/118/118
f 122/122/122 120/120/120 119/119/119
f 122/122/122 119/119/119 121/121/121
f 123/123/123 122/122/122 121/121/121
