g Beam11
v 3.201378 -109.625 6.382297
v -32.27485 -109.625 6.382297
v -32.49483 -107.3961 6.382297
v 2.886652 -105.9435 6.382297
v 38.6776 -109.625 6.382297
v -32.74163 -105.1732 6.382297
v 38.25568 -104.493 6.382297
v 2.533215 -102.269 6.382297
v -33.04208 -102.9622 6.382297
v 37.78172 -99.36963 6.382297
v 2.102355 -98.60822 6.382297
v -33.423 -100.7691 6.382297
v 37.2037 -94.2635 6.382297
v 1.555359 -94.96822 6.382297
v -33.91121 -98.59978 6.382297
v 36.46957 -89.18321 6.382296
v 0.8535159 -91.35583 6.382297
v -34.50471 -96.46002 6.382297
v 35.52733 -84.13738 6.382296
v -0.001309395 -87.77776 6.382297
v -35.20152 -94.35542 6.382297
v 34.37906 -79.13439 6.382296
v -1.007255 -84.24067 6.382297
v -35.99964 -92.29164 6.382297
v 33.02686 -74.18262 6.382296
v -2.162455 -80.75124 6.382297
v -36.89709 -90.27436 6.382297
v 31.47286 -69.29045 6.382296
v -3.465047 -77.31615 6.382297
v -37.89064 -88.30863 6.382297
v 29.71915 -64.46626 6.382296
v -4.911995 -73.9416 6.382297
v -38.97709 -86.39955 6.382298
v 27.76918 -59.71799 6.382296
v -6.500265 -70.63384 6.382297
v -40.15323 -84.55218 6.382298
v 25.62639 -55.05356 6.382296
v -8.22682 -67.39908 6.382297
v -41.41584 -82.77159 6.382298
v 23.29424 -50.48089 6.382296
v -10.08863 -64.24355 6.382297
v -42.76065 -81.06203 6.382298
v 20.77616 -46.00791 6.382296
v -12.08158 -61.17279 6.382297
v -44.18338 -79.42773 6.382298
v 18.07685 -41.64188 6.382296
v -14.20159 -58.19238 6.382297
v -45.67976 -77.8729 6.382298
v 15.20102 -37.39005 6.382296
v -16.44454 -55.30787 6.382297
v -47.24553 -76.40179 6.382298
v 12.15334 -33.25969 6.382296
v -18.80634 -52.52482 6.382297
v -48.87553 -75.01756 6.382298
v 8.938523 -29.25804 6.382296
v -21.28195 -49.84795 6.382297
v -50.56467 -73.7234 6.382298
v 5.562379 -25.3915 6.382296
v -23.86637 -47.28197 6.382297
v -52.30779 -72.52245 6.382298
v 2.030724 -21.66647 6.382296
v -26.55455 -44.83159 6.382297
v -54.09979 -71.41789 6.382298
v -1.650625 -18.08932 6.382296
v -29.34147 -42.50154 6.382297
v -55.93493 -70.41166 6.382298
v -5.475849 -14.66647 6.382296
v -32.22136 -40.29552 6.382297
v -57.80749 -69.50569 6.382298
v -9.438167 -11.40327 6.382296
v -35.18843 -38.21725 6.382297
v -59.71175 -68.70193 6.382298
v -13.53079 -8.305061 6.382296
v -38.23692 -36.27045 6.382297
v -61.64198 -68.0023 6.382299
v -17.74695 -5.377214 6.382296
v -41.36103 -34.45882 6.382298
v -63.59214 -67.40741 6.382299
v -22.07985 -2.625084 6.382296
v -44.55445 -32.78498 6.382298
v -65.55621 -66.91785 6.382299
v -26.52192 -0.052845 6.382296
v -47.81084 -31.2515 6.382298
v -67.52813 -66.5342 6.382299
v -31.06561 2.335327 6.382296
v -51.12387 -29.861 6.382298
v -69.50188 -66.25708 6.382299
v -35.70334 4.535252 6.382296
v -54.48721 -28.61606 6.382298
v -71.47143 -66.08568 6.382299
v -40.42755 6.542751 6.382296
v -57.8942 -27.51808 6.382298
v -73.43071 -66.01921 6.3823
v -45.23009 8.354946 6.382296
v -61.33817 -26.56846 6.382298
v -75.3737 -66.05687 6.3823
v -50.10282 9.968948 6.382297
v -64.81245 -25.7686 6.382298
v -77.29434 -66.19788 6.3823
v -55.03759 11.38187 6.382297
v -68.31039 -25.1199 6.382298
v -79.18691 -66.44006 6.3823
v -60.02624 12.59083 6.382297
v -71.8252 -24.62252 6.382298
v -81.04568 -66.78127 6.3823
v -65.06028 13.59431 6.382297
v -75.3501 -24.27662 6.382298
v -82.86489 -67.21933 6.3823
v -70.13118 14.3908 6.382297
v -78.87833 -24.08237 6.382298
v -84.63882 -67.75208 6.382301
v -75.23045 14.97878 6.382297
v -82.40311 -24.03991 6.382299
v -86.37878 -68.35586 6.382301
v -80.34957 15.35672 6.382297
v -85.92532 -24.11131 6.382299
v -88.09609 -69.00699 6.382301
v -85.48357 15.57715 6.382297
v -89.4458 -24.25862 6.382299
v -89.80209 -69.68179 6.382301
v -90.62751 15.69257 6.382298
v -92.96542 -24.44387 6.382299
v -95.77641 15.75548 6.382298
vt 0.5 0
vt 0 0
vt 0 0.025
vt 0.5 0.025
vt 1 0
vt 0 0.05
vt 1 0.025
vt 0.5 0.04999999
vt 0 0.075
vt 1 0.05
vt 0.5 0.075
vt 0 0.1
vt 1 0.075
vt 0.5 0.09999999
vt 0 0.125
vt 1 0.1
vt 0.5 0.125
vt 0 0.15
vt 1 0.125
vt 0.5 0.15
vt 0 0.175
vt 1 0.15
vt 0.5 0.175
vt 0 0.2
vt 1 0.175
vt 0.5 0.2
vt 0 0.225
vt 1 0.2
vt 0.5 0.225
vt 0 0.25
vt 1 0.225
vt 0.5 0.25
vt 0 0.275
vt 1 0.25
vt 0.5 0.275
vt 0 0.3
vt 1 0.275
vt 0.5 0.3
vt 0 0.325
vt 1 0.3
vt 0.5 0.325
vt 0 0.35
vt 1 0.325
vt 0.5 0.35
vt 0 0.375
vt 1 0.35
vt 0.5 0.375
vt 0 0.4
vt 1 0.375
vt 0.5 0.4
vt 0 0.425
vt 1 0.4
vt 0.5 0.425
vt 0 0.45
vt 1 0.425
vt 0.5 0.45
vt 0 0.475
vt 1 0.45
vt 0.5 0.475
vt 0 0.5
vt 1 0.475
vt 0.5 0.5
vt 0 0.525
vt 1 0.5
vt 0.5 0.525
vt 0 0.55
vt 1 0.525
vt 0.5 0.55
vt 0 0.575
vt 1 0.55
vt 0.5 0.575
vt 0 0.6
vt 1 0.575
vt 0.5 0.6
vt 0 0.625
vt 1 0.6
vt 0.5 0.625
vt 0 0.65
vt 1 0.625
vt 0.5 0.65
vt 0 0.6750001
vt 1 0.65
vt 0.5 0.6750001
vt 0 0.7
vt 1 0.6750001
vt 0.5 0.7
vt 0 0.725
vt 1 0.7
vt 0.5 0.725
vt 0 0.7500001
vt 1 0.725
vt 0.5 0.7500001
vt 0 0.7750001
vt 1 0.7500001
vt 0.5 0.7750001
vt 0 0.8000001
vt 1 0.7750001
vt 0.5 0.8000001
vt 0 0.825
vt 1 0.8000001
vt 0.5 0.825
vt 0 0.8500001
vt 1 0.825
vt 0.5 0.85
vt 0 0.8750001
vt 1 0.8500001
vt 0.5 0.8750001
vt 0 0.9000001
vt 1 0.8750001
vt 0.5 0.9000001
vt 0 0.9250001
vt 1 0.9000001
vt 0.5 0.9250001
vt 0 0.9500001
vt 1 0.9250001
vt 0.5 0.9500001
vt 0 0.9750001
vt 1 0.9500001
vt 0.5 0.9750001
vt 0 1
vt 1 0.9750001
vt 0.5 1
vt 1 1
vn 0 0 1
vn 0 0 1
vn 0 0 1
vn 0 0 1
vn 0 0 1
vn 0 0 1
vn 0 0 1
vn 0 0 1
vn 0 0 1
vn 0 0 1
vn 0 0 1
vn 0 0 1
vn 0 0 1
vn 0 0 1
vn 0 0 1
vn 0 0 1
vn 0 0 1
vn 0 0 1
vn 0 0 1
vn 0 0 1
vn 0 0 1
vn 0 0 1
vn 0 0 1
vn 0 0 1
vn 0 0 1
vn 0 0 1
vn 0 0 1
vn 0 0 1
vn 0 0 1
vn 0 0 1
vn 0 0 1
vn 0 0 1
vn 0 0 1
vn 0 0 1
vn 0 0 1
vn 0 0 1
vn 0 0 1
vn 0 0 1
vn 0 0 1
vn 0 0 1
vn 0 0 1
vn 0 0 1
vn 0 0 1
vn 0 0 1
vn 0 0 1
vn 0 0 1
vn 0 0 1
vn 0 0 1
vn 0 0 1
vn 0 0 1
vn 0 0 1
vn 0 0 1
vn 0 0 1
vn 0 0 1
vn 0 0 1
vn 0 0 1
vn 0 0 1
vn 0 0 1
vn 0 0 1
vn 0 0 1
vn 0 0 1
vn 0 0 1
vn 0 0 1
vn 0 0 1
vn 0 0 1
vn 0 0 1
vn 0 0 1
vn 0 0 1
vn 0 0 1
vn 0 0 1
vn 0 0 1
vn 0 0 1
vn 0 0 1
vn 0 0 1
vn 0 0 1
vn 0 0 1
vn 0 0 1
vn 0 0 1
vn 0 0 1
vn 0 0 1
vn 0 0 1
vn 0 0 1
vn 0 0 1
vn 0 0 1
vn 0 0 1
vn 0 0 1
vn 0 0 1
vn 0 0 1
vn 0 0 1
vn 0 0 1
vn 0 0 1
vn 0 0 1
vn 0 0 1
vn 0 0 1
vn 0 0 1
vn 0 0 1
vn 0 0 1
vn 0 0 1
vn 0 0 1
vn 0 0 1
vn 0 0 1
vn 0 0 1
vn 0 0 1
vn 0 0 1
vn 0 0 1
vn 0 0 1
vn 0 0 1
vn 0 0 1
vn 0 0 1
vn 0 0 1
vn 0 0 1
vn 0 0 1
vn 0 0 1
vn 0 0 1
vn 0 0 1
vn 0 0 1
vn 0 0 1
vn 0 0 1
vn 0 0 1
vn 0 0 1
vn 0 0 1
vn 0 0 1
vn 0 0 1
g Beam11_0
f 3/3/3 2/2/2 1/1/1
f 4/4/4 3/3/3 1/1/1
f 4/4/4 1/1/1 5/5/5
f 6/6/6 3/3/3 4/4/4
f 7/7/7 4/4/4 5/5/5
f 8/8/8 6/6/6 4/4/4
f 8/8/8 4/4/4 7/7/7
f 9/9/9 6/6/6 8/8/8
f 10/10/10 8/8/8 7/7/7
f 11/11/11 9/9/9 8/8/8
f 11/11/11 8/8/8 10/10/10
f 12/12/12 9/9/9 11/11/11
f 13/13/13 11/11/11 10/10/10
f 14/14/14 12/12/12 11/11/11
f 14/14/14 11/11/11 13/13/13
f 15/15/15 12/12/12 14/14/14
f 16/16/16 14/14/14 13/13/13
f 17/17/17 15/15/15 14/14/14
f 17/17/17 14/14/14 16/16/16
f 18/18/18 15/15/15 17/17/17
f 19/19/19 17/17/17 16/16/16
f 20/20/20 18/18/18 17/17/17
f 20/20/20 17/17/17 19/19/19
f 21/21/21 18/18/18 20/20/20
f 22/22/22 20/20/20 19/19/19
f 23/23/23 21/21/21 20/20/20
f 23/23/23 20/20/20 22/22/22
f 24/24/24 21/21/21 23/23/23
f 25/25/25 23/23/23 22/22/22
f 26/26/26 24/24/24 23/23/23
f 26/26/26 23/23/23 25/25/25
f 27/27/27 24/24/24 26/26/26
f 28/28/28 26/26/26 25/25/25
f 29/29/29 27/27/27 26/26/26
f 29/29/29 26/26/26 28/28/28
f 30/30/30 27/27/27 29/29/29
f 31/31/31 29/29/29 28/28/28
f 32/32/32 30/30/30 29/29/29
f 32/32/32 29/29/29 31/31/31
f 33/33/33 30/30/30 32/32/32
f 34/34/34 32/32/32 31/31/31
f 35/35/35 33/33/33 32/32/32
f 35/35/35 32/32/32 34/34/34
f 36/36/36 33/33/33 35/35/35
f 37/37/37 35/35/35 34/34/34
f 38/38/38 36/36/36 35/35/35
f 38/38/38 35/35/35 37/37/37
f 39/39/39 36/36/36 38/38/38
f 40/40/40 38/38/38 37/37/37
f 41/41/41 39/39/39 38/38/38
f 41/41/41 38/38/38 40/40/40
f 42/42/42 39/39/39 41/41/41
f 43/43/43 41/41/41 40/40/40
f 44/44/44 42/42/42 41/41/41
f 44/44/44 41/41/41 43/43/43
f 45/45/45 42/42/42 44/44/44
f 46/46/46 44/44/44 43/43/43
f 47/47/47 45/45/45 44/44/44
f 47/47/47 44/44/44 46/46/46
f 48/48/48 45/45/45 47/47/47
f 49/49/49 47/47/47 46/46/46
f 50/50/50 48/48/48 47/47/47
f 50/50/50 47/47/47 49/49/49
f 51/51/51 48/48/48 50/50/50
f 52/52/52 50/50/50 49/49/49
f 53/53/53 51/51/51 50/50/50
f 53/53/53 50/50/50 52/52/52
f 54/54/54 51/51/51 53/53/53
f 55/55/55 53/53/53 52/52/52
f 56/56/56 54/54/54 53/53/53
f 56/56/56 53/53/53 55/55/55
f 57/57/57 54/54/54 56/56/56
f 58/58/58 56/56/56 55/55/55
f 59/59/59 57/57/57 56/56/56
f 59/59/59 56/56/56 58/58/58
f 60/60/60 57/57/57 59/59/59
f 61/61/61 59/59/59 58/58/58
f 62/62/62 60/60/60 59/59/59
f 62/62/62 59/59/59 61/61/61
f 63/63/63 60/60/60 62/62/62
f 64/64/64 62/62/62 61/61/61
f 65/65/65 63/63/63 62/62/62
f 65/65/65 62/62/62 64/64/64
f 66/66/66 63/63/63 65/65/65
f 67/67/67 65/65/65 64/64/64
f 68/68/68 66/66/66 65/65/65
f 68/68/68 65/65/65 67/67/67
f 69/69/69 66/66/66 68/68/68
f 70/70/70 68/68/68 67/67/67
f 71/71/71 69/69/69 68/68/68
f 71/71/71 68/68/68 70/70/70
f 72/72/72 69/69/69 71/71/71
f 73/73/73 71/71/71 70/70/70
f 74/74/74 72/72/72 71/71/71
f 74/74/74 71/71/71 73/73/73
f 75/75/75 72/72/72 74/74/74
f 76/76/76 74/74/74 73/73/73
f 77/77/77 75/75/75 74/74/74
f 77/77/77 74/74/74 76/76/76
f 78/78/78 75/75/75 77/77/77
f 79/79/79 77/77/77 76/76/76
f 80/80/80 78/78/78 77/77/77
f 80/80/80 77/77/77 79/79/79
f 81/81/81 78/78/78 80/80/80
f 82/82/82 80/80/80 79/79/79
f 83/83/83 81/81/81 80/80/80
f 83/83/83 80/80/80 82/82/82
f 84/84/84 81/81/81 83/83/83
f 85/85/85 83/83/83 82/82/82
f 86/86/86 84/84/84 83/83/83
f 86/86/86 83/83/83 85/85/85
f 87/87/87 84/84/84 86/86/86
f 88/88/88 86/86/86 85/85/85
f 89/89/89 87/87/87 86/86/86
f 89/89/89 86/86/86 88/88/88
f 90/90/90 87/87/87 89/89/89
f 91/91/91 89/89/89 88/88/88
f 92/92/92 90/90/90 89/89/89
f 92/92/92 89/89/89 91/91/91
f 93/93/93 90/90/90 92/92/92
f 94/94/94 92/92/92 91/91/91
f 95/95/95 93/93/93 92/92/92
f 95/95/95 92/92/92 94/94/94
f 96/96/96 93/93/93 95/95/95
f 97/97/97 95/95/95 94/94/94
f 98/98/98 96/96/96 95/95/95
f 98/98/98 95/95/95 97/97/97
f 99/99/99 96/96/96 98/98/98
f 100/100/100 98/98/98 97/97/97
f 101/101/101 99/99/99 98/98/98
f 101/101/101 98/98/98 100/100/100
f 102/102/102 99/99/99 101/101/101
f 103/103/103 101/101/101 100/100/100
f 104/104/104 102/102/102 101/101/101
f 104/104/104 101/101/101 103/103/103
f 105/105/105 102/102/102 104/104/104
f 106/106/106 104/104/104 103/103/103
f 107/107/107 105/105/105 104/104/104
f 107/107/107 104/104/104 106/106/106
f 108/108/108 105/105/105 107/107/107
f 109/109/109 107/107/107 106/106/106
f 110/110/110 108/108/108 107/107/107
f 110/110/110 107/107/107 109/109/109
f 111/111/111 108/108/108 110/110/110
f 112/112/112 110/110/110 109/109/109
f 113/113/113 111/111/111 110/110/110
f 113/113/113 110/110/110 112/112/112
f 114/114/114 111/111/111 113/113/113
f 115/115/115 113/113/113 112/112/112
f 116/116/116 114/114/114 113/113/113
f 116/116/116 113/113/113 115/115/115
f 117/117/117 114/114/114 116/116/116
f 118/118/118 116/116/116 115/115/115
f 119/119/119 117/117/117 116/116/116
f 119/119/119 116/116/116 118/118/118
f 120/120/120 117/117/117 119/119/119
f 121/121/121 119/119/119 118/118/118
f 122/122/122 120/120/120 119/119/119
f 122/122/122 119/119/119 121/121/121
f 123/123/123 122/122/122 121/121/121
