g Beam9
v 1.093155 -97.70826 -9.536743E-07
v -3.459793 -97.63862 -9.536743E-07
v -3.605347 -93.04418 -9.536743E-07
v 0.9828796 -92.95677 -9.536743E-07
v 5.646133 -97.77792 -9.536743E-07
v -3.799683 -88.45585 -9.536743E-07
v 5.571121 -92.86937 -9.536743E-07
v 0.8223724 -88.21064 -1.430511E-06
v -4.091583 -83.87972 -9.536743E-07
v 5.444443 -87.96542 -9.536743E-07
v 0.5614166 -83.47518 -1.430511E-06
v -4.529831 -79.32191 -9.536743E-07
v 5.214417 -83.07064 -9.536743E-07
v 0.149765 -78.75578 -1.907349E-06
v -5.163193 -74.78851 -9.536743E-07
v 4.829376 -78.18964 -9.536743E-07
v -0.4627838 -74.05776 -1.430511E-06
v -5.97464 -70.27918 -9.536743E-07
v 4.23764 -73.327 -9.536743E-07
v -1.258255 -69.38388 -1.907349E-06
v -6.947144 -65.79356 -9.536743E-07
v 3.458145 -68.48859 -9.536743E-07
v -2.218674 -64.73692 -1.430511E-06
v -8.06366 -61.33131 -9.536743E-07
v 2.509796 -63.68027 -9.536743E-07
v -3.326065 -60.11961 -1.907349E-06
v -9.307144 -56.89206 -9.536743E-07
v 1.411545 -58.90792 -9.536743E-07
v -4.562424 -55.53472 -1.430511E-06
v -10.67348 -52.48338 -9.536743E-07
v 0.1822968 -54.17739 -9.536743E-07
v -5.925034 -50.98529 -1.907349E-06
v -12.15854 -48.11284 -9.536743E-07
v -1.17662 -49.4872 -4.768372E-07
v -7.411209 -46.47433 -1.430511E-06
v -13.75819 -43.78799 -9.536743E-07
v -2.663895 -44.83583 -4.768372E-07
v -9.018204 -42.00489 -1.907349E-06
v -15.46832 -39.5164 -9.536743E-07
v -4.278214 -40.22179 -4.768372E-07
v -10.7433 -37.57999 -4.768372E-07
v -17.30258 -35.28476 -4.768372E-07
v -6.018265 -35.6436 -4.768372E-07
v -12.59027 -33.20634 -9.536743E-07
v -19.27463 -31.0798 -4.768372E-07
v -7.87793 -31.12793 -4.768372E-07
v -14.56288 -28.89066 -4.768372E-07
v -21.39812 -26.8882 -4.768372E-07
v -9.851105 -26.70152 -4.768372E-07
v -16.66492 -24.63962 -4.768372E-07
v -23.68672 -22.69668 -4.768372E-07
v -11.93166 -22.39105 -4.768372E-07
v -18.90012 -20.45996 -4.768372E-07
v -26.0027 -18.45022 -4.768372E-07
v -14.11349 -18.22324 -4.768372E-07
v -21.13683 -16.29703 -9.536743E-07
v -28.20831 -14.09383 -4.768372E-07
v -16.27097 -14.14384 -4.768372E-07
v -23.24338 -12.09621 -4.768372E-07
v -30.16585 -9.572485 -4.768372E-07
v -18.27846 -10.0986 -4.768372E-07
v -25.08806 -7.802885 -4.768372E-07
v -31.73753 -4.831192 -4.768372E-07
v -20.01033 -6.033281 0
v -26.53923 -3.362411 -4.768372E-07
v -32.95241 0.06890106 -4.768372E-07
v -21.34094 -1.893631 4.768372E-07
v -27.63362 1.194084 -9.536743E-07
v -33.83943 5.066641 -4.768372E-07
v -22.31487 2.31927 4.768372E-07
v -28.40804 5.835492 -4.768372E-07
v -34.42763 10.10087 0
v -22.97664 6.604343 4.768372E-07
v -28.89925 10.53069 4.768372E-07
v -34.74597 15.11044 4.768372E-07
v -23.37082 10.96051 4.768372E-07
v -29.14397 15.24857 4.768372E-07
v -34.81956 20.09601 4.768372E-07
v -23.54196 15.38669 4.768372E-07
v -29.16319 19.97966 4.768372E-07
v -34.67352 25.05825 4.768372E-07
v -23.50677 19.86329 4.768372E-07
v -28.97774 24.71448 4.768372E-07
v -34.33293 29.99783 4.768372E-07
v -23.28198 24.3707 4.768372E-07
v -28.60863 29.44358 9.536743E-07
v -33.82288 34.91541 4.768372E-07
v -22.88431 28.88932 9.536743E-07
v -28.07668 34.15749 1.430511E-06
v -33.14568 39.80869 9.536743E-07
v -22.33044 33.39956 1.430511E-06
v -27.38452 38.85106 1.907349E-06
v -32.30365 44.67539 1.430511E-06
v -21.62335 37.89341 1.430511E-06
v -26.53479 43.51915 1.430511E-06
v -31.29909 49.51322 1.430511E-06
v -20.76595 42.36289 1.430511E-06
v -25.53011 48.15662 1.907349E-06
v -30.13426 54.31989 1.430511E-06
v -19.76114 46.80001 1.430511E-06
v -24.37309 52.75832 1.907349E-06
v -28.80464 59.08796 1.907349E-06
v -18.61191 51.19676 1.430511E-06
v -23.05983 57.31674 2.384186E-06
v -27.30568 63.81004 2.384186E-06
v -17.31502 55.54551 1.907349E-06
v -21.5865 61.82434 2.384186E-06
v -25.6328 68.47868 2.384186E-06
v -15.86731 59.83863 2.384186E-06
v -19.94919 66.27359 2.861023E-06
v -23.78148 73.0865 2.384186E-06
v -14.26556 64.06848 2.384186E-06
v -18.14406 70.65697 2.384186E-06
v -21.79631 77.64867 2.861023E-06
v -12.50661 68.22742 2.384186E-06
v -16.21301 74.99094 3.33786E-06
v -19.72191 82.18044 3.33786E-06
v -10.62971 72.33318 2.861023E-06
v -14.19807 79.29197 3.33786E-06
v -17.60291 86.69698 3.33786E-06
v -8.674225 76.40348 3.33786E-06
v -12.14116 83.57652 3.33786E-06
v -6.679428 80.45606 3.33786E-06
vt 0.5 0
vt 0 0
vt 0 0.025
vt 0.5 0.025
vt 1 0
vt 0 0.05
vt 1 0.025
vt 0.5 0.04999999
vt 0 0.075
vt 1 0.05
vt 0.5 0.075
vt 0 0.1
vt 1 0.075
vt 0.5 0.09999999
vt 0 0.125
vt 1 0.1
vt 0.5 0.125
vt 0 0.15
vt 1 0.125
vt 0.5 0.15
vt 0 0.175
vt 1 0.15
vt 0.5 0.175
vt 0 0.2
vt 1 0.175
vt 0.5 0.2
vt 0 0.225
vt 1 0.2
vt 0.5 0.225
vt 0 0.25
vt 1 0.225
vt 0.5 0.25
vt 0 0.275
vt 1 0.25
vt 0.5 0.275
vt 0 0.3
vt 1 0.275
vt 0.5 0.3
vt 0 0.325
vt 1 0.3
vt 0.5 0.325
vt 0 0.35
vt 1 0.325
vt 0.5 0.35
vt 0 0.375
vt 1 0.35
vt 0.5 0.375
vt 0 0.4
vt 1 0.375
vt 0.5 0.4
vt 0 0.425
vt 1 0.4
vt 0.5 0.425
vt 0 0.45
vt 1 0.425
vt 0.5 0.45
vt 0 0.475
vt 1 0.45
vt 0.5 0.475
vt 0 0.5
vt 1 0.475
vt 0.5 0.5
vt 0 0.525
vt 1 0.5
vt 0.5 0.525
vt 0 0.55
vt 1 0.525
vt 0.5 0.55
vt 0 0.575
vt 1 0.55
vt 0.5 0.575
vt 0 0.6
vt 1 0.575
vt 0.5 0.6
vt 0 0.625
vt 1 0.6
vt 0.5 0.625
vt 0 0.65
vt 1 0.625
vt 0.5 0.65
vt 0 0.6750001
vt 1 0.65
vt 0.5 0.6750001
vt 0 0.7
vt 1 0.6750001
vt 0.5 0.7
vt 0 0.725
vt 1 0.7
vt 0.5 0.725
vt 0 0.7500001
vt 1 0.725
vt 0.5 0.7500001
vt 0 0.7750001
vt 1 0.7500001
vt 0.5 0.7750001
vt 0 0.8000001
vt 1 0.7750001
vt 0.5 0.8000001
vt 0 0.825
vt 1 0.8000001
vt 0.5 0.825
vt 0 0.8500001
vt 1 0.825
vt 0.5 0.85
vt 0 0.8750001
vt 1 0.8500001
vt 0.5 0.8750001
vt 0 0.9000001
vt 1 0.8750001
vt 0.5 0.9000001
vt 0 0.9250001
vt 1 0.9000001
vt 0.5 0.9250001
vt 0 0.9500001
vt 1 0.9250001
vt 0.5 0.9500001
vt 0 0.9750001
vt 1 0.9500001
vt 0.5 0.9750001
vt 0 1
vt 1 0.9750001
vt 0.5 1
vt 1 1
vn 0 0 1
vn 0 0 1
vn 0 0 1
vn 0 0 1
vn 0 0 1
vn 0 0 1
vn 0 0 1
vn 0 0 1
vn 0 0 1
vn 0 0 1
vn 0 0 1
vn 0 0 1
vn 0 0 1
vn 0 0 1
vn 0 0 1
vn 0 0 1
vn 0 0 1
vn 0 0 1
vn 0 0 1
vn 0 0 1
vn 0 0 1
vn 0 0 1
vn 0 0 1
vn 0 0 1
vn 0 0 1
vn 0 0 1
vn 0 0 1
vn 0 0 1
vn 0 0 1
vn 0 0 1
vn 0 0 1
vn 0 0 1
vn 0 0 1
vn 0 0 1
vn 0 0 1
vn 0 0 1
vn 0 0 1
vn 0 0 1
vn 0 0 1
vn 0 0 1
vn 0 0 1
vn 0 0 1
vn 0 0 1
vn 0 0 1
vn 0 0 1
vn 0 0 1
vn 0 0 1
vn 0 0 1
vn 0 0 1
vn 0 0 1
vn 0 0 1
vn 0 0 1
vn 0 0 1
vn 0 0 1
vn 0 0 1
vn 0 0 1
vn 0 0 1
vn 0 0 1
vn 0 0 1
vn 0 0 1
vn 0 0 1
vn 0 0 1
vn 0 0 1
vn 0 0 1
vn 0 0 1
vn 0 0 1
vn 0 0 1
vn 0 0 1
vn 0 0 1
vn 0 0 1
vn 0 0 1
vn 0 0 1
vn 0 0 1
vn 0 0 1
vn 0 0 1
vn 0 0 1
vn 0 0 1
vn 0 0 1
vn 0 0 1
vn 0 0 1
vn 0 0 1
vn 0 0 1
vn 0 0 1
vn 0 0 1
vn 0 0 1
vn 0 0 1
vn 0 0 1
vn 0 0 1
vn 0 0 1
vn 0 0 1
vn 0 0 1
vn 0 0 1
vn 0 0 1
vn 0 0 1
vn 0 0 1
vn 0 0 1
vn 0 0 1
vn 0 0 1
vn 0 0 1
vn 0 0 1
vn 0 0 1
vn 0 0 1
vn 0 0 1
vn 0 0 1
vn 0 0 1
vn 0 0 1
vn 0 0 1
vn 0 0 1
vn 0 0 1
vn 0 0 1
vn 0 0 1
vn 0 0 1
vn 0 0 1
vn 0 0 1
vn 0 0 1
vn 0 0 1
vn 0 0 1
vn 0 0 1
vn 0 0 1
vn 0 0 1
vn 0 0 1
vn 0 0 1
vn 0 0 1
g Beam9_0
f 3/3/3 2/2/2 1/1/1
f 4/4/4 3/3/3 1/1/1
f 4/4/4 1/1/1 5/5/5
f 6/6/6 3/3/3 4/4/4
f 7/7/7 4/4/4 5/5/5
f 8/8/8 6/6/6 4/4/4
f 8/8/8 4/4/4 7/7/7
f 9/9/9 6/6/6 8/8/8
f 10/10/10 8/8/8 7/7/7
f 11/11/11 9/9/9 8/8/8
f 11/11/11 8/8/8 10/10/10
f 12/12/12 9/9/9 11/11/11
f 13/13/13 11/11/11 10/10/10
f 14/14/14 12/12/12 11/11/11
f 14/14/14 11/11/11 13/13/13
f 15/15/15 12/12/12 14/14/14
f 16/16/16 14/14/14 13/13/13
f 17/17/17 15/15/15 14/14/14
f 17/17/17 14/14/14 16/16/16
f 18/18/18 15/15/15 17/17/17
f 19/19/19 17/17/17 16/16/16
f 20/20/20 18/18/18 17/17/17
f 20/20/20 17/17/17 19/19/19
f 21/21/21 18/18/18 20/20/20
f 22/22/22 20/20/20 19/19/19
f 23/23/23 21/21/21 20/20/20
f 23/23/23 20/20/20 22/22/22
f 24/24/24 21/21/21 23/23/23
f 25/25/25 23/23/23 22/22/22
f 26/26/26 24/24/24 23/23/23
f 26/26/26 23/23/23 25/25/25
f 27/27/27 24/24/24 26/26/26
f 28/28/28 26/26/26 25/25/25
f 29/29/29 27/27/27 26/26/26
f 29/29/29 26/26/26 28/28/28
f 30/30/30 27/27/27 29/29/29
f 31/31/31 29/29/29 28/28/28
f 32/32/32 30/30/30 29/29/29
f 32/32/32 29/29/29 31/31/31
f 33/33/33 30/30/30 32/32/32
f 34/34/34 32/32/32 31/31/31
f 35/35/35 33/33/33 32/32/32
f 35/35/35 32/32/32 34/34/34
f 36/36/36 33/33/33 35/35/35
f 37/37/37 35/35/35 34/34/34
f 38/38/38 36/36/36 35/35/35
f 38/38/38 35/35/35 37/37/37
f 39/39/39 36/36/36 38/38/38
f 40/40/40 38/38/38 37/37/37
f 41/41/41 39/39/39 38/38/38
f 41/41/41 38/38/38 40/40/40
f 42/42/42 39/39/39 41/41/41
f 43/43/43 41/41/41 40/40/40
f 44/44/44 42/42/42 41/41/41
f 44/44/44 41/41/41 43/43/43
f 45/45/45 42/42/42 44/44/44
f 46/46/46 44/44/44 43/43/43
f 47/47/47 45/45/45 44/44/44
f 47/47/47 44/44/44 46/46/46
f 48/48/48 45/45/45 47/47/47
f 49/49/49 47/47/47 46/46/46
f 50/50/50 48/48/48 47/47/47
f 50/50/50 47/47/47 49/49/49
f 51/51/51 48/48/48 50/50/50
f 52/52/52 50/50/50 49/49/49
f 53/53/53 51/51/51 50/50/50
f 53/53/53 50/50/50 52/52/52
f 54/54/54 51/51/51 53/53/53
f 55/55/55 53/53/53 52/52/52
f 56/56/56 54/54/54 53/53/53
f 56/56/56 53/53/53 55/55/55
f 57/57/57 54/54/54 56/56/56
f 58/58/58 56/56/56 55/55/55
f 59/59/59 57/57/57 56/56/56
f 59/59/59 56/56/56 58/58/58
f 60/60/60 57/57/57 59/59/59
f 61/61/61 59/59/59 58/58/58
f 62/62/62 60/60/60 59/59/59
f 62/62/62 59/59/59 61/61/61
f 63/63/63 60/60/60 62/62/62
f 64/64/64 62/62/62 61/61/61
f 65/65/65 63/63/63 62/62/62
f 65/65/65 62/62/62 64/64/64
f 66/66/66 63/63/63 65/65/65
f 67/67/67 65/65/65 64/64/64
f 68/68/68 66/66/66 65/65/65
f 68/68/68 65/65/65 67/67/67
f 69/69/69 66/66/66 68/68/68
f 70/70/70 68/68/68 67/67/67
f 71/71/71 69/69/69 68/68/68
f 71/71/71 68/68/68 70/70/70
f 72/72/72 69/69/69 71/71/71
f 73/73/73 71/71/71 70/70/70
f 74/74/74 72/72/72 71/71/71
f 74/74/74 71/71/71 73/73/73
f 75/75/75 72/72/72 74/74/74
f 76/76/76 74/74/74 73/73/73
f 77/77/77 75/75/75 74/74/74
f 77/77/77 74/74/74 76/76/76
f 78/78/78 75/75/75 77/77/77
f 79/79/79 77/77/77 76/76/76
f 80/80/80 78/78/78 77/77/77
f 80/80/80 77/77/77 79/79/79
f 81/81/81 78/78/78 80/80/80
f 82/82/82 80/80/80 79/79/79
f 83/83/83 81/81/81 80/80/80
f 83/83/83 80/80/80 82/82/82
f 84/84/84 81/81/81 83/83/83
f 85/85/85 83/83/83 82/82/82
f 86/86/86 84/84/84 83/83/83
f 86/86/86 83/83/83 85/85/85
f 87/87/87 84/84/84 86/86/86
f 88/88/88 86/86/86 85/85/85
f 89/89/89 87/87/87 86/86/86
f 89/89/89 86/86/86 88/88/88
f 90/90/90 87/87/87 89/89/89
f 91/91/91 89/89/89 88/88/88
f 92/92/92 90/90/90 89/89/89
f 92/92/92 89/89/89 91/91/91
f 93/93/93 90/90/90 92/92/92
f 94/94/94 92/92/92 91/91/91
f 95/95/95 93/93/93 92/92/92
f 95/95/95 92/92/92 94/94/94
f 96/96/96 93/93/93 95/95/95
f 97/97/97 95/95/95 94/94/94
f 98/98/98 96/96/96 95/95/95
f 98/98/98 95/95/95 97/97/97
f 99/99/99 96/96/96 98/98/98
f 100/100/100 98/98/98 97/97/97
f 101/101/101 99/99/99 98/98/98
f 101/101/101 98/98/98 100/100/100
f 102/102/102 99/99/99 101/101/101
f 103/103/103 101/101/101 100/100/100
f 104/104/104 102/102/102 101/101/101
f 104/104/104 101/101/101 103/103/103
f 105/105/105 102/102/102 104/104/104
f 106/106/106 104/104/104 103/103/103
f 107/107/107 105/105/105 104/104/104
f 107/107/107 104/104/104 106/106/106
f 108/108/108 105/105/105 107/107/107
f 109/109/109 107/107/107 106/106/106
f 110/110/110 108/108/108 107/107/107
f 110/110/110 107/107/107 109/109/109
f 111/111/111 108/108/108 110/110/110
f 112/112/112 110/110/110 109/109/109
f 113/113/113 111/111/111 110/110/110
f 113/113/113 110/110/110 112/112/112
f 114/114/114 111/111/111 113/113/113
f 115/115/115 113/113/113 112/112/112
f 116/116/116 114/114/114 113/113/113
f 116/116/116 113/113/113 115/115/115
f 117/117/117 114/114/114 116/116/116
f 118/118/118 116/116/116 115/115/115
f 119/119/119 117/117/117 116/116/116
f 119/119/119 116/116/116 118/118/118
f 120/120/120 117/117/117 119/119/119
f 121/121/121 119/119/119 118/118/118
f 122/122/122 120/120/120 119/119/119
f 122/122/122 119/119/119 121/121/121
f 123/123/123 122/122/122 121/121/121
