g Beam6
v -4.285614 -84.18439 -8.34465E-07
v -8.836578 -83.98632 -8.34465E-07
v -8.620682 -78.9872 -8.34465E-07
v -4.069626 -79.18296 -8.34465E-07
v 0.2653503 -84.38247 -8.34465E-07
v -8.407532 -73.98904 -8.34465E-07
v 0.4814453 -79.37872 -8.34465E-07
v -3.856354 -74.18142 -8.34465E-07
v -8.19989 -68.99284 -8.34465E-07
v 0.6948547 -74.3738 -8.34465E-07
v -3.648499 -69.17969 -8.34465E-07
v -8.000519 -63.99954 -8.34465E-07
v 0.9028931 -69.36653 -8.34465E-07
v -3.448837 -64.17764 -7.152557E-07
v -7.812164 -59.01014 -8.34465E-07
v 1.102875 -64.35574 -8.34465E-07
v -3.26001 -59.17519 -8.34465E-07
v -7.640717 -54.02512 -8.34465E-07
v 1.292114 -59.34023 -8.34465E-07
v -3.088043 -54.17228 -8.34465E-07
v -7.492065 -49.045 -8.34465E-07
v 1.4646 -54.31942 -8.34465E-07
v -2.938873 -49.16883 -8.34465E-07
v -7.372162 -44.07026 -7.152557E-07
v 1.614288 -49.29266 -8.34465E-07
v -2.818497 -44.16479 -7.152557E-07
v -7.286865 -39.1014 -5.960464E-07
v 1.735138 -44.25933 -7.152557E-07
v -2.732849 -39.16011 -5.960464E-07
v -7.245361 -34.1403 -5.960464E-07
v 1.821152 -39.21882 -5.960464E-07
v -2.691406 -34.15541 -5.960464E-07
v -7.256744 -29.18881 -5.960464E-07
v 1.862564 -34.17052 -5.960464E-07
v -2.703583 -29.15132 -5.960464E-07
v -7.3302 -24.24881 -5.960464E-07
v 1.849609 -29.11383 -5.960464E-07
v -2.778824 -24.14847 -5.960464E-07
v -7.474854 -19.32215 -5.960464E-07
v 1.772552 -24.04814 -5.960464E-07
v -2.92662 -19.1475 -5.960464E-07
v -7.708633 -14.417 -5.960464E-07
v 1.621628 -18.97285 -5.960464E-07
v -3.166595 -14.15251 -5.960464E-07
v -8.049438 -9.541531 -5.960464E-07
v 1.375458 -13.88803 -5.960464E-07
v -3.518402 -9.167643 -5.960464E-07
v -8.515198 -4.703904 -5.960464E-07
v 1.012665 -8.793755 -5.960464E-07
v -4.001678 -4.197004 -5.960464E-07
v -9.123825 0.0877161 -5.960464E-07
v 0.5118561 -3.690105 -5.960464E-07
v -4.636078 0.7552814 -5.960464E-07
v -9.914703 4.804469 -5.960464E-07
v -0.1483307 1.422845 -5.960464E-07
v -5.468338 5.664403 -5.960464E-07
v -10.92722 9.417494 -5.960464E-07
v -1.022003 6.524337 -5.960464E-07
v -6.545197 10.50555 -5.960464E-07
v -12.20078 13.89793 -5.960464E-07
v -2.163208 11.59361 -5.960464E-07
v -7.913376 15.25392 -5.960464E-07
v -13.77473 18.21692 -5.960464E-07
v -3.626038 16.6099 -5.960464E-07
v -9.619629 19.88469 -5.960464E-07
v -15.6575 22.36077 -5.960464E-07
v -5.464554 21.55245 -5.960464E-07
v -11.66628 24.36437 -5.960464E-07
v -17.85745 26.3158 -5.960464E-07
v -7.675079 26.36797 -5.960464E-07
v -14.05569 28.65949 -5.960464E-07
v -20.38297 30.0683 -5.960464E-07
v -10.25397 31.00318 -4.768372E-07
v -16.79021 32.73655 -5.960464E-07
v -23.24237 33.60459 -5.960464E-07
v -13.19751 35.40479 -4.768372E-07
v -19.87219 36.56205 -5.960464E-07
v -26.40187 36.9244 -5.960464E-07
v -16.50201 39.51951 -5.960464E-07
v -23.26158 40.13692 -5.960464E-07
v -29.82759 40.02747 -5.960464E-07
v -20.12128 43.34944 -5.960464E-07
v -26.9183 43.46208 -5.960464E-07
v -33.48567 42.91351 -5.960464E-07
v -24.00906 46.89669 -5.960464E-07
v -30.80237 46.53844 -5.960464E-07
v -37.34224 45.58228 -5.960464E-07
v -28.11911 50.16335 -5.960464E-07
v -34.87372 49.36691 -5.960464E-07
v -41.37299 48.04652 -5.960464E-07
v -32.40521 53.15154 -5.960464E-07
v -39.1069 51.96397 -5.960464E-07
v -45.55359 50.31902 -5.960464E-07
v -36.84084 55.88141 -5.960464E-07
v -43.47653 54.34609 -5.960464E-07
v -49.8597 52.41256 -5.960464E-07
v -41.39946 58.37315 -5.960464E-07
v -47.95714 56.52976 -7.152557E-07
v -54.267 54.3399 -7.152557E-07
v -46.05457 60.64696 -5.960464E-07
v -52.52335 58.53145 -8.34465E-07
v -58.76465 56.11821 -8.34465E-07
v -50.77966 62.723 -7.152557E-07
v -57.16241 60.36987 -8.34465E-07
v -63.3418 57.76462 -8.34465E-07
v -55.5602 64.62152 -8.34465E-07
v -61.86174 62.0637 -8.34465E-07
v -67.98761 59.2963 -8.34465E-07
v -60.38165 66.36277 -8.34465E-07
v -66.6086 63.63165 -7.152557E-07
v -72.69125 60.7304 -8.34465E-07
v -65.22952 67.967 -8.34465E-07
v -71.39029 65.09243 -8.34465E-07
v -77.43826 62.09131 -8.34465E-07
v -70.08929 69.45445 -8.34465E-07
v -76.19814 66.47282 -8.34465E-07
v -82.21417 63.40343 -8.34465E-07
v -74.95799 70.85432 -8.34465E-07
v -81.02341 67.79962 -8.34465E-07
v -87.00456 64.69116 -8.34465E-07
v -79.83263 72.1958 -8.34465E-07
v -85.8574 69.09962 -8.34465E-07
v -84.71024 73.50809 -8.34465E-07
vt 0.5 0
vt 0 0
vt 0 0.025
vt 0.5 0.025
vt 1 0
vt 0 0.05
vt 1 0.025
vt 0.5 0.04999999
vt 0 0.075
vt 1 0.05
vt 0.5 0.075
vt 0 0.1
vt 1 0.075
vt 0.5 0.09999999
vt 0 0.125
vt 1 0.1
vt 0.5 0.125
vt 0 0.15
vt 1 0.125
vt 0.5 0.15
vt 0 0.175
vt 1 0.15
vt 0.5 0.175
vt 0 0.2
vt 1 0.175
vt 0.5 0.2
vt 0 0.225
vt 1 0.2
vt 0.5 0.225
vt 0 0.25
vt 1 0.225
vt 0.5 0.25
vt 0 0.275
vt 1 0.25
vt 0.5 0.275
vt 0 0.3
vt 1 0.275
vt 0.5 0.3
vt 0 0.325
vt 1 0.3
vt 0.5 0.325
vt 0 0.35
vt 1 0.325
vt 0.5 0.35
vt 0 0.375
vt 1 0.35
vt 0.5 0.375
vt 0 0.4
vt 1 0.375
vt 0.5 0.4
vt 0 0.425
vt 1 0.4
vt 0.5 0.425
vt 0 0.45
vt 1 0.425
vt 0.5 0.45
vt 0 0.475
vt 1 0.45
vt 0.5 0.475
vt 0 0.5
vt 1 0.475
vt 0.5 0.5
vt 0 0.525
vt 1 0.5
vt 0.5 0.525
vt 0 0.55
vt 1 0.525
vt 0.5 0.55
vt 0 0.575
vt 1 0.55
vt 0.5 0.575
vt 0 0.6
vt 1 0.575
vt 0.5 0.6
vt 0 0.625
vt 1 0.6
vt 0.5 0.625
vt 0 0.65
vt 1 0.625
vt 0.5 0.65
vt 0 0.6750001
vt 1 0.65
vt 0.5 0.6750001
vt 0 0.7
vt 1 0.6750001
vt 0.5 0.7
vt 0 0.725
vt 1 0.7
vt 0.5 0.725
vt 0 0.7500001
vt 1 0.725
vt 0.5 0.7500001
vt 0 0.7750001
vt 1 0.7500001
vt 0.5 0.7750001
vt 0 0.8000001
vt 1 0.7750001
vt 0.5 0.8000001
vt 0 0.825
vt 1 0.8000001
vt 0.5 0.825
vt 0 0.8500001
vt 1 0.825
vt 0.5 0.85
vt 0 0.8750001
vt 1 0.8500001
vt 0.5 0.8750001
vt 0 0.9000001
vt 1 0.8750001
vt 0.5 0.9000001
vt 0 0.9250001
vt 1 0.9000001
vt 0.5 0.9250001
vt 0 0.9500001
vt 1 0.9250001
vt 0.5 0.9500001
vt 0 0.9750001
vt 1 0.9500001
vt 0.5 0.9750001
vt 0 1
vt 1 0.9750001
vt 0.5 1
vt 1 1
vn 0 0 1
vn 0 0 1
vn 0 0 1
vn 0 0 1
vn 0 0 1
vn 0 0 1
vn 0 0 1
vn 0 0 1
vn 0 0 1
vn 0 0 1
vn 0 0 1
vn 0 0 1
vn 0 0 1
vn 0 0 1
vn 0 0 1
vn 0 0 1
vn 0 0 1
vn 0 0 1
vn 0 0 1
vn 0 0 1
vn 0 0 1
vn 0 0 1
vn 0 0 1
vn 0 0 1
vn 0 0 1
vn 0 0 1
vn 0 0 1
vn 0 0 1
vn 0 0 1
vn 0 0 1
vn 0 0 1
vn 0 0 1
vn 0 0 1
vn 0 0 1
vn 0 0 1
vn 0 0 1
vn 0 0 1
vn 0 0 1
vn 0 0 1
vn 0 0 1
vn 0 0 1
vn 0 0 1
vn 0 0 1
vn 0 0 1
vn 0 0 1
vn 0 0 1
vn 0 0 1
vn 0 0 1
vn 0 0 1
vn 0 0 1
vn 0 0 1
vn 0 0 1
vn 0 0 1
vn 0 0 1
vn 0 0 1
vn 0 0 1
vn 0 0 1
vn 0 0 1
vn 0 0 1
vn 0 0 1
vn 0 0 1
vn 0 0 1
vn 0 0 1
vn 0 0 1
vn 0 0 1
vn 0 0 1
vn 0 0 1
vn 0 0 1
vn 0 0 1
vn 0 0 1
vn 0 0 1
vn 0 0 1
vn 0 0 1
vn 0 0 1
vn 0 0 1
vn 0 0 1
vn 0 0 1
vn 0 0 1
vn 0 0 1
vn 0 0 1
vn 0 0 1
vn 0 0 1
vn 0 0 1
vn 0 0 1
vn 0 0 1
vn 0 0 1
vn 0 0 1
vn 0 0 1
vn 0 0 1
vn 0 0 1
vn 0 0 1
vn 0 0 1
vn 0 0 1
vn 0 0 1
vn 0 0 1
vn 0 0 1
vn 0 0 1
vn 0 0 1
vn 0 0 1
vn 0 0 1
vn 0 0 1
vn 0 0 1
vn 0 0 1
vn 0 0 1
vn 0 0 1
vn 0 0 1
vn 0 0 1
vn 0 0 1
vn 0 0 1
vn 0 0 1
vn 0 0 1
vn 0 0 1
vn 0 0 1
vn 0 0 1
vn 0 0 1
vn 0 0 1
vn 0 0 1
vn 0 0 1
vn 0 0 1
vn 0 0 1
vn 0 0 1
vn 0 0 1
vn 0 0 1
g Beam6_0
f 3/3/3 2/2/2 1/1/1
f 4/4/4 3/3/3 1/1/1
f 4/4/4 1/1/1 5/5/5
f 6/6/6 3/3/3 4/4/4
f 7/7/7 4/4/4 5/5/5
f 8/8/8 6/6/6 4/4/4
f 8/8/8 4/4/4 7/7/7
f 9/9/9 6/6/6 8/8/8
f 10/10/10 8/8/8 7/7/7
f 11/11/11 9/9/9 8/8/8
f 11/11/11 8/8/8 10/10/10
f 12/12/12 9/9/9 11/11/11
f 13/13/13 11/11/11 10/10/10
f 14/14/14 12/12/12 11/11/11
f 14/14/14 11/11/11 13/13/13
f 15/15/15 12/12/12 14/14/14
f 16/16/16 14/14/14 13/13/13
f 17/17/17 15/15/15 14/14/14
f 17/17/17 14/14/14 16/16/16
f 18/18/18 15/15/15 17/17/17
f 19/19/19 17/17/17 16/16/16
f 20/20/20 18/18/18 17/17/17
f 20/20/20 17/17/17 19/19/19
f 21/21/21 18/18/18 20/20/20
f 22/22/22 20/20/20 19/19/19
f 23/23/23 21/21/21 20/20/20
f 23/23/23 20/20/20 22/22/22
f 24/24/24 21/21/21 23/23/23
f 25/25/25 23/23/23 22/22/22
f 26/26/26 24/24/24 23/23/23
f 26/26/26 23/23/23 25/25/25
f 27/27/27 24/24/24 26/26/26
f 28/28/28 26/26/26 25/25/25
f 29/29/29 27/27/27 26/26/26
f 29/29/29 26/26/26 28/28/28
f 30/30/30 27/27/27 29/29/29
f 31/31/31 29/29/29 28/28/28
f 32/32/32 30/30/30 29/29/29
f 32/32/32 29/29/29 31/31/31
f 33/33/33 30/30/30 32/32/32
f 34/34/34 32/32/32 31/31/31
f 35/35/35 33/33/33 32/32/32
f 35/35/35 32/32/32 34/34/34
f 36/36/36 33/33/33 35/35/35
f 37/37/37 35/35/35 34/34/34
f 38/38/38 36/36/36 35/35/35
f 38/38/38 35/35/35 37/37/37
f 39/39/39 36/36/36 38/38/38
f 40/40/40 38/38/38 37/37/37
f 41/41/41 39/39/39 38/38/38
f 41/41/41 38/38/38 40/40/40
f 42/42/42 39/39/39 41/41/41
f 43/43/43 41/41/41 40/40/40
f 44/44/44 42/42/42 41/41/41
f 44/44/44 41/41/41 43/43/43
f 45/45/45 42/42/42 44/44/44
f 46/46/46 44/44/44 43/43/43
f 47/47/47 45/45/45 44/44/44
f 47/47/47 44/44/44 46/46/46
f 48/48/48 45/45/45 47/47/47
f 49/49/49 47/47/47 46/46/46
f 50/50/50 48/48/48 47/47/47
f 50/50/50 47/47/47 49/49/49
f 51/51/51 48/48/48 50/50/50
f 52/52/52 50/50/50 49/49/49
f 53/53/53 51/51/51 50/50/50
f 53/53/53 50/50/50 52/52/52
f 54/54/54 51/51/51 53/53/53
f 55/55/55 53/53/53 52/52/52
f 56/56/56 54/54/54 53/53/53
f 56/56/56 53/53/53 55/55/55
f 57/57/57 54/54/54 56/56/56
f 58/58/58 56/56/56 55/55/55
f 59/59/59 57/57/57 56/56/56
f 59/59/59 56/56/56 58/58/58
f 60/60/60 57/57/57 59/59/59
f 61/61/61 59/59/59 58/58/58
f 62/62/62 60/60/60 59/59/59
f 62/62/62 59/59/59 61/61/61
f 63/63/63 60/60/60 62/62/62
f 64/64/64 62/62/62 61/61/61
f 65/65/65 63/63/63 62/62/62
f 65/65/65 62/62/62 64/64/64
f 66/66/66 63/63/63 65/65/65
f 67/67/67 65/65/65 64/64/64
f 68/68/68 66/66/66 65/65/65
f 68/68/68 65/65/65 67/67/67
f 69/69/69 66/66/66 68/68/68
f 70/70/70 68/68/68 67/67/67
f 71/71/71 69/69/69 68/68/68
f 71/71/71 68/68/68 70/70/70
f 72/72/72 69/69/69 71/71/71
f 73/73/73 71/71/71 70/70/70
f 74/74/74 72/72/72 71/71/71
f 74/74/74 71/71/71 73/73/73
f 75/75/75 72/72/72 74/74/74
f 76/76/76 74/74/74 73/73/73
f 77/77/77 75/75/75 74/74/74
f 77/77/77 74/74/74 76/76/76
f 78/78/78 75/75/75 77/77/77
f 79/79/79 77/77/77 76/76/76
f 80/80/80 78/78/78 77/77/77
f 80/80/80 77/77/77 79/79/79
f 81/81/81 78/78/78 80/80/80
f 82/82/82 80/80/80 79/79/79
f 83/83/83 81/81/81 80/80/80
f 83/83/83 80/80/80 82/82/82
f 84/84/84 81/81/81 83/83/83
f 85/85/85 83/83/83 82/82/82
f 86/86/86 84/84/84 83/83/83
f 86/86/86 83/83/83 85/85/85
f 87/87/87 84/84/84 86/86/86
f 88/88/88 86/86/86 85/85/85
f 89/89/89 87/87/87 86/86/86
f 89/89/89 86/86/86 88/88/88
f 90/90/90 87/87/87 89/89/89
f 91/91/91 89/89/89 88/88/88
f 92/92/92 90/90/90 89/89/89
f 92/92/92 89/89/89 91/91/91
f 93/93/93 90/90/90 92/92/92
f 94/94/94 92/92/92 91/91/91
f 95/95/95 93/93/93 92/92/92
f 95/95/95 92/92/92 94/94/94
f 96/96/96 93/93/93 95/95/95
f 97/97/97 95/95/95 94/94/94
f 98/98/98 96/96/96 95/95/95
f 98/98/98 95/95/95 97/97/97
f 99/99/99 96/96/96 98/98/98
f 100/100/100 98/98/98 97/97/97
f 101/101/101 99/99/99 98/98/98
f 101/101/101 98/98/98 100/100/100
f 102/102/102 99/99/99 101/101/101
f 103/103/103 101/101/101 100/100/100
f 104/104/104 102/102/102 101/101/101
f 104/104/104 101/101/101 103/103/103
f 105/105/105 102/102/102 104/104/104
f 106/106/106 104/104/104 103/103/103
f 107/107/107 105/105/105 104/104/104
f 107/107/107 104/104/104 106/106/106
f 108/108/108 105/105/105 107/107/107
f 109/109/109 107/107/107 106/106/106
f 110/110/110 108/108/108 107/107/107
f 110/110/110 107/107/107 109/109/109
f 111/111/111 108/108/108 110/110/110
f 112/112/112 110/110/110 109/109/109
f 113/113/113 111/111/111 110/110/110
f 113/113/113 110/110/110 112/112/112
f 114/114/114 111/111/111 113/113/113
f 115/115/115 113/113/113 112/112/112
f 116/116/116 114/114/114 113/113/113
f 116/116/116 113/113/113 115/115/115
f 117/117/117 114/114/114 116/116/116
f 118/118/118 116/116/116 115/115/115
f 119/119/119 117/117/117 116/116/116
f 119/119/119 116/116/116 118/118/118
f 120/120/120 117/117/117 119/119/119
f 121/121/121 119/119/119 118/118/118
f 122/122/122 120/120/120 119/119/119
f 122/122/122 119/119/119 121/121/121
f 123/123/123 122/122/122 121/121/121
