g Beam3
v -23.47961 144.0819 -2.128414E-06
v -41.95815 139.1006 -2.128414E-06
v -25.45274 149.5645 -2.128414E-06
v -39.45174 133.9562 -2.128414E-06
v -21.5333 138.6958 -2.128414E-06
v -58.46355 128.6368 -2.128414E-06
v -36.94657 128.869 -2.128414E-06
v -19.64062 133.5024 -2.128414E-06
v -55.42387 123.8304 -2.128414E-06
v -34.44383 123.8961 -2.128414E-06
v -17.82838 128.5981 -2.128414E-06
v -71.39601 113.7047 -2.128414E-06
v -74.96896 118.173 -2.128414E-06
v -52.35983 119.0421 -2.128414E-06
v -31.94477 119.0949 -2.128414E-06
v -16.12341 124.0794 -2.128414E-06
v -87.36815 103.579 -2.128414E-06
v -91.47437 107.7092 -2.128414E-06
v -83.18638 99.38847 -2.128414E-06
v -67.7731 109.2153 -2.128414E-06
v -78.8535 95.07735 -2.128414E-06
v -64.05028 104.6836 -2.128414E-06
v -74.29396 90.58533 -2.128414E-06
v -49.24705 114.2899 -2.128414E-06
v -60.17757 100.0885 -2.128414E-06
v -69.43222 85.8521 -2.128414E-06
v -46.06116 109.5917 -2.128414E-06
v -56.10501 95.40891 -2.128414E-06
v -64.37161 81.04843 -2.128414E-06
v -29.45061 114.5226 -2.128414E-06
v -14.38882 119.8098 -2.128414E-06
v -42.7778 104.9657 -2.128414E-06
v -51.87592 90.73878 -2.128414E-06
v -59.2155 76.34512 -2.128414E-06
v -26.88452 110.1195 -2.128414E-06
v -12.48779 115.6532 -2.128414E-06
v -39.38022 100.4291 -2.128414E-06
v -47.53357 86.17214 -2.128414E-06
v -54.06723 71.91296 -2.128414E-06
v -24.16971 105.8262 -2.128414E-06
v -10.28342 111.4732 -2.128414E-06
v -35.85164 95.99915 -2.128414E-06
v -43.12128 81.80302 -2.128414E-06
v -49.03014 67.92272 -2.128414E-06
v -21.22937 101.5832 -2.128414E-06
v -7.638863 107.1336 -2.128414E-06
v -32.17532 91.69309 -2.128414E-06
v -38.68232 77.72545 -2.128414E-06
v -44.17993 64.30699 -2.128414E-06
v -17.98668 97.33091 -2.128414E-06
v -4.632736 102.5692 -2.128414E-06
v -28.3345 87.52818 -2.128414E-06
v -34.29314 73.87254 -2.128414E-06
v -39.59231 60.99837 -2.128414E-06
v -14.51954 93.00362 -2.128414E-06
v -1.343666 97.7145 -2.128414E-06
v -24.40633 83.43807 -2.128414E-06
v -30.03015 70.1774 -2.128414E-06
v -35.34296 57.92942 -2.128414E-06
v -10.90582 88.53547 -2.128414E-06
v 2.149734 92.50439 -2.128414E-06
v -20.46799 79.35644 -2.128414E-06
v -25.96979 66.57317 -2.128414E-06
v -31.50758 55.03275 -2.128414E-06
v -7.223434 83.86065 -2.128414E-06
v 5.768845 86.87357 -2.128414E-06
v -16.59661 75.21691 -2.128414E-06
v -22.18848 62.99295 -2.128414E-06
v -28.07086 52.22548 -2.128414E-06
v -3.550262 78.91336 -2.128414E-06
v 9.348877 80.85114 -2.128414E-06
v -12.86937 70.95316 -2.128414E-06
v -18.71593 59.3819 -2.128414E-06
v -25.01749 49.42477 -2.128414E-06
v -0.006057739 73.69473 -2.128414E-06
v 12.72501 74.46628 -2.128414E-06
v -9.361 66.53831 -2.128414E-06
v -15.58187 55.68515 -2.128414E-06
v -22.33216 46.54777 -2.128414E-06
v 3.289383 68.2059 -2.128414E-06
v 15.73245 67.74811 -2.128414E-06
v -6.14624 61.94553 -2.128414E-06
v -12.81601 51.84785 -2.128414E-06
v -19.99955 43.5116 -2.128414E-06
v 6.216293 62.44802 -2.128414E-06
v 18.20639 60.72577 -2.128414E-06
v -3.29985 57.14794 -2.128414E-06
v -10.44806 47.81514 -2.128414E-06
v -18.01021 40.25946 -2.128414E-06
v 8.654907 56.42223 -2.128414E-06
v 20.13843 53.53444 -2.128414E-06
v -0.8965759 52.11868 -2.128414E-06
v -8.473053 43.57821 -2.128414E-06
v -16.35466 36.73455 -2.128414E-06
v 10.60127 50.2157 -2.128414E-06
v 21.52013 46.30931 -2.128414E-06
v 1.064102 46.89696 -2.128414E-06
v -6.885963 39.12824 -2.128414E-06
v -15.02347 32.88004 -2.128414E-06
v 12.05144 43.91562 -2.128414E-06
v 22.34309 39.18555 -2.128414E-06
v 2.582733 41.52193 -2.128414E-06
v -5.681824 34.45642 -2.128414E-06
v -14.00716 28.63913 -2.128414E-06
v 13.00145 37.60918 -2.128414E-06
v 22.59889 32.29836 -2.128414E-06
v 3.659821 36.0328 -2.128414E-06
v -4.855652 29.55393 -2.128414E-06
v -13.25511 24.05449 -2.128414E-06
v 13.44737 31.38355 -2.128414E-06
v 22.4142 25.64271 -2.128414E-06
v 4.295868 30.46874 -2.128414E-06
v -4.337784 24.45154 -2.128414E-06
v -12.71669 19.16879 -2.128414E-06
v 13.49687 25.24565 -2.128414E-06
v 21.91568 19.21361 -2.128414E-06
v 4.579544 24.8486 -2.128414E-06
v -4.058594 19.18 -2.128414E-06
v -12.34126 14.02472 -2.128414E-06
v 13.25758 19.2024 -2.128414E-06
v 21.23001 13.00606 -2.128414E-06
v 4.599503 19.1912 -2.128414E-06
v -3.948441 13.77005 -2.128414E-06
v -12.0782 8.664936 -2.128414E-06
v 12.83719 13.26073 -2.128414E-06
v 20.48387 7.015057 -2.128414E-06
v 4.444382 13.51539 -2.128414E-06
v -3.937683 8.252466 -2.128414E-06
v -11.91 3.144257 -2.128414E-06
v 12.34335 7.427526 -2.128414E-06
v 19.69833 1.185896 -2.128414E-06
v 4.202835 7.839996 -2.128414E-06
v -4.007919 2.654667 -2.128414E-06
v -11.81917 -2.482508 -2.128414E-06
v 11.79625 1.675486 -2.128414E-06
v 18.89444 -4.536123 -2.128414E-06
v 3.894165 2.165076 -2.128414E-06
v -4.140762 -2.995912 -2.128414E-06
v -11.78818 -8.160543 -2.128414E-06
v 11.21605 -4.022719 -2.128414E-06
v 18.09328 -10.2057 -2.128414E-06
v 3.537643 -3.509315 -2.128414E-06
v -4.317818 -8.671833 -2.128414E-06
v -11.79955 -13.83504 -2.128414E-06
v 10.62291 -9.694414 -2.128414E-06
v 17.31589 -15.87755 -2.128414E-06
v 3.152542 -9.183125 -2.128414E-06
v -4.520691 -14.34567 -2.128414E-06
v -11.85388 -19.50612 -2.128414E-06
v 10.03703 -15.36692 -2.128414E-06
v 16.56169 -21.5514 -2.128414E-06
v 2.758163 -14.85629 -2.128414E-06
v -4.749992 -20.01744 -2.128414E-06
v -11.95181 -25.17391 -2.128414E-06
v 9.457794 -21.04008 -2.128414E-06
v 15.83009 -27.22702 -2.128414E-06
v 2.353897 -20.52876 -2.128414E-06
v -5.00634 -25.68719 -2.128414E-06
v -12.09395 -30.83854 -2.128414E-06
v 8.884613 -26.71374 -2.128414E-06
v 15.1205 -32.90414 -2.128414E-06
v 1.939133 -26.20046 -2.128414E-06
v -5.290337 -31.35493 -2.128414E-06
v -12.2809 -36.50012 -2.128414E-06
v 8.316879 -32.38774 -2.128414E-06
v 14.4323 -38.58252 -2.128414E-06
v 1.513275 -31.87134 -2.128414E-06
v -5.6026 -37.02072 -2.128414E-06
v -12.5121 -42.15969 -2.128414E-06
v 7.753998 -38.06192 -2.128414E-06
v 13.76625 -44.26118 -2.128414E-06
v 1.075699 -37.54132 -2.128414E-06
v -5.94252 -42.68507 -2.128414E-06
v -12.78698 -47.81828 -2.128414E-06
v 7.196655 -43.73581 -2.128414E-06
v 13.12309 -49.93919 -2.128414E-06
v 0.6270599 -43.21044 -2.128414E-06
v -6.309464 -48.3485 -2.128414E-06
v -13.10496 -53.47689 -2.128414E-06
v 6.645569 -49.40896 -2.128414E-06
v 12.50362 -55.61556 -2.128414E-06
v 0.1680603 -48.87873 -2.128414E-06
v -6.70282 -54.01156 -2.128414E-06
v -13.46547 -59.13657 -2.128414E-06
v 6.101471 -55.08089 -2.128414E-06
v 11.90852 -61.28934 -2.128414E-06
v -0.3006744 -54.54622 -2.128414E-06
v -7.121971 -59.67477 -2.128414E-06
v -13.85788 -64.79706 -2.128414E-06
v 5.565018 -60.75114 -2.128414E-06
v 11.33176 -66.96117 -2.128414E-06
v -0.7784729 -60.21295 -2.128414E-06
v -7.560471 -65.33808 -2.128414E-06
v -14.27155 -70.45807 -2.128414E-06
v 5.034348 -66.42014 -2.128414E-06
v 10.7672 -72.6317 -2.128414E-06
v -1.263054 -65.8791 -2.128414E-06
v -8.011856 -71.00147 -2.128414E-06
v -14.69585 -76.11935 -2.128414E-06
v -8.469696 -76.6649 -2.128414E-06
v 4.507523 -72.08829 -2.128414E-06
v 10.20872 -78.30158 -2.128414E-06
v 3.98259 -77.75602 -2.128414E-06
v -1.752167 -71.54488 -2.128414E-06
v -2.243553 -77.21046 -2.128414E-06
vt 1 0.9750001
vt 0.75 1
vt 1 1
vt 0.75 0.9750001
vt 1 0.9500001
vt 0.5 1
vt 0.75 0.9500001
vt 1 0.9250001
vt 0.5 0.9750001
vt 0.75 0.9250001
vt 1 0.9000001
vt 0.25 0.9750001
vt 0.25 1
vt 0.5 0.9500001
vt 0.75 0.9000001
vt 1 0.8750001
vt 0 0.9750001
vt 0 1
vt 0 0.9500001
vt 0.25 0.9500001
vt 0 0.9250001
vt 0.25 0.9250001
vt 0 0.9000001
vt 0.5 0.9250001
vt 0.25 0.9000001
vt 0 0.8750001
vt 0.5 0.9000001
vt 0.25 0.8750001
vt 0 0.8500001
vt 0.75 0.8750001
vt 1 0.8500001
vt 0.5 0.8750001
vt 0.25 0.85
vt 0 0.825
vt 0.75 0.85
vt 1 0.825
vt 0.5 0.85
vt 0.25 0.825
vt 0 0.8000001
vt 0.75 0.825
vt 1 0.8000001
vt 0.5 0.825
vt 0.25 0.8000001
vt 0 0.7750001
vt 0.75 0.8000001
vt 1 0.7750001
vt 0.5 0.8000001
vt 0.25 0.7750001
vt 0 0.7500001
vt 0.75 0.7750001
vt 1 0.7500001
vt 0.5 0.7750001
vt 0.25 0.7500001
vt 0 0.725
vt 0.75 0.7500001
vt 1 0.725
vt 0.5 0.7500001
vt 0.25 0.725
vt 0 0.7
vt 0.75 0.725
vt 1 0.7
vt 0.5 0.725
vt 0.25 0.7
vt 0 0.6750001
vt 0.75 0.7
vt 1 0.6750001
vt 0.5 0.7
vt 0.25 0.6750001
vt 0 0.65
vt 0.75 0.6750001
vt 1 0.65
vt 0.5 0.6750001
vt 0.25 0.65
vt 0 0.625
vt 0.75 0.65
vt 1 0.625
vt 0.5 0.65
vt 0.25 0.625
vt 0 0.6
vt 0.75 0.625
vt 1 0.6
vt 0.5 0.625
vt 0.25 0.6
vt 0 0.575
vt 0.75 0.6
vt 1 0.575
vt 0.5 0.6
vt 0.25 0.575
vt 0 0.55
vt 0.75 0.575
vt 1 0.55
vt 0.5 0.575
vt 0.25 0.55
vt 0 0.525
vt 0.75 0.55
vt 1 0.525
vt 0.5 0.55
vt 0.25 0.525
vt 0 0.5
vt 0.75 0.525
vt 1 0.5
vt 0.5 0.525
vt 0.25 0.5
vt 0 0.475
vt 0.75 0.5
vt 1 0.475
vt 0.5 0.5
vt 0.25 0.475
vt 0 0.45
vt 0.75 0.475
vt 1 0.45
vt 0.5 0.475
vt 0.25 0.45
vt 0 0.425
vt 0.75 0.45
vt 1 0.425
vt 0.5 0.45
vt 0.25 0.425
vt 0 0.4
vt 0.75 0.425
vt 1 0.4
vt 0.5 0.425
vt 0.25 0.4
vt 0 0.375
vt 0.75 0.4
vt 1 0.375
vt 0.5 0.4
vt 0.25 0.375
vt 0 0.35
vt 0.75 0.375
vt 1 0.35
vt 0.5 0.375
vt 0.25 0.35
vt 0 0.325
vt 0.75 0.35
vt 1 0.325
vt 0.5 0.35
vt 0.25 0.325
vt 0 0.3
vt 0.75 0.325
vt 1 0.3
vt 0.5 0.325
vt 0.25 0.3
vt 0 0.275
vt 0.75 0.3
vt 1 0.275
vt 0.5 0.3
vt 0.25 0.275
vt 0 0.25
vt 0.75 0.275
vt 1 0.25
vt 0.5 0.275
vt 0.25 0.25
vt 0 0.225
vt 0.75 0.25
vt 1 0.225
vt 0.5 0.25
vt 0.25 0.225
vt 0 0.2
vt 0.75 0.225
vt 1 0.2
vt 0.5 0.225
vt 0.25 0.2
vt 0 0.175
vt 0.75 0.2
vt 1 0.175
vt 0.5 0.2
vt 0.25 0.175
vt 0 0.15
vt 0.75 0.175
vt 1 0.15
vt 0.5 0.175
vt 0.25 0.15
vt 0 0.125
vt 0.75 0.15
vt 1 0.125
vt 0.5 0.15
vt 0.25 0.125
vt 0 0.1
vt 0.75 0.125
vt 1 0.1
vt 0.5 0.125
vt 0.25 0.09999999
vt 0 0.075
vt 0.75 0.09999999
vt 1 0.075
vt 0.5 0.09999999
vt 0.25 0.075
vt 0 0.05
vt 0.75 0.075
vt 1 0.05
vt 0.5 0.075
vt 0.25 0.05
vt 0 0.025
vt 0.75 0.05
vt 1 0.025
vt 0.5 0.04999999
vt 0.25 0.025
vt 0 0
vt 0.25 0
vt 0.75 0.025
vt 1 0
vt 0.75 0
vt 0.5 0.025
vt 0.5 0
vn 0 0 1
vn 0 0 1
vn 0 0 1
vn 0 0 1
vn 0 0 1
vn 0 0 1
vn 0 0 1
vn 0 0 1
vn 0 0 1
vn 0 0 1
vn 0 0 1
vn 0 0 1
vn 0 0 1
vn 0 0 1
vn 0 0 1
vn 0 0 1
vn 0 0 1
vn 0 0 1
vn 0 0 1
vn 0 0 1
vn 0 0 1
vn 0 0 1
vn 0 0 1
vn 0 0 1
vn 0 0 1
vn 0 0 1
vn 0 0 1
vn 0 0 1
vn 0 0 1
vn 0 0 1
vn 0 0 1
vn 0 0 1
vn 0 0 1
vn 0 0 1
vn 0 0 1
vn 0 0 1
vn 0 0 1
vn 0 0 1
vn 0 0 1
vn 0 0 1
vn 0 0 1
vn 0 0 1
vn 0 0 1
vn 0 0 1
vn 0 0 1
vn 0 0 1
vn 0 0 1
vn 0 0 1
vn 0 0 1
vn 0 0 1
vn 0 0 1
vn 0 0 1
vn 0 0 1
vn 0 0 1
vn 0 0 1
vn 0 0 1
vn 0 0 1
vn 0 0 1
vn 0 0 1
vn 0 0 1
vn 0 0 1
vn 0 0 1
vn 0 0 1
vn 0 0 1
vn 0 0 1
vn 0 0 1
vn 0 0 1
vn 0 0 1
vn 0 0 1
vn 0 0 1
vn 0 0 1
vn 0 0 1
vn 0 0 1
vn 0 0 1
vn 0 0 1
vn 0 0 1
vn 0 0 1
vn 0 0 1
vn 0 0 1
vn 0 0 1
vn 0 0 1
vn 0 0 1
vn 0 0 1
vn 0 0 1
vn 0 0 1
vn 0 0 1
vn 0 0 1
vn 0 0 1
vn 0 0 1
vn 0 0 1
vn 0 0 1
vn 0 0 1
vn 0 0 1
vn 0 0 1
vn 0 0 1
vn 0 0 1
vn 0 0 1
vn 0 0 1
vn 0 0 1
vn 0 0 1
vn 0 0 1
vn 0 0 1
vn 0 0 1
vn 0 0 1
vn 0 0 1
vn 0 0 1
vn 0 0 1
vn 0 0 1
vn 0 0 1
vn 0 0 1
vn 0 0 1
vn 0 0 1
vn 0 0 1
vn 0 0 1
vn 0 0 1
vn 0 0 1
vn 0 0 1
vn 0 0 1
vn 0 0 1
vn 0 0 1
vn 0 0 1
vn 0 0 1
vn 0 0 1
vn 0 0 1
vn 0 0 1
vn 0 0 1
vn 0 0 1
vn 0 0 1
vn 0 0 1
vn 0 0 1
vn 0 0 1
vn 0 0 1
vn 0 0 1
vn 0 0 1
vn 0 0 1
vn 0 0 1
vn 0 0 1
vn 0 0 1
vn 0 0 1
vn 0 0 1
vn 0 0 1
vn 0 0 1
vn 0 0 1
vn 0 0 1
vn 0 0 1
vn 0 0 1
vn 0 0 1
vn 0 0 1
vn 0 0 1
vn 0 0 1
vn 0 0 1
vn 0 0 1
vn 0 0 1
vn 0 0 1
vn 0 0 1
vn 0 0 1
vn 0 0 1
vn 0 0 1
vn 0 0 1
vn 0 0 1
vn 0 0 1
vn 0 0 1
vn 0 0 1
vn 0 0 1
vn 0 0 1
vn 0 0 1
vn 0 0 1
vn 0 0 1
vn 0 0 1
vn 0 0 1
vn 0 0 1
vn 0 0 1
vn 0 0 1
vn 0 0 1
vn 0 0 1
vn 0 0 1
vn 0 0 1
vn 0 0 1
vn 0 0 1
vn 0 0 1
vn 0 0 1
vn 0 0 1
vn 0 0 1
vn 0 0 1
vn 0 0 1
vn 0 0 1
vn 0 0 1
vn 0 0 1
vn 0 0 1
vn 0 0 1
vn 0 0 1
vn 0 0 1
vn 0 0 1
vn 0 0 1
vn 0 0 1
vn 0 0 1
vn 0 0 1
vn 0 0 1
vn 0 0 1
vn 0 0 1
vn 0 0 1
vn 0 0 1
vn 0 0 1
vn 0 0 1
vn 0 0 1
g Beam3_0
f 3/3/3 2/2/2 1/1/1
f 2/2/2 4/4/4 1/1/1
f 1/1/1 4/4/4 5/5/5
f 4/4/4 2/2/2 6/6/6
f 4/4/4 7/7/7 5/5/5
f 5/5/5 7/7/7 8/8/8
f 9/9/9 4/4/4 6/6/6
f 7/7/7 4/4/4 9/9/9
f 7/7/7 10/10/10 8/8/8
f 8/8/8 10/10/10 11/11/11
f 12/12/12 9/9/9 6/6/6
f 13/13/13 12/12/12 6/6/6
f 14/14/14 7/7/7 9/9/9
f 10/10/10 7/7/7 14/14/14
f 10/10/10 15/15/15 11/11/11
f 11/11/11 15/15/15 16/16/16
f 17/17/17 12/12/12 13/13/13
f 18/18/18 17/17/17 13/13/13
f 17/17/17 19/19/19 12/12/12
f 12/12/12 20/20/20 9/9/9
f 19/19/19 20/20/20 12/12/12
f 20/20/20 14/14/14 9/9/9
f 19/19/19 21/21/21 20/20/20
f 21/21/21 22/22/22 20/20/20
f 20/20/20 22/22/22 14/14/14
f 21/21/21 23/23/23 22/22/22
f 24/24/24 10/10/10 14/14/14
f 22/22/22 24/24/24 14/14/14
f 15/15/15 10/10/10 24/24/24
f 23/23/23 25/25/25 22/22/22
f 22/22/22 25/25/25 24/24/24
f 23/23/23 26/26/26 25/25/25
f 27/27/27 15/15/15 24/24/24
f 25/25/25 27/27/27 24/24/24
f 26/26/26 28/28/28 25/25/25
f 25/25/25 28/28/28 27/27/27
f 26/26/26 29/29/29 28/28/28
f 30/30/30 15/15/15 27/27/27
f 15/15/15 30/30/30 16/16/16
f 16/16/16 30/30/30 31/31/31
f 28/28/28 32/32/32 27/27/27
f 32/32/32 30/30/30 27/27/27
f 29/29/29 33/33/33 28/28/28
f 28/28/28 33/33/33 32/32/32
f 29/29/29 34/34/34 33/33/33
f 30/30/30 35/35/35 31/31/31
f 35/35/35 30/30/30 32/32/32
f 31/31/31 35/35/35 36/36/36
f 33/33/33 37/37/37 32/32/32
f 37/37/37 35/35/35 32/32/32
f 34/34/34 38/38/38 33/33/33
f 33/33/33 38/38/38 37/37/37
f 34/34/34 39/39/39 38/38/38
f 35/35/35 40/40/40 36/36/36
f 40/40/40 35/35/35 37/37/37
f 36/36/36 40/40/40 41/41/41
f 38/38/38 42/42/42 37/37/37
f 42/42/42 40/40/40 37/37/37
f 39/39/39 43/43/43 38/38/38
f 38/38/38 43/43/43 42/42/42
f 39/39/39 44/44/44 43/43/43
f 40/40/40 45/45/45 41/41/41
f 45/45/45 40/40/40 42/42/42
f 41/41/41 45/45/45 46/46/46
f 43/43/43 47/47/47 42/42/42
f 47/47/47 45/45/45 42/42/42
f 44/44/44 48/48/48 43/43/43
f 43/43/43 48/48/48 47/47/47
f 44/44/44 49/49/49 48/48/48
f 45/45/45 50/50/50 46/46/46
f 50/50/50 45/45/45 47/47/47
f 46/46/46 50/50/50 51/51/51
f 48/48/48 52/52/52 47/47/47
f 52/52/52 50/50/50 47/47/47
f 49/49/49 53/53/53 48/48/48
f 48/48/48 53/53/53 52/52/52
f 49/49/49 54/54/54 53/53/53
f 50/50/50 55/55/55 51/51/51
f 55/55/55 50/50/50 52/52/52
f 51/51/51 55/55/55 56/56/56
f 53/53/53 57/57/57 52/52/52
f 57/57/57 55/55/55 52/52/52
f 54/54/54 58/58/58 53/53/53
f 53/53/53 58/58/58 57/57/57
f 54/54/54 59/59/59 58/58/58
f 55/55/55 60/60/60 56/56/56
f 60/60/60 55/55/55 57/57/57
f 56/56/56 60/60/60 61/61/61
f 58/58/58 62/62/62 57/57/57
f 62/62/62 60/60/60 57/57/57
f 59/59/59 63/63/63 58/58/58
f 58/58/58 63/63/63 62/62/62
f 59/59/59 64/64/64 63/63/63
f 60/60/60 65/65/65 61/61/61
f 65/65/65 60/60/60 62/62/62
f 61/61/61 65/65/65 66/66/66
f 63/63/63 67/67/67 62/62/62
f 67/67/67 65/65/65 62/62/62
f 64/64/64 68/68/68 63/63/63
f 63/63/63 68/68/68 67/67/67
f 64/64/64 69/69/69 68/68/68
f 65/65/65 70/70/70 66/66/66
f 70/70/70 65/65/65 67/67/67
f 66/66/66 70/70/70 71/71/71
f 68/68/68 72/72/72 67/67/67
f 72/72/72 70/70/70 67/67/67
f 69/69/69 73/73/73 68/68/68
f 68/68/68 73/73/73 72/72/72
f 69/69/69 74/74/74 73/73/73
f 70/70/70 75/75/75 71/71/71
f 75/75/75 70/70/70 72/72/72
f 71/71/71 75/75/75 76/76/76
f 73/73/73 77/77/77 72/72/72
f 77/77/77 75/75/75 72/72/72
f 74/74/74 78/78/78 73/73/73
f 73/73/73 78/78/78 77/77/77
f 74/74/74 79/79/79 78/78/78
f 75/75/75 80/80/80 76/76/76
f 80/80/80 75/75/75 77/77/77
f 76/76/76 80/80/80 81/81/81
f 78/78/78 82/82/82 77/77/77
f 82/82/82 80/80/80 77/77/77
f 79/79/79 83/83/83 78/78/78
f 78/78/78 83/83/83 82/82/82
f 79/79/79 84/84/84 83/83/83
f 80/80/80 85/85/85 81/81/81
f 85/85/85 80/80/80 82/82/82
f 81/81/81 85/85/85 86/86/86
f 83/83/83 87/87/87 82/82/82
f 87/87/87 85/85/85 82/82/82
f 84/84/84 88/88/88 83/83/83
f 83/83/83 88/88/88 87/87/87
f 84/84/84 89/89/89 88/88/88
f 85/85/85 90/90/90 86/86/86
f 90/90/90 85/85/85 87/87/87
f 86/86/86 90/90/90 91/91/91
f 88/88/88 92/92/92 87/87/87
f 92/92/92 90/90/90 87/87/87
f 89/89/89 93/93/93 88/88/88
f 88/88/88 93/93/93 92/92/92
f 89/89/89 94/94/94 93/93/93
f 90/90/90 95/95/95 91/91/91
f 95/95/95 90/90/90 92/92/92
f 91/91/91 95/95/95 96/96/96
f 93/93/93 97/97/97 92/92/92
f 97/97/97 95/95/95 92/92/92
f 94/94/94 98/98/98 93/93/93
f 93/93/93 98/98/98 97/97/97
f 94/94/94 99/99/99 98/98/98
f 95/95/95 100/100/100 96/96/96
f 100/100/100 95/95/95 97/97/97
f 96/96/96 100/100/100 101/101/101
f 98/98/98 102/102/102 97/97/97
f 102/102/102 100/100/100 97/97/97
f 99/99/99 103/103/103 98/98/98
f 98/98/98 103/103/103 102/102/102
f 99/99/99 104/104/104 103/103/103
f 100/100/100 105/105/105 101/101/101
f 105/105/105 100/100/100 102/102/102
f 101/101/101 105/105/105 106/106/106
f 103/103/103 107/107/107 102/102/102
f 107/107/107 105/105/105 102/102/102
f 104/104/104 108/108/108 103/103/103
f 103/103/103 108/108/108 107/107/107
f 104/104/104 109/109/109 108/108/108
f 105/105/105 110/110/110 106/106/106
f 110/110/110 105/105/105 107/107/107
f 106/106/106 110/110/110 111/111/111
f 108/108/108 112/112/112 107/107/107
f 112/112/112 110/110/110 107/107/107
f 109/109/109 113/113/113 108/108/108
f 108/108/108 113/113/113 112/112/112
f 109/109/109 114/114/114 113/113/113
f 110/110/110 115/115/115 111/111/111
f 115/115/115 110/110/110 112/112/112
f 111/111/111 115/115/115 116/116/116
f 113/113/113 117/117/117 112/112/112
f 117/117/117 115/115/115 112/112/112
f 114/114/114 118/118/118 113/113/113
f 113/113/113 118/118/118 117/117/117
f 114/114/114 119/119/119 118/118/118
f 115/115/115 120/120/120 116/116/116
f 120/120/120 115/115/115 117/117/117
f 116/116/116 120/120/120 121/121/121
f 118/118/118 122/122/122 117/117/117
f 122/122/122 120/120/120 117/117/117
f 119/119/119 123/123/123 118/118/118
f 118/118/118 123/123/123 122/122/122
f 119/119/119 124/124/124 123/123/123
f 120/120/120 125/125/125 121/121/121
f 125/125/125 120/120/120 122/122/122
f 121/121/121 125/125/125 126/126/126
f 123/123/123 127/127/127 122/122/122
f 127/127/127 125/125/125 122/122/122
f 124/124/124 128/128/128 123/123/123
f 123/123/123 128/128/128 127/127/127
f 124/124/124 129/129/129 128/128/128
f 125/125/125 130/130/130 126/126/126
f 130/130/130 125/125/125 127/127/127
f 126/126/126 130/130/130 131/131/131
f 128/128/128 132/132/132 127/127/127
f 132/132/132 130/130/130 127/127/127
f 129/129/129 133/133/133 128/128/128
f 128/128/128 133/133/133 132/132/132
f 129/129/129 134/134/134 133/133/133
f 130/130/130 135/135/135 131/131/131
f 135/135/135 130/130/130 132/132/132
f 131/131/131 135/135/135 136/136/136
f 133/133/133 137/137/137 132/132/132
f 137/137/137 135/135/135 132/132/132
f 134/134/134 138/138/138 133/133/133
f 133/133/133 138/138/138 137/137/137
f 134/134/134 139/139/139 138/138/138
f 135/135/135 140/140/140 136/136/136
f 140/140/140 135/135/135 137/137/137
f 136/136/136 140/140/140 141/141/141
f 138/138/138 142/142/142 137/137/137
f 142/142/142 140/140/140 137/137/137
f 139/139/139 143/143/143 138/138/138
f 138/138/138 143/143/143 142/142/142
f 139/139/139 144/144/144 143/143/143
f 140/140/140 145/145/145 141/141/141
f 145/145/145 140/140/140 142/142/142
f 141/141/141 145/145/145 146/146/146
f 143/143/143 147/147/147 142/142/142
f 147/147/147 145/145/145 142/142/142
f 144/144/144 148/148/148 143/143/143
f 143/143/143 148/148/148 147/147/147
f 144/144/144 149/149/149 148/148/148
f 145/145/145 150/150/150 146/146/146
f 150/150/150 145/145/145 147/147/147
f 146/146/146 150/150/150 151/151/151
f 148/148/148 152/152/152 147/147/147
f 152/152/152 150/150/150 147/147/147
f 149/149/149 153/153/153 148/148/148
f 148/148/148 153/153/153 152/152/152
f 149/149/149 154/154/154 153/153/153
f 150/150/150 155/155/155 151/151/151
f 155/155/155 150/150/150 152/152/152
f 151/151/151 155/155/155 156/156/156
f 153/153/153 157/157/157 152/152/152
f 157/157/157 155/155/155 152/152/152
f 154/154/154 158/158/158 153/153/153
f 153/153/153 158/158/158 157/157/157
f 154/154/154 159/159/159 158/158/158
f 155/155/155 160/160/160 156/156/156
f 160/160/160 155/155/155 157/157/157
f 156/156/156 160/160/160 161/161/161
f 158/158/158 162/162/162 157/157/157
f 162/162/162 160/160/160 157/157/157
f 159/159/159 163/163/163 158/158/158
f 158/158/158 163/163/163 162/162/162
f 159/159/159 164/164/164 163/163/163
f 160/160/160 165/165/165 161/161/161
f 165/165/165 160/160/160 162/162/162
f 161/161/161 165/165/165 166/166/166
f 163/163/163 167/167/167 162/162/162
f 167/167/167 165/165/165 162/162/162
f 164/164/164 168/168/168 163/163/163
f 163/163/163 168/168/168 167/167/167
f 164/164/164 169/169/169 168/168/168
f 165/165/165 170/170/170 166/166/166
f 170/170/170 165/165/165 167/167/167
f 166/166/166 170/170/170 171/171/171
f 168/168/168 172/172/172 167/167/167
f 172/172/172 170/170/170 167/167/167
f 169/169/169 173/173/173 168/168/168
f 168/168/168 173/173/173 172/172/172
f 169/169/169 174/174/174 173/173/173
f 170/170/170 175/175/175 171/171/171
f 175/175/175 170/170/170 172/172/172
f 171/171/171 175/175/175 176/176/176
f 173/173/173 177/177/177 172/172/172
f 177/177/177 175/175/175 172/172/172
f 174/174/174 178/178/178 173/173/173
f 173/173/173 178/178/178 177/177/177
f 174/174/174 179/179/179 178/178/178
f 175/175/175 180/180/180 176/176/176
f 180/180/180 175/175/175 177/177/177
f 176/176/176 180/180/180 181/181/181
f 178/178/178 182/182/182 177/177/177
f 182/182/182 180/180/180 177/177/177
f 179/179/179 183/183/183 178/178/178
f 178/178/178 183/183/183 182/182/182
f 179/179/179 184/184/184 183/183/183
f 180/180/180 185/185/185 181/181/181
f 185/185/185 180/180/180 182/182/182
f 181/181/181 185/185/185 186/186/186
f 183/183/183 187/187/187 182/182/182
f 187/187/187 185/185/185 182/182/182
f 184/184/184 188/188/188 183/183/183
f 183/183/183 188/188/188 187/187/187
f 184/184/184 189/189/189 188/188/188
f 185/185/185 190/190/190 186/186/186
f 190/190/190 185/185/185 187/187/187
f 186/186/186 190/190/190 191/191/191
f 188/188/188 192/192/192 187/187/187
f 192/192/192 190/190/190 187/187/187
f 189/189/189 193/193/193 188/188/188
f 188/188/188 193/193/193 192/192/192
f 189/189/189 194/194/194 193/193/193
f 190/190/190 195/195/195 191/191/191
f 195/195/195 190/190/190 192/192/192
f 191/191/191 195/195/195 196/196/196
f 193/193/193 197/197/197 192/192/192
f 197/197/197 195/195/195 192/192/192
f 194/194/194 198/198/198 193/193/193
f 193/193/193 198/198/198 197/197/197
f 194/194/194 199/199/199 198/198/198
f 199/199/199 200/200/200 198/198/198
f 195/195/195 201/201/201 196/196/196
f 201/201/201 195/195/195 197/197/197
f 196/196/196 201/201/201 202/202/202
f 201/201/201 203/203/203 202/202/202
f 198/198/198 200/200/200 204/204/204
f 198/198/198 204/204/204 197/197/197
f 204/204/204 201/201/201 197/197/197
f 203/203/203 201/201/201 204/204/204
f 200/200/200 205/205/205 204/204/204
f 205/205/205 203/203/203 204/204/204
