g boardHighlight
v -4.438425 0.2276764 2.000002
v -4.438507 0.004241943 2
v -5.039093 0.1736145 2.000002
v -5.039093 0.1736145 2.000002
v -4.438507 0.004241943 2
v -4.506023 -0.1695557 1.999999
v -5.039093 0.1736145 2.000002
v -4.506023 -0.1695557 1.999999
v -4.649055 -0.3259811 1.999998
v -5.039093 0.1736145 2.000002
v -4.649055 -0.3259811 1.999998
v -4.816132 -0.4087448 1.999997
v -5.039093 0.1736145 2.000002
v -4.816132 -0.4087448 1.999997
v -5.040058 -0.4289017 1.999997
v -5.821598 0.1652603 2.000002
v -5.771648 -0.4363022 1.999998
v -6.657661 -0.4506989 1.999998
v -6.715281 0.150856 2.000002
v -7.608967 0.1383438 2.000002
v -6.715281 0.150856 2.000002
v -7.54368 -0.4632187 1.999998
v -6.657661 -0.4506989 1.999998
v -8.502653 0.1275864 2.000002
v -7.608967 0.1383438 2.000002
v -8.429699 -0.4740219 1.999997
v -7.54368 -0.4632187 1.999998
v -11.16209 -0.05703735 2.000002
v -11.06632 -0.6574478 1.999997
v -11.94162 -0.7427826 1.999997
v -12.04497 -0.1429901 2.000002
v -9.320793 -0.5090103 1.999997
v -9.401419 0.09265137 2.000002
v -8.502653 0.1275864 2.000002
v -8.429699 -0.4740219 1.999997
v -12.81692 -0.8271332 1.999998
v -12.92784 -0.227951 2.000002
v -12.04497 -0.1429901 2.000002
v -11.94162 -0.7427826 1.999997
v -10.27921 0.03005981 2.000002
v -10.19102 -0.5709686 1.999997
v -11.06632 -0.6574478 1.999997
v -11.16209 -0.05703735 2.000002
v -9.401419 0.09265137 2.000002
v -9.320793 -0.5090103 1.999997
v -10.19102 -0.5709686 1.999997
v -10.27921 0.03005981 2.000002
v -13.69222 -0.9106216 1.999998
v -13.81072 -0.3120651 2.000002
v -12.92784 -0.227951 2.000002
v -12.81692 -0.8271332 1.999998
v -14.56752 -0.9933929 1.999998
v -14.6936 -0.395462 2.000002
v -13.81072 -0.3120651 2.000002
v -13.69222 -0.9106216 1.999998
v -18.01545 -1.558243 1.999998
v -18.17136 -0.9650116 2.000002
v -17.30639 -0.8029556 2.000002
v -17.15791 -1.397568 1.999998
v -15.42683 -1.104149 1.999998
v -15.56048 -0.5068588 2.000001
v -14.6936 -0.395462 2.000002
v -14.56752 -0.9933929 1.999998
v -18.87299 -1.71888 1.999998
v -19.03632 -1.127052 2.000002
v -18.17136 -0.9650116 2.000002
v -18.01545 -1.558243 1.999998
v -17.15791 -1.397568 1.999998
v -17.30639 -0.8029556 2.000002
v -16.44144 -0.6407623 2.000002
v -16.30037 -1.236717 1.999998
v -16.30037 -1.236717 1.999998
v -16.44144 -0.6407623 2.000002
v -15.56048 -0.5068588 2.000001
v -15.42683 -1.104149 1.999998
v -19.73053 -1.879616 1.999998
v -19.90128 -1.289215 2.000002
v -19.03632 -1.127052 2.000002
v -18.87299 -1.71888 1.999998
v -20.58806 -2.040581 1.999998
v -20.76624 -1.45163 2.000002
v -19.90128 -1.289215 2.000002
v -19.73053 -1.879616 1.999998
v -23.94422 -2.923317 1.999998
v -24.15144 -2.342567 2.000002
v -23.31136 -2.099159 2.000002
v -23.11135 -2.68219 1.999998
v -21.45213 -2.234238 1.999998
v -21.63772 -1.646782 2.000002
v -20.76624 -1.45163 2.000002
v -20.58806 -2.040581 1.999998
v -24.7771 -3.16526 1.999998
v -24.99152 -2.58683 2.000002
v -24.15144 -2.342567 2.000002
v -23.94422 -2.923317 1.999998
v -23.11135 -2.68219 1.999998
v -23.31136 -2.099159 2.000002
v -22.47128 -1.856491 2.000002
v -22.27847 -2.441757 1.999998
v -22.27847 -2.441757 1.999998
v -22.47128 -1.856491 2.000002
v -21.63772 -1.646782 2.000002
v -21.45213 -2.234238 1.999998
v -25.60996 -3.408142 1.999998
v -25.8316 -2.832077 2.000002
v -24.99152 -2.58683 2.000002
v -24.7771 -3.16526 1.999998
v -26.44284 -3.652061 1.999998
v -26.67168 -3.078423 2.000002
v -25.8316 -2.832077 2.000002
v -25.60996 -3.408142 1.999998
v -29.68021 -4.867935 1.999998
v -29.93707 -4.30645 2.000002
v -29.12864 -3.978195 2.000002
v -28.87871 -4.542976 1.999997
v -27.2676 -3.929703 1.999998
v -27.50365 -3.358528 2.000002
v -26.67168 -3.078423 2.000002
v -26.44284 -3.652061 1.999998
v -30.48171 -5.194412 1.999998
v -30.7455 -4.636261 2.000002
v -29.93707 -4.30645 2.000002
v -29.68021 -4.867935 1.999998
v -28.87871 -4.542976 1.999997
v -29.12864 -3.978195 2.000002
v -28.3202 -3.651421 2.000002
v -28.07721 -4.219414 1.999998
v -28.07721 -4.219414 1.999998
v -28.3202 -3.651421 2.000002
v -27.50365 -3.358528 2.000002
v -27.2676 -3.929703 1.999998
v -31.28321 -5.522507 1.999998
v -31.55394 -4.967766 2.000002
v -30.7455 -4.636261 2.000002
v -30.48171 -5.194412 1.999998
v -32.08471 -5.852322 1.999998
v -32.36238 -5.301056 2.000002
v -31.55394 -4.967766 2.000002
v -31.28321 -5.522507 1.999998
v -35.17723 -7.40852 1.999998
v -35.48167 -6.873627 2.000002
v -34.71138 -6.459187 2.000002
v -34.41355 -6.998425 1.999998
v -32.88126 -6.21051 1.999998
v -33.16587 -5.662781 2.000002
v -32.36238 -5.301056 2.000002
v -32.08471 -5.852322 1.999998
v -35.9409 -7.820644 1.999998
v -36.25195 -7.290176 2.000002
v -35.48167 -6.873627 2.000002
v -35.17723 -7.40852 1.999998
v -34.41355 -6.998425 1.999998
v -34.71138 -6.459187 2.000002
v -33.9411 -6.046757 2.000002
v -33.64988 -6.590275 1.999998
v -33.64988 -6.590275 1.999998
v -33.9411 -6.046757 2.000002
v -33.16587 -5.662781 2.000002
v -32.88126 -6.21051 1.999998
v -36.70458 -8.234898 1.999998
v -37.02223 -7.70892 2.000002
v -36.25195 -7.290176 2.000002
v -35.9409 -7.820644 1.999998
v -37.46825 -8.65136 1.999998
v -37.79251 -8.129955 2.000002
v -37.02223 -7.70892 2.000002
v -36.70458 -8.234898 1.999998
v -38.23193 -9.070133 1.999997
v -38.5628 -8.553383 2.000002
v -37.79251 -8.129955 2.000002
v -37.46825 -8.65136 1.999998
v -5.039053 4.937088 2
v -4.439681 4.945824 2
v -4.439681 3.977165 2
v -5.039053 3.959389 2
v 0 10.41981 2
v 0 9.820435 2
v -0.5324583 9.820435 2
v -0.5328703 10.41981 2
v -5.027489 8.860634 2
v -4.427732 8.860283 2
v -4.439681 7.85939 2
v -5.039053 7.862564 2
v -5.039053 7.862564 2
v -4.439681 7.85939 2
v -5.039053 6.888489 2
v -4.439681 6.887115 2
v -5.039053 6.888489 2
v -4.439681 6.887115 2
v -5.039053 5.914658 2
v -4.439681 5.914597 2
v -5.039053 5.914658 2
v -4.439681 5.914597 2
v -4.439681 4.945824 2
v -5.039053 4.937088 2
v -5.039053 1.026306 2
v -4.439681 1.071205 2
v -4.438425 0.2276764 2.000002
v -5.039093 0.1736145 2.000002
v -4.439681 2.039864 2
v -4.439681 1.071205 2
v -5.039053 2.003998 2
v -5.039053 1.026306 2
v -4.439681 3.008514 2
v -4.439681 2.039864 2
v -5.039053 2.981697 2
v -5.039053 2.003998 2
v -4.439681 3.977165 2
v -4.439681 3.008514 2
v -5.039053 3.959389 2
v -5.039053 2.981697 2
v -3.743973 10.41687 2
v -2.716475 10.41981 2
v -2.716003 9.820435 2
v -3.743502 9.816872 2
v -1.583138 10.41981 2
v -2.716003 9.820435 2
v -2.716475 10.41981 2
v -1.581072 9.820435 2
v -0.5328703 10.41981 2
v -1.581072 9.820435 2
v -1.583138 10.41981 2
v -0.5324583 9.820435 2
v -5.039093 0.1736145 2.000002
v -5.040058 -0.4289017 1.999997
v -5.771648 -0.4363022 1.999998
v -5.821598 0.1652603 2.000002
v -3.919537 9.805771 2
v -4.042909 10.39855 2
v -3.743973 10.41687 2
v -3.743502 9.816872 2
v -4.042909 10.39855 2
v -3.919537 9.805771 2
v -4.087496 9.748116 2
v -4.348042 10.30494 2
v -4.576268 10.15436 2
v -4.206893 9.667931 2
v -4.781511 9.942436 2
v -4.298849 9.561371 2
v -4.298849 9.561371 2
v -4.364565 9.423424 2
v -4.91337 9.691803 2
v -4.781511 9.942436 2
v -4.364565 9.423424 2
v -4.994568 9.38076 2
v -4.91337 9.691803 2
v -4.408648 9.264458 2
v -4.408648 9.264458 2
v -4.427732 8.860283 2
v -5.027489 8.860634 2
v -4.994568 9.38076 2
vt 1.412109 -0.009597778
vt 1.041016 -0.009597778
vt 0.4992676 1.011719
vt 0.4992676 1.011719
vt 1.041016 -0.009597778
vt 0.6591797 -0.009597778
vt 0.4992676 1.011719
vt 0.6591797 -0.009597778
vt 0.3366699 -0.009597778
vt 0.4992676 1.011719
vt 0.3366699 -0.009597778
vt -0.04571533 -0.009597778
vt 0.4992676 1.011719
vt -0.04571533 -0.009597778
vt -0.3823242 -0.009597778
vt 1.505859 1.011719
vt 1.505859 -0.009597778
vt -0.5615234 -0.009597778
vt -0.5615234 1.011719
vt -0.5615234 1.011719
vt 1.505859 1.011719
vt -0.5615234 -0.009597778
vt 1.505859 -0.009597778
vt -0.5615234 1.011719
vt 1.505859 1.011719
vt -0.5615234 -0.009597778
vt 1.505859 -0.009597778
vt 1.505859 1.011719
vt 1.505859 -0.009597778
vt -0.5615234 -0.009597778
vt -0.5615234 1.011719
vt -0.5615234 -0.009597778
vt -0.5615234 1.011719
vt 1.505859 1.011719
vt 1.505859 -0.009597778
vt -0.5615234 -0.009597778
vt -0.5615234 1.011719
vt 1.505859 1.011719
vt 1.505859 -0.009597778
vt 1.505859 1.011719
vt 1.505859 -0.009597778
vt -0.5615234 -0.009597778
vt -0.5615234 1.011719
vt 1.505859 1.011719
vt 1.505859 -0.009597778
vt -0.5615234 -0.009597778
vt -0.5615234 1.011719
vt -0.5615234 -0.009597778
vt -0.5615234 1.011719
vt 1.505859 1.011719
vt 1.505859 -0.009597778
vt -0.5615234 -0.009597778
vt -0.5615234 1.011719
vt 1.505859 1.011719
vt 1.505859 -0.009597778
vt -0.5615234 -0.009597778
vt -0.5615234 1.011719
vt 1.505859 1.011719
vt 1.505859 -0.009597778
vt -0.5615234 -0.009597778
vt -0.5615234 1.011719
vt 1.505859 1.011719
vt 1.505859 -0.009597778
vt -0.5615234 -0.009597778
vt -0.5615234 1.011719
vt 1.505859 1.011719
vt 1.505859 -0.009597778
vt -0.5615234 -0.009597778
vt -0.5615234 1.011719
vt 1.505859 1.011719
vt 1.505859 -0.009597778
vt -0.5615234 -0.009597778
vt -0.5615234 1.011719
vt 1.505859 1.011719
vt 1.505859 -0.009597778
vt -0.5615234 -0.009597778
vt -0.5615234 1.011719
vt 1.505859 1.011719
vt 1.505859 -0.009597778
vt -0.5615234 -0.009597778
vt -0.5615234 1.011719
vt 1.505859 1.011719
vt 1.505859 -0.009597778
vt -0.5615234 -0.009597778
vt -0.5615234 1.011719
vt 1.505859 1.011719
vt 1.505859 -0.009597778
vt -0.5615234 -0.009597778
vt -0.5615234 1.011719
vt 1.505859 1.011719
vt 1.505859 -0.009597778
vt -0.5615234 -0.009597778
vt -0.5615234 1.011719
vt 1.505859 1.011719
vt 1.505859 -0.009597778
vt -0.5615234 -0.009597778
vt -0.5615234 1.011719
vt 1.505859 1.011719
vt 1.505859 -0.009597778
vt -0.5615234 -0.009597778
vt -0.5615234 1.011719
vt 1.505859 1.011719
vt 1.505859 -0.009597778
vt -0.5615234 -0.009597778
vt -0.5615234 1.011719
vt 1.505859 1.011719
vt 1.505859 -0.009597778
vt -0.5615234 -0.009597778
vt -0.5615234 1.011719
vt 1.505859 1.011719
vt 1.505859 -0.009597778
vt -0.5615234 -0.009597778
vt -0.5615234 1.011719
vt 1.505859 1.011719
vt 1.505859 -0.009597778
vt -0.5615234 -0.009597778
vt -0.5615234 1.011719
vt 1.505859 1.011719
vt 1.505859 -0.009597778
vt -0.5615234 -0.009597778
vt -0.5615234 1.011719
vt 1.505859 1.011719
vt 1.505859 -0.009597778
vt -0.5615234 -0.009597778
vt -0.5615234 1.011719
vt 1.505859 1.011719
vt 1.505859 -0.009597778
vt -0.5615234 -0.009597778
vt -0.5615234 1.011719
vt 1.505859 1.011719
vt 1.505859 -0.009597778
vt -0.5615234 -0.009597778
vt -0.5615234 1.011719
vt 1.505859 1.011719
vt 1.505859 -0.009597778
vt -0.5615234 -0.009597778
vt -0.5615234 1.011719
vt 1.505859 1.011719
vt 1.505859 -0.009597778
vt -0.5615234 -0.009597778
vt -0.5615234 1.011719
vt 1.505859 1.011719
vt 1.505859 -0.009597778
vt -0.5615234 -0.009597778
vt -0.5615234 1.011719
vt 1.505859 1.011719
vt 1.505859 -0.009597778
vt -0.5615234 -0.009597778
vt -0.5615234 1.011719
vt 1.505859 1.011719
vt 1.505859 -0.009597778
vt -0.5615234 -0.009597778
vt -0.5615234 1.011719
vt 1.505859 1.011719
vt 1.505859 -0.009597778
vt -0.5615234 -0.009597778
vt -0.5615234 1.011719
vt 1.505859 1.011719
vt 1.505859 -0.009597778
vt -0.5615234 -0.009597778
vt -0.5615234 1.011719
vt 1.505859 1.011719
vt 1.505859 -0.009597778
vt -0.5615234 -0.009597778
vt -0.5615234 1.011719
vt 1.505859 1.011719
vt 1.505859 -0.009597778
vt -0.5615234 -0.009597778
vt -0.5615234 1.011719
vt 1.505859 1.011719
vt 1.505859 -0.009597778
vt 2.056641 1.011719
vt 2.056641 -0.009597778
vt -0.06451416 -0.009597778
vt -0.06451416 1.011719
vt 0.6342773 1.011719
vt 0.6342773 -0.009597778
vt -0.4204102 -0.009597778
vt -0.4204102 1.011719
vt 2.056641 1.011719
vt 2.056641 -0.009597778
vt -0.06451416 -0.009597778
vt -0.06451416 1.011719
vt 2.056641 1.011719
vt 2.056641 -0.009597778
vt -0.06451416 1.011719
vt -0.06451416 -0.009597778
vt 2.056641 1.011719
vt 2.056641 -0.009597778
vt -0.06451416 1.011719
vt -0.06451416 -0.009597778
vt 2.056641 1.011719
vt 2.056641 -0.009597778
vt -0.06451416 -0.009597778
vt -0.06451416 1.011719
vt 2.056641 1.011719
vt 2.056641 -0.009597778
vt -0.06451416 -0.009597778
vt -0.06451416 1.011719
vt 2.056641 -0.009597778
vt -0.06451416 -0.009597778
vt 2.056641 1.011719
vt -0.06451416 1.011719
vt 2.056641 -0.009597778
vt -0.06451416 -0.009597778
vt 2.056641 1.011719
vt -0.06451416 1.011719
vt 2.056641 -0.009597778
vt -0.06451416 -0.009597778
vt 2.056641 1.011719
vt -0.06451416 1.011719
vt -0.4204102 1.011719
vt 1.646484 1.011719
vt 1.646484 -0.009597778
vt -0.4204102 -0.009597778
vt 1.646484 1.011719
vt -0.4204102 -0.009597778
vt -0.4204102 1.011719
vt 1.646484 -0.009597778
vt 1.646484 1.011719
vt -0.4204102 -0.009597778
vt -0.4204102 1.011719
vt 1.646484 -0.009597778
vt 0.9960938 1.011719
vt 0.9960938 -0.009597778
vt -0.5615234 -0.009597778
vt -0.5615234 1.011719
vt 3.146484 -0.009605408
vt 3.146484 1.011719
vt 3.464844 1.011719
vt 3.466797 -0.009605408
vt 3.146484 1.011719
vt 3.146484 -0.009605408
vt 2.710938 -0.009605408
vt 2.710938 1.011719
vt 2.431641 1.011719
vt 2.431641 -0.009605408
vt 2.033203 1.011719
vt 2.033203 -0.009605408
vt 2.033203 -0.009597778
vt 1.568359 -0.009597778
vt 1.568359 1.011719
vt 2.033203 1.011719
vt 1.568359 -0.009597778
vt 0.980957 1.011719
vt 1.568359 1.011719
vt 0.9804688 -0.009597778
vt 1.02832 -0.009597778
vt 0.01776123 -0.009597778
vt 0.0184021 1.011719
vt 1.02832 1.011719
vn 0 0 1
vn 0 0 1
vn 0 0 1
vn 0 0 1
vn 0 0 1
vn 0 0 1
vn 0 0 1
vn 0 0 1
vn 0 0 1
vn 0 0 1
vn 0 0 1
vn 0 0 1
vn 0 0 1
vn 0 0 1
vn 0 0 1
vn 0 0 1
vn 0 0 1
vn 0 0 1
vn 0 0 1
vn 0 0 1
vn 0 0 1
vn 0 0 1
vn 0 0 1
vn 0 0 1
vn 0 0 1
vn 0 0 1
vn 0 0 1
vn 0 0 1
vn 0 0 1
vn 0 0 1
vn 0 0 1
vn 0 0 1
vn 0 0 1
vn 0 0 1
vn 0 0 1
vn 0 0 1
vn 0 0 1
vn 0 0 1
vn 0 0 1
vn 0 0 1
vn 0 0 1
vn 0 0 1
vn 0 0 1
vn 0 0 1
vn 0 0 1
vn 0 0 1
vn 0 0 1
vn 0 0 1
vn 0 0 1
vn 0 0 1
vn 0 0 1
vn 0 0 1
vn 0 0 1
vn 0 0 1
vn 0 0 1
vn 0 0 1
vn 0 0 1
vn 0 0 1
vn 0 0 1
vn 0 0 1
vn 0 0 1
vn 0 0 1
vn 0 0 1
vn 0 0 1
vn 0 0 1
vn 0 0 1
vn 0 0 1
vn 0 0 1
vn 0 0 1
vn 0 0 1
vn 0 0 1
vn 0 0 1
vn 0 0 1
vn 0 0 1
vn 0 0 1
vn 0 0 1
vn 0 0 1
vn 0 0 1
vn 0 0 1
vn 0 0 1
vn 0 0 1
vn 0 0 1
vn 0 0 1
vn 0 0 1
vn 0 0 1
vn 0 0 1
vn 0 0 1
vn 0 0 1
vn 0 0 1
vn 0 0 1
vn 0 0 1
vn 0 0 1
vn 0 0 1
vn 0 0 1
vn 0 0 1
vn 0 0 1
vn 0 0 1
vn 0 0 1
vn 0 0 1
vn 0 0 1
vn 0 0 1
vn 0 0 1
vn 0 0 1
vn 0 0 1
vn 0 0 1
vn 0 0 1
vn 0 0 1
vn 0 0 1
vn 0 0 1
vn 0 0 1
vn 0 0 1
vn 0 0 1
vn 0 0 1
vn 0 0 1
vn 0 0 1
vn 0 0 1
vn 0 0 1
vn 0 0 1
vn 0 0 1
vn 0 0 1
vn 0 0 1
vn 0 0 1
vn 0 0 1
vn 0 0 1
vn 0 0 1
vn 0 0 1
vn 0 0 1
vn 0 0 1
vn 0 0 1
vn 0 0 1
vn 0 0 1
vn 0 0 1
vn 0 0 1
vn 0 0 1
vn 0 0 1
vn 0 0 1
vn 0 0 1
vn 0 0 1
vn 0 0 1
vn 0 0 1
vn 0 0 1
vn 0 0 1
vn 0 0 1
vn 0 0 1
vn 0 0 1
vn 0 0 1
vn 0 0 1
vn 0 0 1
vn 0 0 1
vn 0 0 1
vn 0 0 1
vn 0 0 1
vn 0 0 1
vn 0 0 1
vn 0 0 1
vn 0 0 1
vn 0 0 1
vn 0 0 1
vn 0 0 1
vn 0 0 1
vn 0 0 1
vn 0 0 1
vn 0 0 1
vn 0 0 1
vn 0 0 1
vn 0 0 1
vn 0 0 1
vn 0 0 1
vn 0 0 1
vn 0 0 1
vn 0 0 1
vn 0 0 1
vn 0 0 1
vn 0 0 1
vn 0 0 1
vn 0 0 1
vn 0 0 1
vn 0 0 1
vn 0 0 1
vn 0 0 1
vn 0 0 1
vn 0 0 1
vn 0 0 1
vn 0 0 1
vn 0 0 1
vn 0 0 1
vn 0 0 1
vn 0 0 1
vn 0 0 1
vn 0 0 1
vn 0 0 1
vn 0 0 1
vn 0 0 1
vn 0 0 1
vn 0 0 1
vn 0 0 1
vn 0 0 1
vn 0 0 1
vn 0 0 1
vn 0 0 1
vn 0 0 1
vn 0 0 1
vn 0 0 1
vn 0 0 1
vn 0 0 1
vn 0 0 1
vn 0 0 1
vn 0 0 1
vn 0 0 1
vn 0 0 1
vn 0 0 1
vn 0 0 1
vn 0 0 1
vn 0 0 1
vn 0 0 1
vn 0 0 1
vn 0 0 1
vn 0 0 1
vn 0 0 1
vn 0 0 1
vn 0 0 1
vn 0 0 1
vn 0 0 1
vn 0 0 1
vn 0 0 1
vn 0 0 1
vn 0 0 1
vn 0 0 1
vn 0 0 1
vn 0 0 1
vn 0 0 1
vn 0 0 1
vn 0 0 1
vn 0 0 1
vn 0 0 1
vn 0 0 1
vn 0 0 1
vn 0 0 1
vn 0 0 1
vn 0 0 1
vn 0 0 1
vn 0 0 1
vn 0 0 1
vn 0 0 1
vn 0 0 1
vn 0 0 1
vn 0 0 1
vn 0 0 1
vn 0 0 1
vn 0 0 1
vn 0 0 1
g boardHighlight_0
f 3/3/3 2/2/2 1/1/1
f 6/6/6 5/5/5 4/4/4
f 9/9/9 8/8/8 7/7/7
f 12/12/12 11/11/11 10/10/10
f 15/15/15 14/14/14 13/13/13
f 18/18/18 17/17/17 16/16/16
f 16/16/16 19/19/19 18/18/18
f 22/22/22 21/21/21 20/20/20
f 22/22/22 23/23/23 21/21/21
f 26/26/26 25/25/25 24/24/24
f 26/26/26 27/27/27 25/25/25
f 30/30/30 29/29/29 28/28/28
f 28/28/28 31/31/31 30/30/30
f 34/34/34 33/33/33 32/32/32
f 32/32/32 35/35/35 34/34/34
f 38/38/38 37/37/37 36/36/36
f 36/36/36 39/39/39 38/38/38
f 42/42/42 41/41/41 40/40/40
f 40/40/40 43/43/43 42/42/42
f 46/46/46 45/45/45 44/44/44
f 44/44/44 47/47/47 46/46/46
f 50/50/50 49/49/49 48/48/48
f 48/48/48 51/51/51 50/50/50
f 54/54/54 53/53/53 52/52/52
f 52/52/52 55/55/55 54/54/54
f 58/58/58 57/57/57 56/56/56
f 56/56/56 59/59/59 58/58/58
f 62/62/62 61/61/61 60/60/60
f 60/60/60 63/63/63 62/62/62
f 66/66/66 65/65/65 64/64/64
f 64/64/64 67/67/67 66/66/66
f 70/70/70 69/69/69 68/68/68
f 68/68/68 71/71/71 70/70/70
f 74/74/74 73/73/73 72/72/72
f 72/72/72 75/75/75 74/74/74
f 78/78/78 77/77/77 76/76/76
f 76/76/76 79/79/79 78/78/78
f 82/82/82 81/81/81 80/80/80
f 80/80/80 83/83/83 82/82/82
f 86/86/86 85/85/85 84/84/84
f 84/84/84 87/87/87 86/86/86
f 90/90/90 89/89/89 88/88/88
f 88/88/88 91/91/91 90/90/90
f 94/94/94 93/93/93 92/92/92
f 92/92/92 95/95/95 94/94/94
f 98/98/98 97/97/97 96/96/96
f 96/96/96 99/99/99 98/98/98
f 102/102/102 101/101/101 100/100/100
f 100/100/100 103/103/103 102/102/102
f 106/106/106 105/105/105 104/104/104
f 104/104/104 107/107/107 106/106/106
f 110/110/110 109/109/109 108/108/108
f 108/108/108 111/111/111 110/110/110
f 114/114/114 113/113/113 112/112/112
f 112/112/112 115/115/115 114/114/114
f 118/118/118 117/117/117 116/116/116
f 116/116/116 119/119/119 118/118/118
f 122/122/122 121/121/121 120/120/120
f 120/120/120 123/123/123 122/122/122
f 126/126/126 125/125/125 124/124/124
f 124/124/124 127/127/127 126/126/126
f 130/130/130 129/129/129 128/128/128
f 128/128/128 131/131/131 130/130/130
f 134/134/134 133/133/133 132/132/132
f 132/132/132 135/135/135 134/134/134
f 138/138/138 137/137/137 136/136/136
f 136/136/136 139/139/139 138/138/138
f 142/142/142 141/141/141 140/140/140
f 140/140/140 143/143/143 142/142/142
f 146/146/146 145/145/145 144/144/144
f 144/144/144 147/147/147 146/146/146
f 150/150/150 149/149/149 148/148/148
f 148/148/148 151/151/151 150/150/150
f 154/154/154 153/153/153 152/152/152
f 152/152/152 155/155/155 154/154/154
f 158/158/158 157/157/157 156/156/156
f 156/156/156 159/159/159 158/158/158
f 162/162/162 161/161/161 160/160/160
f 160/160/160 163/163/163 162/162/162
f 166/166/166 165/165/165 164/164/164
f 164/164/164 167/167/167 166/166/166
f 170/170/170 169/169/169 168/168/168
f 168/168/168 171/171/171 170/170/170
f 174/174/174 173/173/173 172/172/172
f 172/172/172 175/175/175 174/174/174
f 178/178/178 177/177/177 176/176/176
f 176/176/176 179/179/179 178/178/178
f 182/182/182 181/181/181 180/180/180
f 180/180/180 183/183/183 182/182/182
f 186/186/186 185/185/185 184/184/184
f 186/186/186 187/187/187 185/185/185
f 190/190/190 189/189/189 188/188/188
f 190/190/190 191/191/191 189/189/189
f 194/194/194 193/193/193 192/192/192
f 192/192/192 195/195/195 194/194/194
f 198/198/198 197/197/197 196/196/196
f 196/196/196 199/199/199 198/198/198
f 202/202/202 201/201/201 200/200/200
f 203/203/203 201/201/201 202/202/202
f 206/206/206 205/205/205 204/204/204
f 207/207/207 205/205/205 206/206/206
f 210/210/210 209/209/209 208/208/208
f 211/211/211 209/209/209 210/210/210
f 214/214/214 213/213/213 212/212/212
f 212/212/212 215/215/215 214/214/214
f 218/218/218 217/217/217 216/216/216
f 217/217/217 219/219/219 216/216/216
f 222/222/222 221/221/221 220/220/220
f 221/221/221 223/223/223 220/220/220
f 226/226/226 225/225/225 224/224/224
f 224/224/224 227/227/227 226/226/226
f 230/230/230 229/229/229 228/228/228
f 228/228/228 231/231/231 230/230/230
f 234/234/234 233/233/233 232/232/232
f 232/232/232 235/235/235 234/234/234
f 234/234/234 235/235/235 236/236/236
f 237/237/237 234/234/234 236/236/236
f 237/237/237 236/236/236 238/238/238
f 238/238/238 239/239/239 237/237/237
f 242/242/242 241/241/241 240/240/240
f 240/240/240 243/243/243 242/242/242
f 246/246/246 245/245/245 244/244/244
f 245/245/245 247/247/247 244/244/244
f 250/250/250 249/249/249 248/248/248
f 248/248/248 251/251/251 250/250/250
