g boardHighlight_Landscape
v -5.821597 0.3804855 1.472014
v -5.771647 -0.2174454 1.47201
v -6.657664 -0.2485123 1.47201
v -6.715281 0.3487244 1.472014
v -7.543681 -0.2801132 1.47201
v -7.608967 0.3164368 1.472014
v -6.715281 0.3487244 1.472014
v -6.657664 -0.2485123 1.47201
v -8.429698 -0.3309937 1.47201
v -8.502651 0.2648621 1.472014
v -7.608967 0.3164368 1.472014
v -7.543681 -0.2801132 1.47201
v -11.10704 0.1173401 1.472014
v -11.06632 -0.4784698 1.47201
v -11.94162 -0.5318985 1.47201
v -11.98992 0.06255341 1.472014
v -9.320795 -0.3791733 1.47201
v -9.401416 0.2159958 1.472014
v -8.502651 0.2648621 1.472014
v -8.429698 -0.3309937 1.47201
v -11.98992 0.06255341 1.472014
v -11.94162 -0.5318985 1.47201
v -12.81692 -0.5862122 1.47201
v -12.85077 0.008323669 1.472014
v -10.25839 0.1696243 1.472014
v -10.19102 -0.4253006 1.47201
v -11.06632 -0.4784698 1.47201
v -11.10704 0.1173401 1.472014
v -9.401416 0.2159958 1.472014
v -9.320795 -0.3791733 1.47201
v -10.19102 -0.4253006 1.47201
v -10.25839 0.1696243 1.472014
v -13.69222 -0.6346817 1.47201
v -13.73365 -0.04201508 1.472014
v -12.85077 0.008323669 1.472014
v -12.81692 -0.5862122 1.47201
v -14.58314 -0.09416199 1.472014
v -13.73365 -0.04201508 1.472014
v -13.69222 -0.6346817 1.47201
v -14.56753 -0.6878967 1.47201
v -18.0609 -0.3790588 1.46974
v -17.19593 -0.3035278 1.468422
v -17.15791 -0.8940125 1.47201
v -18.01545 -0.9681396 1.47201
v -15.45002 -0.1601639 1.46679
v -14.58314 -0.09416199 1.472014
v -14.56753 -0.6878967 1.47201
v -15.42683 -0.7541733 1.476283
v -18.87299 -1.051468 1.47201
v -18.92586 -0.4632721 1.47121
v -18.01545 -0.9681396 1.47201
v -18.0609 -0.3790588 1.46974
v -17.19593 -0.3035278 1.468422
v -16.33097 -0.2326279 1.467224
v -16.30037 -0.8251648 1.477522
v -17.15791 -0.8940125 1.47201
v -16.33097 -0.2326279 1.467224
v -15.45002 -0.1601639 1.46679
v -15.42683 -0.7541733 1.476283
v -16.30037 -0.8251648 1.477522
v -19.79082 -0.5494614 1.472714
v -18.92586 -0.4632721 1.47121
v -18.87299 -1.051468 1.47201
v -19.73053 -1.135796 1.47201
v -20.58807 -1.214912 1.47201
v -20.65578 -0.6312332 1.474141
v -19.79082 -0.5494614 1.472714
v -19.73053 -1.135796 1.47201
v -24.25227 -0.9655533 1.472014
v -23.35817 -0.8800964 1.472014
v -23.31909 -1.478928 1.47201
v -24.20552 -1.563744 1.47201
v -21.45213 -1.297394 1.47201
v -21.52726 -0.7154541 1.475611
v -20.65578 -0.6312332 1.474141
v -20.58807 -1.214912 1.47201
v -25.09195 -1.658195 1.47201
v -25.14637 -1.060654 1.472014
v -24.20552 -1.563744 1.47201
v -24.25227 -0.9655533 1.472014
v -23.35817 -0.8800964 1.472014
v -22.46407 -0.7902451 1.472014
v -22.43266 -1.38974 1.47201
v -23.31909 -1.478928 1.47201
v -21.52726 -0.7154541 1.475611
v -21.45213 -1.297394 1.47201
v -22.43266 -1.38974 1.47201
v -22.46407 -0.7902451 1.472014
v -26.04047 -1.155334 1.472014
v -25.14637 -1.060654 1.472014
v -25.09195 -1.658195 1.47201
v -25.97838 -1.752228 1.47201
v -27.01042 -1.264793 1.472014
v -26.04047 -1.155334 1.472014
v -25.97838 -1.752228 1.47201
v -26.94065 -1.861031 1.47201
v -30.26325 -1.684578 1.472014
v -30.17064 -2.277504 1.47201
v -31.30248 -2.450134 1.47201
v -31.40266 -1.858551 1.472014
v -28.05189 -1.399788 1.472014
v -27.01042 -1.264793 1.472014
v -26.94065 -1.861031 1.47201
v -27.97445 -1.995384 1.47201
v -32.41302 -2.630852 1.47201
v -32.50858 -2.038506 1.472014
v -31.40266 -1.858551 1.472014
v -31.30248 -2.450134 1.47201
v -29.1189 -1.537651 1.472014
v -29.03388 -2.131905 1.47201
v -30.17064 -2.277504 1.47201
v -30.26325 -1.684578 1.472014
v -28.05189 -1.399788 1.472014
v -27.97445 -1.995384 1.47201
v -29.03388 -2.131905 1.47201
v -29.1189 -1.537651 1.472014
v -33.49583 -2.791191 1.47201
v -33.59005 -2.198524 1.472014
v -32.50858 -2.038506 1.472014
v -32.41302 -2.630852 1.47201
v -34.60885 -2.958824 1.422076
v -34.71852 -2.377144 1.521948
v -33.59005 -2.198524 1.472014
v -33.49583 -2.791191 1.47201
v -35.7686 -2.531883 1.488701
v -34.71852 -2.377144 1.521948
v -34.60885 -2.958824 1.422076
v -35.82939 -3.12645 1.455703
v -36.16383 -2.456993 1.472014
v -36.27966 -2.94043 1.47201
v -36.67023 -2.522949 1.47201
v -36.55154 -2.227631 1.472014
v 9.536743E-07 10.14976 1.472012
v 9.536743E-07 9.550385 1.472012
v -0.5324583 9.550385 1.472012
v -0.5328693 10.14976 1.472012
v -5.036681 8.590584 1.472012
v -4.427732 8.590233 1.472012
v -4.439681 7.862259 1.472012
v -5.037904 7.865433 1.472012
v -5.037904 6.891357 1.472012
v -4.439681 6.889984 1.472012
v -5.037904 5.917526 1.472012
v -4.439681 5.917465 1.472012
v -5.037904 4.950874 1.472012
v -4.439681 4.948692 1.472012
v -5.037904 3.982986 1.472012
v -4.439681 3.980034 1.472012
v -5.037904 3.014893 1.472012
v -4.439681 3.011383 1.472012
v -4.439681 2.042732 1.472012
v -5.037904 2.037193 1.472012
v -4.439681 1.074074 1.472012
v -5.037904 1.077026 1.472012
v -5.040006 0.4512787 1.472014
v -4.438425 0.4438782 1.472014
v -2.716474 10.14976 1.472012
v -3.898438 9.555527 1.472012
v -3.921411 10.15205 1.472012
v -2.716002 9.550385 1.472012
v -1.583138 10.14976 1.472012
v -2.716002 9.550385 1.472012
v -2.716474 10.14976 1.472012
v -1.581071 9.550385 1.472012
v -0.5328693 10.14976 1.472012
v -1.581071 9.550385 1.472012
v -1.583138 10.14976 1.472012
v -0.5324583 9.550385 1.472012
v -4.438425 0.4438782 1.472014
v -5.042228 0.4273376 1.472014
v -5.040006 0.4512787 1.472014
v -4.438507 0.2204437 1.472012
v -5.106141 0.3790436 1.472013
v -5.040058 -0.2126999 1.47201
v -5.771647 -0.2174454 1.47201
v -5.821597 0.3804855 1.472014
v -4.438507 0.2204437 1.472012
v -4.468136 0.02733612 1.472011
v -5.050065 0.4098053 1.472014
v -5.042228 0.4273376 1.472014
v -4.468136 0.02733612 1.472011
v -4.61094 -0.1430817 1.47201
v -5.064511 0.3936539 1.472013
v -5.050065 0.4098053 1.472014
v -4.816132 -0.2041168 1.47201
v -5.082734 0.3832703 1.472013
v -5.064511 0.3936539 1.472013
v -4.61094 -0.1430817 1.47201
v -5.082734 0.3832703 1.472013
v -4.816132 -0.2041168 1.47201
v -5.040058 -0.2126999 1.47201
v -5.106141 0.3790436 1.472013
v -3.921411 10.15205 1.472012
v -3.898438 9.555527 1.472012
v -4.036214 9.546837 1.472012
v -4.183713 10.13597 1.472012
v -4.167668 9.501717 1.472012
v -4.451453 10.05383 1.472012
v -4.651711 9.921707 1.472012
v -4.261115 9.438957 1.472012
v -4.831801 9.735756 1.472012
v -4.333085 9.355553 1.472012
v -4.947502 9.515831 1.472012
v -4.831801 9.735756 1.472012
v -4.333085 9.355553 1.472012
v -4.384519 9.247597 1.472012
v -5.01875 9.242912 1.472012
v -4.419021 9.123177 1.472012
v -5.036681 8.590584 1.472012
v -4.427732 8.590233 1.472012
v -35.7686 -2.531883 1.488701
v -35.82939 -3.12645 1.455703
v -36.27966 -2.94043 1.47201
v -36.16383 -2.456993 1.472014
vt 1.505859 1.011719
vt 1.505859 -0.009597778
vt -0.5615234 -0.009597778
vt -0.5615234 1.011719
vt -0.5615234 -0.009597778
vt -0.5615234 1.011719
vt 1.505859 1.011719
vt 1.505859 -0.009597778
vt -0.5615234 -0.009597778
vt -0.5615234 1.011719
vt 1.505859 1.011719
vt 1.505859 -0.009597778
vt 1.505859 1.011719
vt 1.505859 -0.009597778
vt -0.5615234 -0.009597778
vt -0.5615234 1.011719
vt -0.5615234 -0.009597778
vt -0.5615234 1.011719
vt 1.505859 1.011719
vt 1.505859 -0.009597778
vt 1.505859 1.011719
vt 1.505859 -0.009597778
vt -0.5615234 -0.009597778
vt -0.5615234 1.011719
vt 1.505859 1.011719
vt 1.505859 -0.009597778
vt -0.5615234 -0.009597778
vt -0.5615234 1.011719
vt 1.505859 1.011719
vt 1.505859 -0.009597778
vt -0.5615234 -0.009597778
vt -0.5615234 1.011719
vt -0.5615234 -0.009597778
vt -0.5615234 1.011719
vt 1.505859 1.011719
vt 1.505859 -0.009597778
vt -0.5615234 1.011719
vt 1.505859 1.011719
vt 1.505859 -0.009597778
vt -0.5615234 -0.009597778
vt -0.5615234 1.011719
vt 1.505859 1.011719
vt 1.505859 -0.009597778
vt -0.5615234 -0.009597778
vt -0.5615234 1.011719
vt 1.505859 1.011719
vt 1.505859 -0.009597778
vt -0.5615234 -0.009597778
vt -0.5615234 -0.009597778
vt -0.5615234 1.011719
vt 1.505859 -0.009597778
vt 1.505859 1.011719
vt -0.5615234 1.011719
vt 1.505859 1.011719
vt 1.505859 -0.009597778
vt -0.5615234 -0.009597778
vt -0.5615234 1.011719
vt 1.505859 1.011719
vt 1.505859 -0.009597778
vt -0.5615234 -0.009597778
vt -0.5615234 1.011719
vt 1.505859 1.011719
vt 1.505859 -0.009597778
vt -0.5615234 -0.009597778
vt -0.5615234 -0.009597778
vt -0.5615234 1.011719
vt 1.505859 1.011719
vt 1.505859 -0.009597778
vt -0.5615234 1.011719
vt 1.505859 1.011719
vt 1.505859 -0.009597778
vt -0.5615234 -0.009597778
vt -0.5615234 -0.009597778
vt -0.5615234 1.011719
vt 1.505859 1.011719
vt 1.505859 -0.009597778
vt -0.5615234 -0.009597778
vt -0.5615234 1.011719
vt 1.505859 -0.009597778
vt 1.505859 1.011719
vt -0.5615234 1.011719
vt 1.505859 1.011719
vt 1.505859 -0.009597778
vt -0.5615234 -0.009597778
vt 1.505859 1.011719
vt 1.505859 -0.009597778
vt -0.5615234 -0.009597778
vt -0.5615234 1.011719
vt -0.5615234 1.011719
vt 1.505859 1.011719
vt 1.505859 -0.009597778
vt -0.5615234 -0.009597778
vt -0.5615234 1.011719
vt 1.505859 1.011719
vt 1.505859 -0.009597778
vt -0.5615234 -0.009597778
vt -0.06567383 1.011719
vt -0.06567383 -0.009597778
vt -2.720703 -0.009597778
vt -2.720703 1.011719
vt -0.5615234 1.011719
vt 1.505859 1.011719
vt 1.505859 -0.009597778
vt -0.5615234 -0.009597778
vt -3.435547 -0.009597778
vt -3.435547 1.011719
vt -0.6542969 1.011719
vt -0.6542969 -0.009597778
vt 0.8413086 1.011719
vt 0.8413086 -0.009597778
vt -2.132813 -0.009597778
vt -2.132813 1.011719
vt 1.505859 1.011719
vt 1.505859 -0.009597778
vt -1.225586 -0.009597778
vt -1.225586 1.011719
vt -3.388672 -0.009597778
vt -3.388672 1.011719
vt -1.369141 1.011719
vt -1.369141 -0.009597778
vt -3.435547 -0.009597778
vt -3.435547 1.011719
vt -1.321289 1.011719
vt -1.321289 -0.009597778
vt -3.791016 1.011719
vt -1.369141 1.011719
vt -1.369141 -0.009597778
vt -3.806641 -0.009597778
vt -2.626953 1.011719
vt -2.626953 -0.009597778
vt -4.46875 0.112915
vt -4.46875 0.8886719
vt 0.6342773 1.011719
vt 0.6342773 -0.009597778
vt -0.4204102 -0.009597778
vt -0.4204102 1.011719
vt 15.54688 1.011719
vt 15.47656 -0.009727478
vt 14.09375 -0.009727478
vt 14.17188 1.011719
vt 12.32031 1.011719
vt 12.25 -0.009727478
vt 10.47656 1.011719
vt 10.40625 -0.009727478
vt 8.640625 1.011719
vt 8.5625 -0.009727478
vt 6.800781 1.011719
vt 6.722656 -0.009727478
vt 4.960938 1.011719
vt 4.886719 -0.009727478
vt 3.044922 -0.009727478
vt 3.105469 1.011719
vt 1.206055 -0.009727478
vt 1.283203 1.011719
vt 0.0947876 1.011719
vt 0.00932312 -0.009727478
vt 1.696289 1.011719
vt -0.3706055 -0.009597778
vt -0.3706055 1.011719
vt 1.696289 -0.009597778
vt 1.646484 1.011719
vt -0.4204102 -0.009597778
vt -0.4204102 1.011719
vt 1.646484 -0.009597778
vt 1.646484 1.011719
vt -0.4204102 -0.009597778
vt -0.4204102 1.011719
vt 1.646484 -0.009597778
vt 1.412109 -0.009597778
vt 0.5693359 1.008789
vt 0.621582 1.008789
vt 1.041016 -0.009597778
vt 0.8642578 1.011719
vt 0.9960938 -0.009597778
vt -0.5615234 -0.009597778
vt -0.5615234 1.011719
vt 1.041016 -0.009597778
vt 0.6591797 -0.009597778
vt 0.5180664 1.008789
vt 0.5693359 1.008789
vt 0.6591797 -0.009597778
vt 0.3366699 -0.009597778
vt 0.4794922 1.008789
vt 0.5180664 1.008789
vt -0.04571533 -0.009597778
vt 0.4291992 1.008789
vt 0.4794922 1.008789
vt 0.3366699 -0.009597778
vt 0.4291992 1.008789
vt -0.04571533 -0.009597778
vt -0.3823242 -0.009597778
vt 0.380127 1.008789
vt 3.466797 1.011719
vt 3.466797 -0.009605408
vt 3.238281 -0.009605408
vt 3.238281 1.011719
vt 2.888672 -0.009605408
vt 2.888672 1.011719
vt 2.5625 1.011719
vt 2.5625 -0.009605408
vt 2.304688 1.011719
vt 2.304688 -0.009605408
vt 1.87207 1.011719
vt 2.304688 1.011719
vt 2.302734 -0.009597778
vt 1.87207 -0.009597778
vt 1.510742 1.011719
vt 1.509766 -0.009597778
vt 0.5615234 1.011719
vt 0.5610352 -0.009597778
vt -3.791016 1.011719
vt -3.806641 -0.009597778
vt -4.695313 -0.009597778
vt -4.695313 1.011719
vn 0 0 1
vn 0 0 1
vn 0 0 1
vn 0 0 1
vn 0 0 1
vn 0 0 1
vn 0 0 1
vn 0 0 1
vn 0 0 1
vn 0 0 1
vn 0 0 1
vn 0 0 1
vn 0 0 1
vn 0 0 1
vn 0 0 1
vn 0 0 1
vn 0 0 1
vn 0 0 1
vn 0 0 1
vn 0 0 1
vn 0 0 1
vn 0 0 1
vn 0 0 1
vn 0 0 1
vn 0 0 1
vn 0 0 1
vn 0 0 1
vn 0 0 1
vn 0 0 1
vn 0 0 1
vn 0 0 1
vn 0 0 1
vn 0 0 1
vn 0 0 1
vn 0 0 1
vn 0 0 1
vn -0.0005640984 0.003864288 1
vn 0 0 1
vn 0 0 1
vn -0.0005950928 0.004077911 1
vn 0.0004618168 0.003835678 1
vn -0.001578331 0.008308411 1
vn -0.001531601 0.008224487 1
vn 0.000464201 0.00381279 1
vn -0.0007939339 0.01219177 1
vn -0.0005640984 0.003864288 1
vn -0.0005950928 0.004077911 1
vn -0.0007748604 0.01241302 1
vn 0.0007266998 0.001404762 1
vn 0.0007252693 0.00141716 1
vn 0.000464201 0.00381279 1
vn 0.0004618168 0.003835678 1
vn -0.001578331 0.008308411 1
vn -0.001894951 0.0141449 1
vn -0.001952171 0.01405334 1
vn -0.001531601 0.008224487 1
vn -0.001894951 0.0141449 1
vn -0.0007939339 0.01219177 1
vn -0.0007748604 0.01241302 1
vn -0.001952171 0.01405334 1
vn 0.0009512901 -0.001077652 1
vn 0.0007252693 0.00141716 1
vn 0.0007266998 0.001404762 1
vn 0.0009503365 -0.001067162 1
vn 0.001172066 -0.003517151 1
vn 0.00117588 -0.003549576 1
vn 0.0009512901 -0.001077652 1
vn 0.0009503365 -0.001067162 1
vn 0 0 1
vn 0 0 1
vn 0 0 1
vn 0 0 1
vn -0.0001154542 -0.003993988 1
vn -0.0001838207 -0.003955841 1
vn 0.00117588 -0.003549576 1
vn 0.001172066 -0.003517151 1
vn 0 0 1
vn 0 0 1
vn 0 0 1
vn 0 0 1
vn 0 0 1
vn -0.0008177757 -0.00164032 1
vn -0.0007758141 -0.001556396 1
vn 0 0 1
vn -0.0001838207 -0.003955841 1
vn -0.0001154542 -0.003993988 1
vn -0.0007758141 -0.001556396 1
vn -0.0008177757 -0.00164032 1
vn 0 0 1
vn 0 0 1
vn 0 0 1
vn 0 0 1
vn 0 0 1
vn 0 0 1
vn 0 0 1
vn 0 0 1
vn 0 0 1
vn 0 0 1
vn 0 0 1
vn 0 0 1
vn 0 0 1
vn 0 0 1
vn 0 0 1
vn 0 0 1
vn 0 0 1
vn 0 0 1
vn 0 0 1
vn 0 0 1
vn 0 0 1
vn 0 0 1
vn 0 0 1
vn 0 0 1
vn 0 0 1
vn 0 0 1
vn 0 0 1
vn 0 0 1
vn 0.006271362 -0.04089355 0.9990234
vn 0.006381989 -0.04159546 0.9990234
vn 0 0 1
vn 0 0 1
vn 0.01318359 -0.0824585 0.996582
vn 0.01320648 -0.0824585 0.996582
vn 0.006381989 -0.04159546 0.9990234
vn 0.006271362 -0.04089355 0.9990234
vn 0.006828308 -0.04092407 0.9990234
vn 0.01320648 -0.0824585 0.996582
vn 0.01318359 -0.0824585 0.996582
vn 0.006896973 -0.04135132 0.9990234
vn 0.006828308 -0.04092407 0.9990234
vn 0.006896973 -0.04135132 0.9990234
vn 0 0 1
vn 0 0 1
vn 0 0 1
vn 0 0 1
vn 0 0 1
vn 0 0 1
vn 0 0 1
vn 0 0 1
vn 0 0 1
vn 0 0 1
vn 0 0 1
vn 0 0 1
vn 0 0 1
vn 0 0 1
vn 0 0 1
vn 0 0 1
vn 0 0 1
vn 0 0 1
vn 0 0 1
vn 0 0 1
vn 0 0 1
vn 0 0 1
vn 0 0 1
vn 0 0 1
vn 0 0 1
vn 0 0 1
vn 0 0 1
vn 0 0 1
vn 0 0 1
vn 0 0 1
vn 0 0 1
vn 0 0 1
vn 0 0 1
vn 0 0 1
vn 0 0 1
vn 0 0 1
vn 0 0 1
vn 0 0 1
vn 0 0 1
vn 0 0 1
vn 0 0 1
vn 0 0 1
vn 0 0 1
vn 0 0 1
vn 0 0 1
vn 0 0 1
vn 0 0 1
vn 0 0 1
vn 0 0 1
vn 0 0 1
vn 0 0 1
vn 0 0 1
vn 0 0 1
vn 0 0 1
vn 0 0 1
vn 0 0 1
vn 0 0 1
vn 0 0 1
vn 0 0 1
vn 0 0 1
vn 0 0 1
vn 0 0 1
vn 0 0 1
vn 0 0 1
vn 0 0 1
vn 0 0 1
vn 0 0 1
vn 0 0 1
vn 0 0 1
vn 0 0 1
vn 0 0 1
vn 0 0 1
vn 0 0 1
vn 0 0 1
vn 0 0 1
vn 0 0 1
vn 0 0 1
vn 0 0 1
vn 0 0 1
vn 0 0 1
vn -0.009414673 -0.02905273 0.9995117
vn -0.009414673 -0.02905273 0.9995117
vn -0.009414673 -0.02905273 0.9995117
vn -0.009414673 -0.02905273 0.9995117
g boardHighlight_Landscape_0
f 3/3/3 2/2/2 1/1/1
f 1/1/1 4/4/4 3/3/3
f 7/7/7 6/6/6 5/5/5
f 5/5/5 8/8/8 7/7/7
f 11/11/11 10/10/10 9/9/9
f 9/9/9 12/12/12 11/11/11
f 15/15/15 14/14/14 13/13/13
f 13/13/13 16/16/16 15/15/15
f 19/19/19 18/18/18 17/17/17
f 17/17/17 20/20/20 19/19/19
f 23/23/23 22/22/22 21/21/21
f 21/21/21 24/24/24 23/23/23
f 27/27/27 26/26/26 25/25/25
f 25/25/25 28/28/28 27/27/27
f 31/31/31 30/30/30 29/29/29
f 29/29/29 32/32/32 31/31/31
f 35/35/35 34/34/34 33/33/33
f 33/33/33 36/36/36 35/35/35
f 39/39/39 38/38/38 37/37/37
f 37/37/37 40/40/40 39/39/39
f 43/43/43 42/42/42 41/41/41
f 41/41/41 44/44/44 43/43/43
f 47/47/47 46/46/46 45/45/45
f 45/45/45 48/48/48 47/47/47
f 51/51/51 50/50/50 49/49/49
f 50/50/50 51/51/51 52/52/52
f 55/55/55 54/54/54 53/53/53
f 53/53/53 56/56/56 55/55/55
f 59/59/59 58/58/58 57/57/57
f 57/57/57 60/60/60 59/59/59
f 63/63/63 62/62/62 61/61/61
f 61/61/61 64/64/64 63/63/63
f 67/67/67 66/66/66 65/65/65
f 65/65/65 68/68/68 67/67/67
f 71/71/71 70/70/70 69/69/69
f 69/69/69 72/72/72 71/71/71
f 75/75/75 74/74/74 73/73/73
f 73/73/73 76/76/76 75/75/75
f 79/79/79 78/78/78 77/77/77
f 78/78/78 79/79/79 80/80/80
f 83/83/83 82/82/82 81/81/81
f 81/81/81 84/84/84 83/83/83
f 87/87/87 86/86/86 85/85/85
f 85/85/85 88/88/88 87/87/87
f 91/91/91 90/90/90 89/89/89
f 89/89/89 92/92/92 91/91/91
f 95/95/95 94/94/94 93/93/93
f 93/93/93 96/96/96 95/95/95
f 99/99/99 98/98/98 97/97/97
f 97/97/97 100/100/100 99/99/99
f 103/103/103 102/102/102 101/101/101
f 101/101/101 104/104/104 103/103/103
f 107/107/107 106/106/106 105/105/105
f 105/105/105 108/108/108 107/107/107
f 111/111/111 110/110/110 109/109/109
f 109/109/109 112/112/112 111/111/111
f 115/115/115 114/114/114 113/113/113
f 113/113/113 116/116/116 115/115/115
f 119/119/119 118/118/118 117/117/117
f 117/117/117 120/120/120 119/119/119
f 123/123/123 122/122/122 121/121/121
f 121/121/121 124/124/124 123/123/123
f 127/127/127 126/126/126 125/125/125
f 125/125/125 128/128/128 127/127/127
f 131/131/131 130/130/130 129/129/129
f 129/129/129 132/132/132 131/131/131
f 135/135/135 134/134/134 133/133/133
f 133/133/133 136/136/136 135/135/135
f 139/139/139 138/138/138 137/137/137
f 137/137/137 140/140/140 139/139/139
f 141/141/141 139/139/139 140/140/140
f 141/141/141 142/142/142 139/139/139
f 143/143/143 142/142/142 141/141/141
f 143/143/143 144/144/144 142/142/142
f 144/144/144 143/143/143 145/145/145
f 145/145/145 146/146/146 144/144/144
f 146/146/146 145/145/145 147/147/147
f 147/147/147 148/148/148 146/146/146
f 148/148/148 147/147/147 149/149/149
f 149/149/149 150/150/150 148/148/148
f 149/149/149 151/151/151 150/150/150
f 152/152/152 151/151/151 149/149/149
f 152/152/152 153/153/153 151/151/151
f 154/154/154 153/153/153 152/152/152
f 154/154/154 155/155/155 153/153/153
f 155/155/155 156/156/156 153/153/153
f 159/159/159 158/158/158 157/157/157
f 158/158/158 160/160/160 157/157/157
f 163/163/163 162/162/162 161/161/161
f 162/162/162 164/164/164 161/161/161
f 167/167/167 166/166/166 165/165/165
f 166/166/166 168/168/168 165/165/165
f 171/171/171 170/170/170 169/169/169
f 170/170/170 172/172/172 169/169/169
f 175/175/175 174/174/174 173/173/173
f 173/173/173 176/176/176 175/175/175
f 179/179/179 178/178/178 177/177/177
f 177/177/177 180/180/180 179/179/179
f 183/183/183 182/182/182 181/181/181
f 181/181/181 184/184/184 183/183/183
f 187/187/187 186/186/186 185/185/185
f 185/185/185 188/188/188 187/187/187
f 191/191/191 190/190/190 189/189/189
f 189/189/189 192/192/192 191/191/191
f 195/195/195 194/194/194 193/193/193
f 193/193/193 196/196/196 195/195/195
f 197/197/197 195/195/195 196/196/196
f 196/196/196 198/198/198 197/197/197
f 197/197/197 198/198/198 199/199/199
f 200/200/200 197/197/197 199/199/199
f 200/200/200 199/199/199 201/201/201
f 201/201/201 202/202/202 200/200/200
f 205/205/205 204/204/204 203/203/203
f 203/203/203 206/206/206 205/205/205
f 203/203/203 207/207/207 206/206/206
f 207/207/207 208/208/208 206/206/206
f 208/208/208 207/207/207 209/209/209
f 209/209/209 210/210/210 208/208/208
f 213/213/213 212/212/212 211/211/211
f 211/211/211 214/214/214 213/213/213
