g Highlight_Condensed
v -3.087911 -3.183654 0.1730387
v -3 -3.204 0.1730387
v -3.045827 -3.198713 0.1730387
v -3.125048 -3.160031 0.1730387
v -3.156031 -3.129048 0.1730387
v -3.179655 -3.091912 0.1730387
v -3.194713 -3.049827 0.1730387
v -3.2 -3.004 0.1730387
v -3.2 3.004 0.1730387
v 3 -3.204 0.1730387
v 3.045827 -3.198713 0.1730387
v 3.087912 -3.183655 0.1730387
v 3.125048 -3.160031 0.1730387
v 3.156031 -3.129048 0.1730387
v 3.179654 -3.091911 0.1730387
v 3.194713 -3.049827 0.1730387
v 3.2 -3.004 0.1730387
v 3.2 3.004 0.1730387
v -3.194713 3.049827 0.1730387
v -3.179654 3.091911 0.1730387
v -3.156031 3.129048 0.1730387
v -3.125048 3.160031 0.1730387
v -3.087912 3.183655 0.1730387
v -3.045827 3.198713 0.1730387
v -3 3.204 0.1730387
v 3 3.204 0.1730387
v 3.045827 3.198713 0.1730387
v 3.194713 3.049827 0.1730387
v 3.087911 3.183654 0.1730387
v 3.179655 3.091912 0.1730387
v 3.156031 3.129048 0.1730387
v 3.125048 3.160031 0.1730387
vt 0.01751709 0.003175735
vt 0.03125 0
vt 0.02409363 0.0008249283
vt 0.01171112 0.00686264
vt 0.00687027 0.01169586
vt 0.00317955 0.01748657
vt 0.0008263588 0.02406311
vt 0 0.03120422
vt 0 0.96875
vt 0.96875 0
vt 0.9760742 0.0008249283
vt 0.9824219 0.003175735
vt 0.9882813 0.00686264
vt 0.9931641 0.01169586
vt 0.996582 0.01748657
vt 0.9990234 0.02406311
vt 1 0.03120422
vt 1 0.96875
vt 0.0008263588 0.9760742
vt 0.00317955 0.9824219
vt 0.00687027 0.9882813
vt 0.01171112 0.9931641
vt 0.01751709 0.996582
vt 0.02409363 0.9990234
vt 0.03125 1
vt 0.96875 1
vt 0.9760742 0.9990234
vt 0.9990234 0.9760742
vt 0.9824219 0.996582
vt 0.996582 0.9824219
vt 0.9931641 0.9882813
vt 0.9882813 0.9931641
vn 0 0 1
vn 0 0 1
vn 0 0 1
vn 0 0 1
vn 0 0 1
vn 0 0 1
vn 0 0 1
vn 0 0 1
vn 0 0 1
vn 0 0 1
vn 0 0 1
vn 0 0 1
vn 0 0 1
vn 0 0 1
vn 0 0 1
vn 0 0 1
vn 0 0 1
vn 0 0 1
vn 0 0 1
vn 0 0 1
vn 0 0 1
vn 0 0 1
vn 0 0 1
vn 0 0 1
vn 0 0 1
vn 0 0 1
vn 0 0 1
vn 0 0 1
vn 0 0 1
vn 0 0 1
vn 0 0 1
vn 0 0 1
g Highlight_Condensed_0
f 3/3/3 2/2/2 1/1/1
f 2/2/2 4/4/4 1/1/1
f 5/5/5 4/4/4 2/2/2
f 6/6/6 5/5/5 2/2/2
f 7/7/7 6/6/6 2/2/2
f 8/8/8 7/7/7 2/2/2
f 9/9/9 8/8/8 2/2/2
f 10/10/10 9/9/9 2/2/2
f 11/11/11 9/9/9 10/10/10
f 12/12/12 9/9/9 11/11/11
f 13/13/13 9/9/9 12/12/12
f 14/14/14 9/9/9 13/13/13
f 15/15/15 9/9/9 14/14/14
f 16/16/16 9/9/9 15/15/15
f 17/17/17 9/9/9 16/16/16
f 18/18/18 9/9/9 17/17/17
f 19/19/19 9/9/9 18/18/18
f 20/20/20 19/19/19 18/18/18
f 21/21/21 20/20/20 18/18/18
f 22/22/22 21/21/21 18/18/18
f 23/23/23 22/22/22 18/18/18
f 24/24/24 23/23/23 18/18/18
f 25/25/25 24/24/24 18/18/18
f 26/26/26 25/25/25 18/18/18
f 27/27/27 26/26/26 18/18/18
f 28/28/28 27/27/27 18/18/18
f 29/29/29 27/27/27 28/28/28
f 30/30/30 29/29/29 28/28/28
f 31/31/31 29/29/29 30/30/30
f 32/32/32 29/29/29 31/31/31
