g Highlight_Slot
v 3.1986 4.217294 -6.872519E-07
v 3.1986 -4.217294 6.872519E-07
v 3.189307 4.301068 -7.009036E-07
v 3.16143 4.366226 -7.115219E-07
v 3.114967 4.412767 -7.191061E-07
v 3.049919 4.440691 -7.236567E-07
v 2.966287 4.45 -7.251736E-07
v -3.1986 4.217294 -6.872519E-07
v -3.189307 4.301068 -7.009036E-07
v -3.16143 4.366226 -7.115219E-07
v -3.114967 4.412767 -7.191061E-07
v -3.049919 4.440691 -7.236567E-07
v -2.966287 4.45 -7.251736E-07
v -2.966287 -4.45 7.251736E-07
v 3.189307 -4.301068 7.009036E-07
v 3.16143 -4.366226 7.115219E-07
v 3.114967 -4.412767 7.191061E-07
v 3.049919 -4.440691 7.236567E-07
v 2.966287 -4.45 7.251736E-07
v -3.049919 -4.440691 7.236567E-07
v -3.114967 -4.412767 7.191061E-07
v -3.16143 -4.366226 7.115219E-07
v -3.189307 -4.301068 7.009036E-07
v -3.1986 -4.217294 6.872519E-07
vt 0.8554688 0.96875
vt 0.8554688 0.03140259
vt 0.8544922 0.9780273
vt 0.8510742 0.9853516
vt 0.8461914 0.9902344
vt 0.8388672 0.9936523
vt 0.8295898 0.9946289
vt 0.1446533 0.96875
vt 0.1456299 0.9780273
vt 0.1486816 0.9853516
vt 0.1539307 0.9902344
vt 0.1611328 0.9936523
vt 0.1704102 0.9946289
vt 0.1704102 0.005554199
vt 0.8544922 0.02210999
vt 0.8510742 0.01486206
vt 0.8461914 0.009689331
vt 0.8388672 0.006587982
vt 0.8295898 0.005554199
vt 0.1611328 0.006591797
vt 0.1539307 0.009689331
vt 0.1486816 0.01486206
vt 0.1456299 0.02210999
vt 0.1446533 0.03140259
vn 0 0 1
vn 0 0 1
vn 0 0 1
vn 0 0 1
vn 0 0 1
vn 0 0 1
vn 0 0 1
vn 0 0 1
vn 0 0 1
vn 0 0 1
vn 0 0 1
vn 0 0 1
vn 0 0 1
vn 0 0 1
vn 0 0 1
vn 0 0 1
vn 0 0 1
vn 0 0 1
vn 0 0 1
vn 0 0 1
vn 0 0 1
vn 0 0 1
vn 0 0 1
vn 0 0 1
g Highlight_Slot_0
f 3/3/3 2/2/2 1/1/1
f 4/4/4 2/2/2 3/3/3
f 5/5/5 2/2/2 4/4/4
f 6/6/6 2/2/2 5/5/5
f 7/7/7 2/2/2 6/6/6
f 8/8/8 2/2/2 7/7/7
f 8/8/8 7/7/7 9/9/9
f 9/9/9 7/7/7 10/10/10
f 10/10/10 7/7/7 11/11/11
f 11/11/11 7/7/7 12/12/12
f 12/12/12 7/7/7 13/13/13
f 14/14/14 2/2/2 8/8/8
f 14/14/14 15/15/15 2/2/2
f 14/14/14 16/16/16 15/15/15
f 14/14/14 17/17/17 16/16/16
f 14/14/14 18/18/18 17/17/17
f 14/14/14 19/19/19 18/18/18
f 14/14/14 8/8/8 20/20/20
f 20/20/20 8/8/8 21/21/21
f 21/21/21 8/8/8 22/22/22
f 22/22/22 8/8/8 23/23/23
f 23/23/23 8/8/8 24/24/24
