g SM_VFX_UI_Titlebar1
v 23.69859 4.927314E-05 2.794778
v 23.44163 4.922664E-05 4.041673
v 24.3986 4.926765E-05 3.084742
v 22.94666 4.923681E-05 3.546686
v 22.99858 4.927863E-05 2.504815
v 22.19472 4.920047E-05 4.298594
v 22.48466 4.918563E-05 4.998604
v 21.90478 4.921532E-05 3.598585
v 22.45168 4.924698E-05 3.0517
v 22.29858 4.928412E-05 2.214852
v 21.61483 4.923017E-05 2.898576
v 21.9567 4.925715E-05 2.556714
v 21.59857 4.928961E-05 1.924889
v 21.32489 4.924502E-05 2.198566
v 21.46173 4.926731E-05 2.061728
v 22.19472 4.920047E-05 4.298594
v 16.8635 4.918563E-05 4.998604
v 22.48466 4.918563E-05 4.998604
v 16.64604 4.920047E-05 4.298594
v 21.90478 4.921532E-05 3.598585
v 11.24233 4.918563E-05 4.998604
v 16.42858 4.921532E-05 3.598585
v 21.61483 4.923017E-05 2.898576
v 11.09736 4.920047E-05 4.298594
v 5.621166 4.918563E-05 4.998604
v 16.21112 4.923017E-05 2.898576
v 21.32489 4.924502E-05 2.198566
v 15.99367 4.924502E-05 2.198566
v 5.54868 4.920047E-05 4.298594
v 0 4.918563E-05 4.998604
v 10.95239 4.921532E-05 3.598585
v 10.80742 4.923017E-05 2.898576
v 10.66244 4.924502E-05 2.198566
v 5.476194 4.921532E-05 3.598585
v 5.403708 4.923017E-05 2.898576
v 5.331222 4.924502E-05 2.198566
v 0 4.920047E-05 4.298594
v 0 4.923017E-05 2.898576
v 0 4.924502E-05 2.198566
v -5.331222 4.924502E-05 2.198566
v 0 4.921532E-05 3.598585
v -5.403708 4.923017E-05 2.898576
v -10.66244 4.924502E-05 2.198566
v -5.54868 4.920047E-05 4.298594
v -5.621166 4.918563E-05 4.998604
v -5.476194 4.921532E-05 3.598585
v -10.80742 4.923017E-05 2.898576
v -15.99367 4.924502E-05 2.198566
v -11.09736 4.920047E-05 4.298594
v -11.24233 4.918563E-05 4.998604
v -10.95239 4.921532E-05 3.598585
v -16.21112 4.923017E-05 2.898576
v -21.32489 4.924502E-05 2.198566
v -21.61483 4.923017E-05 2.898576
v -16.42858 4.921532E-05 3.598585
v -21.90478 4.921532E-05 3.598585
v -16.64604 4.920047E-05 4.298594
v -16.8635 4.918563E-05 4.998604
v -22.19472 4.920047E-05 4.298594
v -22.48466 4.918563E-05 4.998604
v -22.19472 4.920047E-05 4.298594
v -23.44163 4.922664E-05 4.041673
v -22.48466 4.918563E-05 4.998604
v -22.94666 4.923681E-05 3.546686
v -21.90478 4.921532E-05 3.598585
v -23.69859 4.927314E-05 2.794778
v -24.3986 4.926765E-05 3.084742
v -22.99858 4.927863E-05 2.504815
v -22.45168 4.924698E-05 3.0517
v -21.61483 4.923017E-05 2.898576
v -22.29858 4.928412E-05 2.214852
v -21.9567 4.925715E-05 2.556714
v -21.32489 4.924502E-05 2.198566
v -21.59857 4.928961E-05 1.924889
v -21.46173 4.926731E-05 2.061728
v -23.69859 4.927314E-05 2.794778
v -24.3986 4.945707E-05 1.063905
v -24.3986 4.926765E-05 3.084742
v -23.69859 4.945719E-05 1.021435
v -22.99858 4.927863E-05 2.504815
v -24.3986 4.955679E-05 -7.563545E-15
v -22.99858 4.945731E-05 0.978965
v -22.29858 4.928412E-05 2.214852
v -23.69859 4.95632E-05 -6.519001E-15
v -22.29858 4.945743E-05 0.9364952
v -21.59857 4.928961E-05 1.924889
v -21.59857 4.945756E-05 0.894025
v -22.99858 4.957195E-05 -5.093051E-15
v -22.29858 4.95844E-05 -3.06478E-15
v -21.59857 4.960321E-05 0
v -21.59857 4.974887E-05 -0.894025
v -22.29858 4.976258E-05 -0.9364952
v -21.59857 4.991682E-05 -1.924889
v -22.29858 5.000581E-05 -2.214852
v -22.99858 4.97763E-05 -0.978965
v -22.99858 5.00948E-05 -2.504815
v -23.69859 4.979001E-05 -1.021435
v -23.69859 5.018379E-05 -2.794778
v -24.3986 4.980373E-05 -1.063905
v -24.3986 5.027279E-05 -3.084742
v 24.3986 4.945707E-05 1.063905
v 23.69859 4.927314E-05 2.794778
v 24.3986 4.926765E-05 3.084742
v 23.69859 4.945719E-05 1.021435
v 24.39861 4.955679E-05 -7.563546E-15
v 22.99858 4.927863E-05 2.504815
v 23.69859 4.95632E-05 -6.519001E-15
v 22.99858 4.945731E-05 0.978965
v 22.29858 4.928412E-05 2.214852
v 22.99858 4.957195E-05 -5.093051E-15
v 22.29858 4.945743E-05 0.9364951
v 21.59857 4.928961E-05 1.924889
v 22.29858 4.95844E-05 -3.064779E-15
v 21.59857 4.945756E-05 0.8940251
v 21.59857 4.960321E-05 0
v 23.69859 5.018379E-05 -2.794778
v 24.3986 5.027279E-05 -3.084742
v 23.44163 5.054358E-05 -4.041673
v 22.94666 5.039246E-05 -3.546686
v 22.99858 5.00948E-05 -2.504815
v 22.19472 5.060113E-05 -4.298594
v 22.48466 5.081438E-05 -4.998604
v 21.90478 5.038789E-05 -3.598585
v 22.45168 5.024135E-05 -3.0517
v 22.29858 5.000581E-05 -2.214852
v 21.61483 5.017465E-05 -2.898576
v 21.9567 5.009023E-05 -2.556714
v 21.59857 4.991682E-05 -1.924889
v 21.32489 4.99614E-05 -2.198566
v 21.46173 4.993911E-05 -2.061728
v 22.19472 5.060113E-05 -4.298594
v 22.48466 5.081438E-05 -4.998604
v 16.8635 5.081438E-05 -4.998604
v 16.64604 5.060113E-05 -4.298594
v 21.90478 5.038789E-05 -3.598585
v 11.24233 5.081438E-05 -4.998604
v 16.42858 5.038789E-05 -3.598585
v 21.61483 5.017465E-05 -2.898576
v 11.09736 5.060113E-05 -4.298594
v 5.621166 5.081438E-05 -4.998604
v 16.21112 5.017465E-05 -2.898576
v 21.32489 4.99614E-05 -2.198566
v 15.99367 4.99614E-05 -2.198566
v 5.54868 5.060113E-05 -4.298594
v 0 5.081438E-05 -4.998604
v 10.95239 5.038789E-05 -3.598585
v 10.80742 5.017465E-05 -2.898576
v 10.66244 4.99614E-05 -2.198566
v 5.476194 5.038789E-05 -3.598585
v 5.403708 5.017465E-05 -2.898576
v 5.331222 4.99614E-05 -2.198566
v 0 5.060113E-05 -4.298594
v 0 5.017465E-05 -2.898576
v 0 4.99614E-05 -2.198566
v -5.331222 4.99614E-05 -2.198566
v 0 5.038789E-05 -3.598585
v -5.403708 5.017465E-05 -2.898576
v -10.66244 4.99614E-05 -2.198566
v -5.54868 5.060113E-05 -4.298594
v -5.621166 5.081438E-05 -4.998604
v -5.476194 5.038789E-05 -3.598585
v -10.80742 5.017465E-05 -2.898576
v -15.99367 4.99614E-05 -2.198566
v -11.09736 5.060113E-05 -4.298594
v -11.24233 5.081438E-05 -4.998604
v -10.95239 5.038789E-05 -3.598585
v -16.21112 5.017465E-05 -2.898576
v -21.32489 4.99614E-05 -2.198566
v -21.61483 5.017465E-05 -2.898576
v -16.42858 5.038789E-05 -3.598585
v -21.90478 5.038789E-05 -3.598585
v -16.64604 5.060113E-05 -4.298594
v -16.8635 5.081438E-05 -4.998604
v -22.19472 5.060113E-05 -4.298594
v -22.48466 5.081438E-05 -4.998604
v -22.19472 5.060113E-05 -4.298594
v -22.48466 5.081438E-05 -4.998604
v -23.44163 5.054358E-05 -4.041673
v -22.94666 5.039246E-05 -3.546686
v -21.90478 5.038789E-05 -3.598585
v -23.69859 5.018379E-05 -2.794778
v -24.3986 5.027279E-05 -3.084742
v -22.99858 5.00948E-05 -2.504815
v -22.45168 5.024135E-05 -3.0517
v -21.61483 5.017465E-05 -2.898576
v -22.29858 5.000581E-05 -2.214852
v -21.9567 5.009023E-05 -2.556714
v -21.32489 4.99614E-05 -2.198566
v -21.59857 4.991682E-05 -1.924889
v -21.46173 4.993911E-05 -2.061728
v 24.3986 4.980373E-05 -1.063905
v 24.3986 5.027279E-05 -3.084742
v 23.69859 5.018379E-05 -2.794778
v 23.69859 4.979001E-05 -1.021435
v 24.39861 4.955679E-05 -7.563546E-15
v 22.99858 5.00948E-05 -2.504815
v 23.69859 4.95632E-05 -6.519001E-15
v 22.99858 4.97763E-05 -0.978965
v 22.29858 5.000581E-05 -2.214852
v 22.99858 4.957195E-05 -5.093051E-15
v 22.29858 4.976258E-05 -0.9364951
v 21.59857 4.991682E-05 -1.924889
v 22.29858 4.95844E-05 -3.064779E-15
v 21.59857 4.974887E-05 -0.8940251
v 21.59857 4.960321E-05 0
vt 0.9750977 0.75
vt 0.9677734 1
vt 0.9750977 1
vt 0.9677734 0.75
vt 0.9750977 0.5
vt 0.9604492 0.75
vt 0.9604492 1
vt 0.9604492 0.5
vt 0.9677734 0.5
vt 0.9750977 0.2502441
vt 0.9604492 0.2502441
vt 0.9677734 0.2502441
vt 0.9750977 0.0002061129
vt 0.9604492 0.0002061129
vt 0.9677734 0.0002061129
vt 0.9604492 0.75
vt 0.9077148 1
vt 0.9604492 1
vt 0.9077148 0.75
vt 0.9604492 0.5
vt 0.8549805 1
vt 0.9077148 0.5
vt 0.9604492 0.2502441
vt 0.8549805 0.75
vt 0.8027344 1
vt 0.9077148 0.2502441
vt 0.9604492 0.0002061129
vt 0.9077148 0.0002061129
vt 0.8027344 0.75
vt 0.75 1
vt 0.8549805 0.5
vt 0.8549805 0.2502441
vt 0.8549805 0.0002061129
vt 0.8027344 0.5
vt 0.8027344 0.2502441
vt 0.8027344 0.0002061129
vt 0.75 0.75
vt 0.75 0.2502441
vt 0.75 0.0002061129
vt 0.6972656 0.0002061129
vt 0.75 0.5
vt 0.6972656 0.2502441
vt 0.6450195 0.0002061129
vt 0.6972656 0.75
vt 0.6972656 1
vt 0.6972656 0.5
vt 0.6450195 0.2502441
vt 0.5922852 0.0002061129
vt 0.6450195 0.75
vt 0.6450195 1
vt 0.6450195 0.5
vt 0.5922852 0.2502441
vt 0.5400391 0.0002061129
vt 0.5400391 0.2502441
vt 0.5922852 0.5
vt 0.5400391 0.5
vt 0.5922852 0.75
vt 0.5922852 1
vt 0.5400391 0.75
vt 0.5400391 1
vt 0.5400391 0.75
vt 0.5322266 1
vt 0.5400391 1
vt 0.5322266 0.75
vt 0.5400391 0.5
vt 0.5249023 0.75
vt 0.5249023 1
vt 0.5249023 0.5
vt 0.5322266 0.5
vt 0.5400391 0.2502441
vt 0.5249023 0.2502441
vt 0.5322266 0.2502441
vt 0.5400391 0.0002061129
vt 0.5249023 0.0002061129
vt 0.5322266 0.0002061129
vt 0.5249023 0.75
vt 0.5102539 1
vt 0.5249023 1
vt 0.5102539 0.75
vt 0.5249023 0.5
vt 0.5 1
vt 0.5102539 0.5
vt 0.5249023 0.2502441
vt 0.5 0.75
vt 0.5102539 0.2502441
vt 0.5249023 0.0002061129
vt 0.5102539 0.0002061129
vt 0.5 0.5
vt 0.5 0.2502441
vt 0.5 0.0002061129
vt 0.4897461 0.0002061129
vt 0.4897461 0.2502441
vt 0.4750977 0.0002061129
vt 0.4750977 0.2502441
vt 0.4897461 0.5
vt 0.4750977 0.5
vt 0.4897461 0.75
vt 0.4750977 0.75
vt 0.4897461 1
vt 0.4750977 1
vt 0.9897461 1
vt 0.9750977 0.75
vt 0.9750977 1
vt 0.9897461 0.75
vt 1 1
vt 0.9750977 0.5
vt 1 0.75
vt 0.9897461 0.5
vt 0.9750977 0.2502441
vt 1 0.5
vt 0.9897461 0.2502441
vt 0.9750977 0.0002061129
vt 1 0.2502441
vt 0.9897461 0.0002061129
vt 1 0.0002061129
vt 0.02496338 0.75
vt 0.02496338 1
vt 0.03237915 1
vt 0.03237915 0.75
vt 0.02496338 0.5
vt 0.03979492 0.75
vt 0.03979492 1
vt 0.03979492 0.5
vt 0.03237915 0.5
vt 0.02496338 0.2502441
vt 0.03979492 0.2502441
vt 0.03237915 0.2502441
vt 0.02496338 0.0002061129
vt 0.03979492 0.0002061129
vt 0.03237915 0.0002061129
vt 0.03979492 0.75
vt 0.03979492 1
vt 0.09234619 1
vt 0.09234619 0.75
vt 0.03979492 0.5
vt 0.1448975 1
vt 0.09234619 0.5
vt 0.03979492 0.2502441
vt 0.1448975 0.75
vt 0.1975098 1
vt 0.09234619 0.2502441
vt 0.03979492 0.0002061129
vt 0.09234619 0.0002061129
vt 0.1975098 0.75
vt 0.25 1
vt 0.1448975 0.5
vt 0.1448975 0.2502441
vt 0.1448975 0.0002061129
vt 0.1975098 0.5
vt 0.1975098 0.2502441
vt 0.1975098 0.0002061129
vt 0.25 0.75
vt 0.25 0.2502441
vt 0.25 0.0002061129
vt 0.3024902 0.0002061129
vt 0.25 0.5
vt 0.3024902 0.2502441
vt 0.3552246 0.0002061129
vt 0.3024902 0.75
vt 0.3024902 1
vt 0.3024902 0.5
vt 0.3552246 0.2502441
vt 0.4077148 0.0002061129
vt 0.3552246 0.75
vt 0.3552246 1
vt 0.3552246 0.5
vt 0.4077148 0.2502441
vt 0.4602051 0.0002061129
vt 0.4602051 0.2502441
vt 0.4077148 0.5
vt 0.4602051 0.5
vt 0.4077148 0.75
vt 0.4077148 1
vt 0.4602051 0.75
vt 0.4602051 1
vt 0.4602051 0.75
vt 0.4602051 1
vt 0.4677734 1
vt 0.4677734 0.75
vt 0.4602051 0.5
vt 0.4750977 0.75
vt 0.4750977 1
vt 0.4750977 0.5
vt 0.4677734 0.5
vt 0.4602051 0.2502441
vt 0.4750977 0.2502441
vt 0.4677734 0.2502441
vt 0.4602051 0.0002061129
vt 0.4750977 0.0002061129
vt 0.4677734 0.0002061129
vt 0.01035309 1
vt 0.02496338 1
vt 0.02496338 0.75
vt 0.01035309 0.75
vt 0.0001695156 1
vt 0.02496338 0.5
vt 0.0001695156 0.75
vt 0.01035309 0.5
vt 0.02496338 0.2502441
vt 0.0001695156 0.5
vt 0.01035309 0.2502441
vt 0.02496338 0.0002061129
vt 0.0001695156 0.2502441
vt 0.01035309 0.0002061129
vt 0.0001695156 0.0002061129
vn 0 -1 0
vn 0 -1 0
vn 0 -1 0
vn 0 -1 0
vn 0 -1 0
vn 0 -1 0
vn 0 -1 0
vn 0 -1 0
vn 0 -1 0
vn 0 -1 0
vn 0 -1 0
vn 0 -1 0
vn 0 -1 0
vn 0 -1 0
vn 0 -1 0
vn 0 -1 0
vn 0 -1 0
vn 0 -1 0
vn 0 -1 0
vn 0 -1 0
vn 0 -1 0
vn 0 -1 0
vn 0 -1 0
vn 0 -1 0
vn 0 -1 0
vn 0 -1 0
vn 0 -1 0
vn 0 -1 0
vn 0 -1 0
vn 0 -1 0
vn 0 -1 0
vn 0 -1 0
vn 0 -1 0
vn 0 -1 0
vn 0 -1 0
vn 0 -1 0
vn 0 -1 0
vn 0 -1 0
vn 0 -1 0
vn 0 -1 0
vn 0 -1 0
vn 0 -1 0
vn 0 -1 0
vn 0 -1 0
vn 0 -1 0
vn 0 -1 0
vn 0 -1 0
vn 0 -1 0
vn 0 -1 0
vn 0 -1 0
vn 0 -1 0
vn 0 -1 0
vn 0 -1 0
vn 0 -1 0
vn 0 -1 0
vn 0 -1 0
vn 0 -1 0
vn 0 -1 0
vn 0 -1 0
vn 0 -1 0
vn 0 -1 0
vn 0 -1 0
vn 0 -1 0
vn 0 -1 0
vn 0 -1 0
vn 0 -1 0
vn 0 -1 0
vn 0 -1 0
vn 0 -1 0
vn 0 -1 0
vn 0 -1 0
vn 0 -1 0
vn 0 -1 0
vn 0 -1 0
vn 0 -1 0
vn 0 -1 0
vn 0 -1 0
vn 0 -1 0
vn 0 -1 0
vn 0 -1 0
vn 0 -1 0
vn 0 -1 0
vn 0 -1 0
vn 0 -1 0
vn 0 -1 0
vn 0 -1 0
vn 0 -1 0
vn 0 -1 0
vn 0 -1 0
vn 0 -1 0
vn 0 -1 0
vn 0 -1 0
vn 0 -1 0
vn 0 -1 0
vn 0 -1 0
vn 0 -1 0
vn 0 -1 0
vn 0 -1 0
vn 0 -1 0
vn 0 -1 0
vn 0 -1 0
vn 0 -1 0
vn 0 -1 0
vn 0 -1 0
vn 0 -1 0
vn 0 -1 0
vn 0 -1 0
vn 0 -1 0
vn 0 -1 0
vn 0 -1 0
vn 0 -1 0
vn 0 -1 0
vn 0 -1 0
vn 0 -1 0
vn 0 -1 0
vn 0 -1 0
vn 0 -1 0
vn 0 -1 0
vn 0 -1 0
vn 0 -1 0
vn 0 -1 0
vn 0 -1 0
vn 0 -1 0
vn 0 -1 0
vn 0 -1 0
vn 0 -1 0
vn 0 -1 0
vn 0 -1 0
vn 0 -1 0
vn 0 -1 0
vn 0 -1 0
vn 0 -1 0
vn 0 -1 0
vn 0 -1 0
vn 0 -1 0
vn 0 -1 0
vn 0 -1 0
vn 0 -1 0
vn 0 -1 0
vn 0 -1 0
vn 0 -1 0
vn 0 -1 0
vn 0 -1 0
vn 0 -1 0
vn 0 -1 0
vn 0 -1 0
vn 0 -1 0
vn 0 -1 0
vn 0 -1 0
vn 0 -1 0
vn 0 -1 0
vn 0 -1 0
vn 0 -1 0
vn 0 -1 0
vn 0 -1 0
vn 0 -1 0
vn 0 -1 0
vn 0 -1 0
vn 0 -1 0
vn 0 -1 0
vn 0 -1 0
vn 0 -1 0
vn 0 -1 0
vn 0 -1 0
vn 0 -1 0
vn 0 -1 0
vn 0 -1 0
vn 0 -1 0
vn 0 -1 0
vn 0 -1 0
vn 0 -1 0
vn 0 -1 0
vn 0 -1 0
vn 0 -1 0
vn 0 -1 0
vn 0 -1 0
vn 0 -1 0
vn 0 -1 0
vn 0 -1 0
vn 0 -1 0
vn 0 -1 0
vn 0 -1 0
vn 0 -1 0
vn 0 -1 0
vn 0 -1 0
vn 0 -1 0
vn 0 -1 0
vn 0 -1 0
vn 0 -1 0
vn 0 -1 0
vn 0 -1 0
vn 0 -1 0
vn 0 -1 0
vn 0 -1 0
vn 0 -1 0
vn 0 -1 0
vn 0 -1 0
vn 0 -1 0
vn 0 -1 0
vn 0 -1 0
vn 0 -1 0
vn 0 -1 0
vn 0 -1 0
vn 0 -1 0
vn 0 -1 0
g SM_VFX_UI_Titlebar1_0
f 3/3/3 2/2/2 1/1/1
f 2/2/2 4/4/4 1/1/1
f 1/1/1 4/4/4 5/5/5
f 6/6/6 4/4/4 2/2/2
f 7/7/7 6/6/6 2/2/2
f 4/4/4 6/6/6 8/8/8
f 4/4/4 9/9/9 5/5/5
f 9/9/9 4/4/4 8/8/8
f 5/5/5 9/9/9 10/10/10
f 9/9/9 8/8/8 11/11/11
f 9/9/9 12/12/12 10/10/10
f 12/12/12 9/9/9 11/11/11
f 10/10/10 12/12/12 13/13/13
f 12/12/12 11/11/11 14/14/14
f 12/12/12 15/15/15 13/13/13
f 15/15/15 12/12/12 14/14/14
f 18/18/18 17/17/17 16/16/16
f 17/17/17 19/19/19 16/16/16
f 16/16/16 19/19/19 20/20/20
f 19/19/19 17/17/17 21/21/21
f 19/19/19 22/22/22 20/20/20
f 20/20/20 22/22/22 23/23/23
f 24/24/24 19/19/19 21/21/21
f 19/19/19 24/24/24 22/22/22
f 24/24/24 21/21/21 25/25/25
f 22/22/22 26/26/26 23/23/23
f 23/23/23 26/26/26 27/27/27
f 26/26/26 28/28/28 27/27/27
f 29/29/29 24/24/24 25/25/25
f 29/29/29 25/25/25 30/30/30
f 24/24/24 31/31/31 22/22/22
f 22/22/22 31/31/31 26/26/26
f 24/24/24 29/29/29 31/31/31
f 26/26/26 32/32/32 28/28/28
f 31/31/31 32/32/32 26/26/26
f 32/32/32 33/33/33 28/28/28
f 29/29/29 34/34/34 31/31/31
f 31/31/31 34/34/34 32/32/32
f 32/32/32 35/35/35 33/33/33
f 34/34/34 35/35/35 32/32/32
f 35/35/35 36/36/36 33/33/33
f 37/37/37 29/29/29 30/30/30
f 34/34/34 29/29/29 37/37/37
f 36/36/36 35/35/35 38/38/38
f 39/39/39 36/36/36 38/38/38
f 39/39/39 38/38/38 40/40/40
f 35/35/35 34/34/34 41/41/41
f 38/38/38 35/35/35 41/41/41
f 41/41/41 34/34/34 37/37/37
f 38/38/38 42/42/42 40/40/40
f 42/42/42 38/38/38 41/41/41
f 40/40/40 42/42/42 43/43/43
f 44/44/44 37/37/37 30/30/30
f 45/45/45 44/44/44 30/30/30
f 46/46/46 41/41/41 37/37/37
f 46/46/46 42/42/42 41/41/41
f 44/44/44 46/46/46 37/37/37
f 42/42/42 47/47/47 43/43/43
f 47/47/47 42/42/42 46/46/46
f 43/43/43 47/47/47 48/48/48
f 49/49/49 44/44/44 45/45/45
f 50/50/50 49/49/49 45/45/45
f 51/51/51 46/46/46 44/44/44
f 51/51/51 47/47/47 46/46/46
f 49/49/49 51/51/51 44/44/44
f 47/47/47 52/52/52 48/48/48
f 52/52/52 47/47/47 51/51/51
f 48/48/48 52/52/52 53/53/53
f 52/52/52 54/54/54 53/53/53
f 55/55/55 52/52/52 51/51/51
f 54/54/54 52/52/52 55/55/55
f 55/55/55 51/51/51 49/49/49
f 56/56/56 54/54/54 55/55/55
f 57/57/57 49/49/49 50/50/50
f 57/57/57 55/55/55 49/49/49
f 56/56/56 55/55/55 57/57/57
f 58/58/58 57/57/57 50/50/50
f 59/59/59 56/56/56 57/57/57
f 59/59/59 57/57/57 58/58/58
f 60/60/60 59/59/59 58/58/58
f 63/63/63 62/62/62 61/61/61
f 62/62/62 64/64/64 61/61/61
f 61/61/61 64/64/64 65/65/65
f 66/66/66 64/64/64 62/62/62
f 67/67/67 66/66/66 62/62/62
f 66/66/66 68/68/68 64/64/64
f 64/64/64 69/69/69 65/65/65
f 68/68/68 69/69/69 64/64/64
f 65/65/65 69/69/69 70/70/70
f 68/68/68 71/71/71 69/69/69
f 69/69/69 72/72/72 70/70/70
f 71/71/71 72/72/72 69/69/69
f 70/70/70 72/72/72 73/73/73
f 72/72/72 71/71/71 74/74/74
f 72/72/72 75/75/75 73/73/73
f 75/75/75 72/72/72 74/74/74
f 78/78/78 77/77/77 76/76/76
f 77/77/77 79/79/79 76/76/76
f 76/76/76 79/79/79 80/80/80
f 79/79/79 77/77/77 81/81/81
f 79/79/79 82/82/82 80/80/80
f 80/80/80 82/82/82 83/83/83
f 84/84/84 79/79/79 81/81/81
f 82/82/82 79/79/79 84/84/84
f 82/82/82 85/85/85 83/83/83
f 83/83/83 85/85/85 86/86/86
f 85/85/85 87/87/87 86/86/86
f 85/85/85 82/82/82 88/88/88
f 88/88/88 82/82/82 84/84/84
f 85/85/85 89/89/89 87/87/87
f 89/89/89 85/85/85 88/88/88
f 89/89/89 90/90/90 87/87/87
f 91/91/91 90/90/90 89/89/89
f 92/92/92 91/91/91 89/89/89
f 89/89/89 88/88/88 92/92/92
f 91/91/91 92/92/92 93/93/93
f 92/92/92 94/94/94 93/93/93
f 88/88/88 95/95/95 92/92/92
f 92/92/92 95/95/95 94/94/94
f 88/88/88 84/84/84 95/95/95
f 95/95/95 96/96/96 94/94/94
f 84/84/84 97/97/97 95/95/95
f 95/95/95 97/97/97 96/96/96
f 84/84/84 81/81/81 97/97/97
f 97/97/97 98/98/98 96/96/96
f 81/81/81 99/99/99 97/97/97
f 97/97/97 99/99/99 98/98/98
f 99/99/99 100/100/100 98/98/98
f 103/103/103 102/102/102 101/101/101
f 102/102/102 104/104/104 101/101/101
f 105/105/105 101/101/101 104/104/104
f 104/104/104 102/102/102 106/106/106
f 107/107/107 105/105/105 104/104/104
f 108/108/108 104/104/104 106/106/106
f 104/104/104 108/108/108 107/107/107
f 108/108/108 106/106/106 109/109/109
f 108/108/108 110/110/110 107/107/107
f 111/111/111 108/108/108 109/109/109
f 108/108/108 111/111/111 110/110/110
f 111/111/111 109/109/109 112/112/112
f 111/111/111 113/113/113 110/110/110
f 114/114/114 111/111/111 112/112/112
f 111/111/111 114/114/114 113/113/113
f 114/114/114 115/115/115 113/113/113
f 118/118/118 117/117/117 116/116/116
f 119/119/119 118/118/118 116/116/116
f 119/119/119 116/116/116 120/120/120
f 119/119/119 121/121/121 118/118/118
f 121/121/121 122/122/122 118/118/118
f 121/121/121 119/119/119 123/123/123
f 124/124/124 119/119/119 120/120/120
f 119/119/119 124/124/124 123/123/123
f 124/124/124 120/120/120 125/125/125
f 123/123/123 124/124/124 126/126/126
f 127/127/127 124/124/124 125/125/125
f 124/124/124 127/127/127 126/126/126
f 127/127/127 125/125/125 128/128/128
f 126/126/126 127/127/127 129/129/129
f 130/130/130 127/127/127 128/128/128
f 127/127/127 130/130/130 129/129/129
f 133/133/133 132/132/132 131/131/131
f 134/134/134 133/133/133 131/131/131
f 134/134/134 131/131/131 135/135/135
f 133/133/133 134/134/134 136/136/136
f 137/137/137 134/134/134 135/135/135
f 137/137/137 135/135/135 138/138/138
f 134/134/134 139/139/139 136/136/136
f 139/139/139 134/134/134 137/137/137
f 136/136/136 139/139/139 140/140/140
f 141/141/141 137/137/137 138/138/138
f 141/141/141 138/138/138 142/142/142
f 143/143/143 141/141/141 142/142/142
f 139/139/139 144/144/144 140/140/140
f 140/140/140 144/144/144 145/145/145
f 146/146/146 139/139/139 137/137/137
f 146/146/146 137/137/137 141/141/141
f 144/144/144 139/139/139 146/146/146
f 147/147/147 141/141/141 143/143/143
f 147/147/147 146/146/146 141/141/141
f 148/148/148 147/147/147 143/143/143
f 149/149/149 144/144/144 146/146/146
f 149/149/149 146/146/146 147/147/147
f 150/150/150 147/147/147 148/148/148
f 150/150/150 149/149/149 147/147/147
f 151/151/151 150/150/150 148/148/148
f 144/144/144 152/152/152 145/145/145
f 144/144/144 149/149/149 152/152/152
f 150/150/150 151/151/151 153/153/153
f 151/151/151 154/154/154 153/153/153
f 153/153/153 154/154/154 155/155/155
f 149/149/149 150/150/150 156/156/156
f 150/150/150 153/153/153 156/156/156
f 149/149/149 156/156/156 152/152/152
f 157/157/157 153/153/153 155/155/155
f 153/153/153 157/157/157 156/156/156
f 157/157/157 155/155/155 158/158/158
f 152/152/152 159/159/159 145/145/145
f 159/159/159 160/160/160 145/145/145
f 156/156/156 161/161/161 152/152/152
f 157/157/157 161/161/161 156/156/156
f 161/161/161 159/159/159 152/152/152
f 162/162/162 157/157/157 158/158/158
f 157/157/157 162/162/162 161/161/161
f 162/162/162 158/158/158 163/163/163
f 159/159/159 164/164/164 160/160/160
f 164/164/164 165/165/165 160/160/160
f 161/161/161 166/166/166 159/159/159
f 162/162/162 166/166/166 161/161/161
f 166/166/166 164/164/164 159/159/159
f 167/167/167 162/162/162 163/163/163
f 162/162/162 167/167/167 166/166/166
f 167/167/167 163/163/163 168/168/168
f 169/169/169 167/167/167 168/168/168
f 167/167/167 170/170/170 166/166/166
f 167/167/167 169/169/169 170/170/170
f 166/166/166 170/170/170 164/164/164
f 169/169/169 171/171/171 170/170/170
f 164/164/164 172/172/172 165/165/165
f 170/170/170 172/172/172 164/164/164
f 170/170/170 171/171/171 172/172/172
f 172/172/172 173/173/173 165/165/165
f 171/171/171 174/174/174 172/172/172
f 172/172/172 174/174/174 173/173/173
f 174/174/174 175/175/175 173/173/173
f 178/178/178 177/177/177 176/176/176
f 179/179/179 178/178/178 176/176/176
f 179/179/179 176/176/176 180/180/180
f 179/179/179 181/181/181 178/178/178
f 181/181/181 182/182/182 178/178/178
f 183/183/183 181/181/181 179/179/179
f 184/184/184 179/179/179 180/180/180
f 184/184/184 183/183/183 179/179/179
f 184/184/184 180/180/180 185/185/185
f 186/186/186 183/183/183 184/184/184
f 187/187/187 184/184/184 185/185/185
f 187/187/187 186/186/186 184/184/184
f 187/187/187 185/185/185 188/188/188
f 186/186/186 187/187/187 189/189/189
f 190/190/190 187/187/187 188/188/188
f 187/187/187 190/190/190 189/189/189
f 193/193/193 192/192/192 191/191/191
f 194/194/194 193/193/193 191/191/191
f 194/194/194 191/191/191 195/195/195
f 193/193/193 194/194/194 196/196/196
f 197/197/197 194/194/194 195/195/195
f 194/194/194 198/198/198 196/196/196
f 198/198/198 194/194/194 197/197/197
f 196/196/196 198/198/198 199/199/199
f 200/200/200 198/198/198 197/197/197
f 198/198/198 201/201/201 199/199/199
f 201/201/201 198/198/198 200/200/200
f 199/199/199 201/201/201 202/202/202
f 203/203/203 201/201/201 200/200/200
f 201/201/201 204/204/204 202/202/202
f 204/204/204 201/201/201 203/203/203
f 205/205/205 204/204/204 203/203/203
