g SM_VFX_UI_Titlebar2_Sheen_rotate
v 21.90478 3.59858 5.171659E-05
v -22.99858 2.504821 4.767612E-05
v -21.90478 3.59859 4.788663E-05
v 22.99858 2.50481 5.169732E-05
v 22.99858 -3.598591 5.141767E-05
v -22.99858 -3.59858 4.739647E-05
vt 0.02377996 1
vt 1 0.8480278
vt 0.97622 1
vt 2.980232E-08 0.8480278
vt 2.980232E-08 0
vt 1 0
vn 0 0 1
vn 0 0 1
vn 0 0 1
vn 0 0 1
vn 0 0 1
vn 0 0 1
g SM_VFX_UI_Titlebar2_Sheen_rotate_0
f 3/3/3 2/2/2 1/1/1
f 2/2/2 4/4/4 1/1/1
f 4/4/4 2/2/2 5/5/5
f 2/2/2 6/6/6 5/5/5
