g SM_VFX_UI_Titlebar2_rotate_Lo
v 24.3986 -4.998621 -4.682742E-05
v 21.59856 -2.198582 -4.855486E-05
v 16.19892 -2.198578 -4.855486E-05
v 18.29895 -4.998617 -4.682741E-05
v -18.29896 -4.998591 -4.682741E-05
v -16.19893 -2.198555 -4.855485E-05
v -21.59857 -2.198551 -4.855485E-05
v -24.39861 -4.998587 -4.682741E-05
v 21.59857 -0.1368541 -4.953796E-05
v 21.59856 -2.198582 -4.855486E-05
v 24.3986 -4.998621 -4.682742E-05
v 24.3986 -0.9569486 -4.903428E-05
v 21.59857 1.924873 -5.052107E-05
v 24.39861 3.084724 -5.124114E-05
v 21.32489 2.198551 -5.065157E-05
v 22.48467 4.998588 -5.238352E-05
v 15.99367 2.198555 -5.065157E-05
v 16.8635 4.998591 -5.238352E-05
v -15.99366 2.198578 -5.065157E-05
v -16.86349 4.998616 -5.238352E-05
v -21.32489 2.198581 -5.065157E-05
v -22.48466 4.99862 -5.238352E-05
v -21.59856 1.924904 -5.052107E-05
v -24.3986 3.084759 -5.124114E-05
v -21.59857 -0.1368234 -4.953796E-05
v -24.39861 -0.9569135 -4.903428E-05
v -21.59857 -2.198551 -4.855485E-05
v -24.39861 -4.998587 -4.682741E-05
vt 1.233676E-05 1.00019
vt 1.233676E-05 0.0002060935
vt 0.05472884 0.0002060935
vt 0.05472884 1.00019
vt 0.3830279 1.00019
vt 0.3830279 0.0002060935
vt 0.4377444 0.0002060935
vt 0.4377444 1.00019
vt 0.9708874 0.0002060935
vt 0.9998456 0.0002060935
vt 0.9998456 1.00019
vt 0.9708874 1.00019
vt 0.9419293 0.0002060935
vt 0.9419293 1.00019
vt 0.9272267 0.0002060935
vt 0.9272267 1.00019
vt 0.8751494 0.0002060935
vt 0.8751494 1.00019
vt 0.5626856 0.0002060935
vt 0.5626856 1.00019
vt 0.5106083 0.0002060935
vt 0.5106083 1.00019
vt 0.4958816 0.0002060935
vt 0.4958816 1.00019
vt 0.466813 0.0002060935
vt 0.466813 1.00019
vt 0.4377444 0.0002060935
vt 0.4377444 1.00019
vn 0 0 -1
vn 0 0 -1
vn 0 0 -1
vn 0 0 -1
vn 0 0 -1
vn 0 0 -1
vn 0 0 -1
vn 0 0 -1
vn 0 0 -1
vn 0 0 -1
vn 0 0 -1
vn 0 0 -1
vn 0 0 -1
vn 0 0 -1
vn 0 0 -1
vn 0 0 -1
vn 0 0 -1
vn 0 0 -1
vn 0 0 -1
vn 0 0 -1
vn 0 0 -1
vn 0 0 -1
vn 0 0 -1
vn 0 0 -1
vn 0 0 -1
vn 0 0 -1
vn 0 0 -1
vn 0 0 -1
g SM_VFX_UI_Titlebar2_rotate_Lo_0
f 3/3/3 2/2/2 1/1/1
f 4/4/4 3/3/3 1/1/1
f 3/3/3 4/4/4 5/5/5
f 6/6/6 3/3/3 5/5/5
f 6/6/6 5/5/5 7/7/7
f 5/5/5 8/8/8 7/7/7
f 11/11/11 10/10/10 9/9/9
f 12/12/12 11/11/11 9/9/9
f 12/12/12 9/9/9 13/13/13
f 14/14/14 12/12/12 13/13/13
f 14/14/14 13/13/13 15/15/15
f 16/16/16 14/14/14 15/15/15
f 16/16/16 15/15/15 17/17/17
f 18/18/18 16/16/16 17/17/17
f 17/17/17 19/19/19 18/18/18
f 19/19/19 20/20/20 18/18/18
f 19/19/19 21/21/21 20/20/20
f 21/21/21 22/22/22 20/20/20
f 22/22/22 21/21/21 23/23/23
f 24/24/24 22/22/22 23/23/23
f 24/24/24 23/23/23 25/25/25
f 26/26/26 24/24/24 25/25/25
f 25/25/25 27/27/27 26/26/26
f 27/27/27 28/28/28 26/26/26
