g SM_VFX_UI_Titlebar1_Sheen_rotate
v 21.90478 3.598585 4.980161E-05
v -22.99858 2.504815 4.968672E-05
v -21.90478 3.598585 4.980161E-05
v 22.99858 2.504815 4.968672E-05
v 22.99858 -8.081389E-12 4.957195E-05
v -22.99858 -8.081389E-12 4.957195E-05
v -22.99858 -2.504815 4.968672E-05
v 22.99858 -2.504815 4.968672E-05
v 21.90478 -3.598585 4.980161E-05
v -21.90478 -3.598585 4.980161E-05
vt 0.02377996 1
vt 1 0.8480278
vt 0.97622 1
vt 2.980232E-08 0.8480278
vt 2.980232E-08 0.5
vt 1 0.5
vt 1 0.1519722
vt 2.980232E-08 0.1519722
vt 0.02377996 0
vt 0.97622 0
vn 0 0 1
vn 0 0 1
vn 0 0 1
vn 0 0 1
vn 0 0 1
vn 0 0 1
vn 0 0 1
vn 0 0 1
vn 0 0 1
vn 0 0 1
g SM_VFX_UI_Titlebar1_Sheen_rotate_0
f 3/3/3 2/2/2 1/1/1
f 2/2/2 4/4/4 1/1/1
f 4/4/4 2/2/2 5/5/5
f 2/2/2 6/6/6 5/5/5
f 5/5/5 6/6/6 7/7/7
f 8/8/8 5/5/5 7/7/7
f 9/9/9 8/8/8 7/7/7
f 10/10/10 9/9/9 7/7/7
