g SM_VFX_UI_Titlebar1_Sheen
v -21.90478 4.921532E-05 3.598585
v 21.90478 4.921532E-05 3.598585
v 22.99858 4.927863E-05 2.504815
v -22.99858 4.927863E-05 2.504815
v -22.99858 4.957195E-05 -5.093051E-15
v 22.99858 4.957195E-05 -5.093051E-15
v 22.99858 5.00948E-05 -2.504815
v -22.99858 5.00948E-05 -2.504815
v -21.90478 5.038789E-05 -3.598585
v 21.90478 5.038789E-05 -3.598585
vt 0.02377319 1
vt 0.9760742 1
vt 1 0.8481445
vt 5.960464E-08 0.8481445
vt 5.960464E-08 0.5
vt 1 0.5
vt 1 0.1519775
vt 5.960464E-08 0.1519775
vt 0.02377319 0
vt 0.9760742 0
vn 0 -1 0
vn 0 -1 0
vn 0 -1 0
vn 0 -1 0
vn 0 -1 0
vn 0 -1 0
vn 0 -1 0
vn 0 -1 0
vn 0 -1 0
vn 0 -1 0
g SM_VFX_UI_Titlebar1_Sheen_0
f 3/3/3 2/2/2 1/1/1
f 4/4/4 3/3/3 1/1/1
f 3/3/3 4/4/4 5/5/5
f 6/6/6 3/3/3 5/5/5
f 6/6/6 5/5/5 7/7/7
f 5/5/5 8/8/8 7/7/7
f 8/8/8 9/9/9 7/7/7
f 9/9/9 10/10/10 7/7/7
