g SM_VFX_UI_Titlebar1_rotate_Lo
v 24.3986 3.084742 -5.124114E-05
v 21.59857 -3.173404E-11 -4.960321E-05
v 24.39861 -3.171191E-11 -4.955679E-05
v 21.59857 1.924889 -5.052107E-05
v 21.32489 2.198566 -5.065157E-05
v 22.48466 4.998604 -5.238352E-05
v 16.8635 4.998604 -5.238352E-05
v 15.99367 2.198566 -5.065157E-05
v -15.99367 2.198566 -5.065157E-05
v -16.8635 4.998604 -5.238352E-05
v -21.32489 2.198566 -5.065157E-05
v -22.48466 4.998604 -5.238352E-05
v -21.59857 1.924889 -5.052107E-05
v -21.32489 2.198566 -5.065157E-05
v -22.48466 4.998604 -5.238352E-05
v -24.3986 3.084742 -5.124114E-05
v -21.59857 -3.173404E-11 -4.960321E-05
v -24.3986 -3.171191E-11 -4.955679E-05
v -21.59857 -1.924889 -4.868535E-05
v -24.3986 -3.084742 -4.82993E-05
v -21.32489 -2.198566 -4.855485E-05
v -22.48466 -4.998604 -4.761648E-05
v -16.8635 -4.998604 -4.761648E-05
v -15.99367 -2.198566 -4.855485E-05
v 15.99367 -2.198566 -4.855485E-05
v 16.8635 -4.998604 -4.761648E-05
v 21.32489 -2.198566 -4.855485E-05
v 22.48466 -4.998604 -4.761648E-05
v 21.32489 -2.198566 -4.855485E-05
v 22.48466 -4.998604 -4.761648E-05
v 24.3986 -3.084742 -4.82993E-05
v 21.59857 -1.924889 -4.868535E-05
v 21.59857 -3.173404E-11 -4.960321E-05
v 24.39861 -3.171191E-11 -4.955679E-05
vt 0.9751288 1.00019
vt 0.9999259 0.0002060935
vt 0.9999259 1.00019
vt 0.9751288 0.0002060935
vt 0.9602897 0.0002060935
vt 0.9602897 1.00019
vt 0.9077288 1.00019
vt 0.9077288 0.0002060935
vt 0.5923638 0.0002060935
vt 0.5923638 1.00019
vt 0.5398029 0.0002060935
vt 0.5398029 1.00019
vt 0.5249395 0.0002060935
vt 0.5398029 0.0002060935
vt 0.5398029 1.00019
vt 0.5249395 1.00019
vt 0.5000477 0.0002060883
vt 0.5000477 1.00019
vt 0.475156 0.0002060831
vt 0.475156 1.00019
vt 0.4602925 0.0002060831
vt 0.4602925 1.00019
vt 0.4077316 1.00019
vt 0.4077316 0.0002060831
vt 0.0923666 0.0002060831
vt 0.0923666 1.00019
vt 0.03980578 0.0002060831
vt 0.03980578 1.00019
vt 0.03980578 0.0002060831
vt 0.03980578 1.00019
vt 0.02496663 1.00019
vt 0.02496663 0.0002060831
vt 0.0001695408 0.0002060831
vt 0.0001695408 1.00019
vn 0 0 -1
vn 0 0 -1
vn 0 0 -1
vn 0 0 -1
vn 0 0 -1
vn 0 0 -1
vn 0 0 -1
vn 0 0 -1
vn 0 0 -1
vn 0 0 -1
vn 0 0 -1
vn 0 0 -1
vn 0 0 -1
vn 0 0 -1
vn 0 0 -1
vn 0 0 -1
vn 0 0 -1
vn 0 0 -1
vn 0 0 -1
vn 0 0 -1
vn 0 0 -1
vn 0 0 -1
vn 0 0 -1
vn 0 0 -1
vn 0 0 -1
vn 0 0 -1
vn 0 0 -1
vn 0 0 -1
vn 0 0 -1
vn 0 0 -1
vn 0 0 -1
vn 0 0 -1
vn 0 0 -1
vn 0 0 -1
g SM_VFX_UI_Titlebar1_rotate_Lo_0
f 3/3/3 2/2/2 1/1/1
f 2/2/2 4/4/4 1/1/1
f 1/1/1 4/4/4 5/5/5
f 6/6/6 1/1/1 5/5/5
f 7/7/7 6/6/6 5/5/5
f 8/8/8 7/7/7 5/5/5
f 7/7/7 8/8/8 9/9/9
f 10/10/10 7/7/7 9/9/9
f 9/9/9 11/11/11 10/10/10
f 11/11/11 12/12/12 10/10/10
f 15/15/15 14/14/14 13/13/13
f 16/16/16 15/15/15 13/13/13
f 16/16/16 13/13/13 17/17/17
f 18/18/18 16/16/16 17/17/17
f 17/17/17 19/19/19 18/18/18
f 19/19/19 20/20/20 18/18/18
f 19/19/19 21/21/21 20/20/20
f 21/21/21 22/22/22 20/20/20
f 22/22/22 21/21/21 23/23/23
f 21/21/21 24/24/24 23/23/23
f 23/23/23 24/24/24 25/25/25
f 26/26/26 23/23/23 25/25/25
f 26/26/26 25/25/25 27/27/27
f 28/28/28 26/26/26 27/27/27
f 31/31/31 30/30/30 29/29/29
f 32/32/32 31/31/31 29/29/29
f 31/31/31 32/32/32 33/33/33
f 34/34/34 31/31/31 33/33/33
