g SM_VFX_BlockShield_Plane
v 4.266901E-08 -7.414619 0.4004427
v 3.7393 -3.70731 0.8885192
v 3.7393 -7.351186 0.1637071
v 7.414619 -3.611886 0.1637071
v 7.414619 -6.162684E-08 0.4004427
v 1.071308E-08 -3.7393 1.131509
v -3.7393 -7.351186 0.1637071
v 3.7393 -6.026458E-08 1.131509
v 7.414619 3.611886 0.1637071
v -3.7393 -3.70731 0.8885193
v -7.414619 -3.611887 0.163707
v 3.508355E-15 -6.017292E-08 1.376596
v 3.7393 3.70731 0.8885193
v 3.7393 7.351186 0.163707
v -3.7393 -6.026458E-08 1.131509
v -7.414619 -6.162684E-08 0.4004427
v 1.071308E-08 3.7393 1.131509
v 4.266901E-08 7.414619 0.4004427
v -3.7393 3.70731 0.8885193
v -7.414619 3.611887 0.1637071
v -3.7393 7.351186 0.1637071
vt 0.5 0
vt 0.75 0.25
vt 0.75 0
vt 1 0.25
vt 1 0.5
vt 0.5 0.25
vt 0.25 0
vt 0.75 0.5
vt 1 0.75
vt 0.25 0.25
vt 0 0.25
vt 0.5 0.5
vt 0.75 0.75
vt 0.75 1
vt 0.25 0.5
vt 0 0.5
vt 0.5 0.75
vt 0.5 1
vt 0.25 0.75
vt 0 0.75
vt 0.25 1
vn 0 -0.1950904 0.9807853
vn 0.1301752 -0.1294156 0.9830087
vn 0.1089251 -0.1939296 0.9749497
vn 0.1950449 -0.1065927 0.9749849
vn 0.1950903 0 0.9807853
vn 0 -0.1305262 0.9914449
vn -0.1089251 -0.1939296 0.9749497
vn 0.1301752 0 0.991491
vn 0.1950449 0.1065927 0.9749849
vn -0.1301752 -0.1294156 0.9830087
vn -0.1950449 -0.1065927 0.9749849
vn 0 0 1
vn 0.1301752 0.1294156 0.9830087
vn 0.1089251 0.1939295 0.9749497
vn -0.1301752 0 0.991491
vn -0.1950903 0 0.9807853
vn 0 0.1305262 0.9914449
vn 0 0.1950903 0.9807853
vn -0.1301752 0.1294156 0.9830087
vn -0.1950449 0.1065927 0.9749849
vn -0.1089251 0.1939295 0.9749497
g SM_VFX_BlockShield_Plane_0
f 3/3/3 2/2/2 1/1/1
f 3/3/3 4/4/4 2/2/2
f 4/4/4 5/5/5 2/2/2
f 2/2/2 6/6/6 1/1/1
f 1/1/1 6/6/6 7/7/7
f 5/5/5 8/8/8 2/2/2
f 2/2/2 8/8/8 6/6/6
f 5/5/5 9/9/9 8/8/8
f 6/6/6 10/10/10 7/7/7
f 7/7/7 10/10/10 11/11/11
f 8/8/8 12/12/12 6/6/6
f 6/6/6 12/12/12 10/10/10
f 9/9/9 13/13/13 8/8/8
f 8/8/8 13/13/13 12/12/12
f 13/13/13 9/9/9 14/14/14
f 10/10/10 15/15/15 11/11/11
f 12/12/12 15/15/15 10/10/10
f 15/15/15 16/16/16 11/11/11
f 13/13/13 14/14/14 17/17/17
f 13/13/13 17/17/17 12/12/12
f 12/12/12 17/17/17 15/15/15
f 14/14/14 18/18/18 17/17/17
f 15/15/15 19/19/19 16/16/16
f 17/17/17 19/19/19 15/15/15
f 17/17/17 18/18/18 19/19/19
f 19/19/19 20/20/20 16/16/16
f 18/18/18 21/21/21 19/19/19
f 19/19/19 21/21/21 20/20/20
