g ToolCard
v -0.01026643 0.006788047 0.0011
v 0.01026643 0.006788047 0
v 0.01026643 0.006788047 0.0011
v -0.01026643 0.006788047 0
v -0.01062103 0.006737391 0.0011
v -0.01062103 0.006737391 0
v -0.01087431 0.00658542 0.0011
v -0.01087431 0.00658542 0
v -0.01102628 0.006332134 0.0011
v -0.01102628 0.006332134 0
v -0.01107694 0.005977535 0.0011
v -0.01107694 0.005977535 0
v -0.01107694 -0.005977535 0.0011
v -0.01107694 -0.005977535 0
v -0.01102628 -0.006332134 0.0011
v -0.01102628 -0.006332134 0
v -0.01087431 -0.00658542 0.0011
v -0.01087431 -0.00658542 0
v -0.01062103 -0.006737391 0.0011
v -0.01062103 -0.006737391 0
v -0.01026643 -0.006788047 0.0011
v -0.01026643 -0.006788047 0
v 0.01026643 -0.006788047 0.0011
v 0.01026643 -0.006788047 0
v 0.01062103 -0.006737391 0.0011
v 0.01062103 -0.006737391 0
v 0.01087431 -0.00658542 0.0011
v 0.01087431 -0.00658542 0
v 0.01102628 -0.006332134 0.0011
v 0.01102628 -0.006332134 0
v 0.01107694 -0.005977535 0.0011
v 0.01107694 -0.005977535 0
v 0.01107694 0.005977535 0.0011
v 0.01107694 0.005977535 0
v 0.01102628 0.006332134 0.0011
v 0.01102628 0.006332134 0
v 0.01087431 0.00658542 0.0011
v 0.01087431 0.00658542 0
v 0.01062103 0.006737391 0.0011
v 0.01062103 0.006737391 0
v 0.01026643 0.006788047 0.0011
v 0.01026643 0.006788047 0
v -0.01107694 -0.005977535 0
v -0.01102628 0.006332134 0
v -0.01107694 0.005977535 0
v -0.01087431 0.00658542 0
v -0.01062103 0.006737391 0
v -0.01026643 0.006788047 0
v 0.01107694 0.005977535 0
v 0.01026643 -0.006788047 0
v -0.01102628 -0.006332134 0
v -0.01087431 -0.00658542 0
v -0.01062103 -0.006737391 0
v -0.01026643 -0.006788047 0
v 0.01062103 -0.006737391 0
v 0.01087431 -0.00658542 0
v 0.01102628 -0.006332134 0
v 0.01107694 -0.005977535 0
v 0.01102628 0.006332134 0
v 0.01087431 0.00658542 0
v 0.01062103 0.006737391 0
v 0.01026643 0.006788047 0
v -0.01026643 -0.006788047 0.0011
v 0.01062103 -0.006737391 0.0011
v 0.01026643 -0.006788047 0.0011
v 0.01087431 -0.00658542 0.0011
v 0.01102628 -0.006332134 0.0011
v 0.01107694 -0.005977535 0.0011
v 0.01026643 0.006788047 0.0011
v -0.01107694 0.005977535 0.0011
v -0.01062103 -0.006737391 0.0011
v -0.01087431 -0.00658542 0.0011
v -0.01102628 -0.006332134 0.0011
v -0.01107694 -0.005977535 0.0011
v -0.01102628 0.006332134 0.0011
v -0.01087431 0.00658542 0.0011
v -0.01062103 0.006737391 0.0011
v -0.01026643 0.006788047 0.0011
v 0.01062103 0.006737391 0.0011
v 0.01087431 0.00658542 0.0011
v 0.01102628 0.006332134 0.0011
v 0.01107694 0.005977535 0.0011
vt 0.2986759 1
vt 0.0113422 0
vt 0.0113422 1
vt 0.2986759 0
vt 0.304347 1
vt 0.304347 0
vt 0.3100181 1
vt 0.3100181 0
vt 0.3156892 1
vt 0.3156892 0
vt 0.3213603 1
vt 0.3213603 0
vt 0.4886578 1
vt 0.4886578 0
vt 0.4943289 1
vt 0.4943289 0
vt 0.5 1
vt 0.5 0
vt 0.5056711 1
vt 0.5056711 0
vt 0.5113422 1
vt 0.5113422 0
vt 0.7986759 1
vt 0.7986759 0
vt 0.804347 1
vt 0.804347 0
vt 0.8100181 1
vt 0.8100181 0
vt 0.8156892 1
vt 0.8156892 0
vt 0.8213603 1
vt 0.8213603 0
vt 0.9886578 1
vt 0.9886578 0
vt 1.522861 0.9999987
vt 1.522861 -1.2975E-06
vt 2.057065 0.9999974
vt 2.057064 -2.595E-06
vt 2.591268 0.9999961
vt 2.591268 -3.8925E-06
vt 3.125471 0.9999948
vt 3.125471 -5.19E-06
vt 0 0.0597015
vt 0.0022866 0.9664179
vt 0 0.9402985
vt 0.009146402 0.9850746
vt 0.0205794 0.9962686
vt 0.03658561 1
vt 1 0.9402985
vt 0.9634144 0
vt 0.0022866 0.03358209
vt 0.009146402 0.01492537
vt 0.0205794 0.003731344
vt 0.03658561 0
vt 0.9794206 0.003731344
vt 0.9908536 0.01492537
vt 0.9977134 0.03358209
vt 1 0.0597015
vt 0.9977134 0.9664179
vt 0.9908536 0.9850746
vt 0.9794206 0.9962686
vt 0.9634144 1
vt 0.03658561 0
vt 0.9794206 0.003731344
vt 0.9634144 0
vt 0.9908536 0.01492537
vt 0.9977134 0.03358209
vt 1 0.0597015
vt 0.9634144 1
vt 0 0.9402985
vt 0.0205794 0.003731344
vt 0.009146402 0.01492537
vt 0.0022866 0.03358209
vt 0 0.0597015
vt 0.0022866 0.9664179
vt 0.009146402 0.9850746
vt 0.0205794 0.9962686
vt 0.03658561 1
vt 0.9794206 0.9962686
vt 0.9908536 0.9850746
vt 0.9977134 0.9664179
vt 1 0.9402985
vn -0.07088851 0.9974842 0
vn 0.07088851 0.9974842 0
vn 0.07088854 0.9974842 0
vn -0.07088854 0.9974842 0
vn -0.3345782 0.942368 0
vn -0.3345782 0.942368 0
vn -0.7071074 0.7071061 0
vn -0.7071074 0.7071061 0
vn -0.9423677 0.334579 0
vn -0.9423677 0.334579 0
vn -0.9974841 0.0708902 0
vn -0.9974841 0.0708902 0
vn -0.9974841 -0.0708902 0
vn -0.9974841 -0.0708902 0
vn -0.9423677 -0.334579 0
vn -0.9423677 -0.334579 0
vn -0.7071074 -0.7071061 0
vn -0.7071074 -0.7071061 0
vn -0.3345782 -0.942368 0
vn -0.3345782 -0.942368 0
vn -0.07088854 -0.9974842 0
vn -0.07088851 -0.9974842 0
vn 0.07088851 -0.9974842 0
vn 0.07088854 -0.9974842 0
vn 0.3345782 -0.942368 0
vn 0.3345782 -0.942368 0
vn 0.7071074 -0.7071061 0
vn 0.7071074 -0.7071061 0
vn 0.9423677 -0.334579 0
vn 0.9423677 -0.334579 0
vn 0.9974841 -0.0708902 0
vn 0.9974841 -0.0708902 0
vn 0.9974841 0.0708902 0
vn 0.9974841 0.0708902 0
vn 0.9423677 0.334579 0
vn 0.9423677 0.334579 0
vn 0.7071074 0.7071061 0
vn 0.7071074 0.7071061 0
vn 0.3345782 0.942368 0
vn 0.3345782 0.942368 0
vn 0.07088854 0.9974842 0
vn 0.07088851 0.9974842 0
vn 0 0 -1
vn 0 0 -1
vn 0 0 -1
vn 0 0 -1
vn 0 0 -1
vn 0 0 -1
vn 0 0 -1
vn 0 0 -1
vn 0 0 -1
vn 0 0 -1
vn 0 0 -1
vn 0 0 -1
vn 0 0 -1
vn 0 0 -1
vn 0 0 -1
vn 0 0 -1
vn 0 0 -1
vn 0 0 -1
vn 0 0 -1
vn 0 0 -1
vn 0 0 1
vn 0 0 1
vn 0 0 1
vn 0 0 1
vn 0 0 1
vn 0 0 1
vn 0 0 1
vn 0 0 1
vn 0 0 1
vn 0 0 1
vn 0 0 1
vn 0 0 1
vn 0 0 1
vn 0 0 1
vn 0 0 1
vn 0 0 1
vn 0 0 1
vn 0 0 1
vn 0 0 1
vn 0 0 1
g ToolCard_0
f 3/3/3 2/2/2 1/1/1
f 4/4/4 1/1/1 2/2/2
f 1/1/1 4/4/4 5/5/5
f 6/6/6 5/5/5 4/4/4
f 5/5/5 6/6/6 7/7/7
f 8/8/8 7/7/7 6/6/6
f 7/7/7 8/8/8 9/9/9
f 10/10/10 9/9/9 8/8/8
f 9/9/9 10/10/10 11/11/11
f 12/12/12 11/11/11 10/10/10
f 11/11/11 12/12/12 13/13/13
f 14/14/14 13/13/13 12/12/12
f 13/13/13 14/14/14 15/15/15
f 16/16/16 15/15/15 14/14/14
f 15/15/15 16/16/16 17/17/17
f 18/18/18 17/17/17 16/16/16
f 17/17/17 18/18/18 19/19/19
f 20/20/20 19/19/19 18/18/18
f 19/19/19 20/20/20 21/21/21
f 22/22/22 21/21/21 20/20/20
f 21/21/21 22/22/22 23/23/23
f 24/24/24 23/23/23 22/22/22
f 23/23/23 24/24/24 25/25/25
f 26/26/26 25/25/25 24/24/24
f 25/25/25 26/26/26 27/27/27
f 28/28/28 27/27/27 26/26/26
f 27/27/27 28/28/28 29/29/29
f 30/30/30 29/29/29 28/28/28
f 29/29/29 30/30/30 31/31/31
f 32/32/32 31/31/31 30/30/30
f 31/31/31 32/32/32 33/33/33
f 34/34/34 33/33/33 32/32/32
f 33/33/33 34/34/34 35/35/35
f 36/36/36 35/35/35 34/34/34
f 35/35/35 36/36/36 37/37/37
f 38/38/38 37/37/37 36/36/36
f 37/37/37 38/38/38 39/39/39
f 40/40/40 39/39/39 38/38/38
f 39/39/39 40/40/40 41/41/41
f 42/42/42 41/41/41 40/40/40
f 45/45/45 44/44/44 43/43/43
f 44/44/44 46/46/46 43/43/43
f 46/46/46 47/47/47 43/43/43
f 47/47/47 48/48/48 43/43/43
f 48/48/48 49/49/49 43/43/43
f 49/49/49 50/50/50 43/43/43
f 43/43/43 50/50/50 51/51/51
f 51/51/51 50/50/50 52/52/52
f 52/52/52 50/50/50 53/53/53
f 53/53/53 50/50/50 54/54/54
f 55/55/55 50/50/50 49/49/49
f 56/56/56 55/55/55 49/49/49
f 57/57/57 56/56/56 49/49/49
f 58/58/58 57/57/57 49/49/49
f 59/59/59 49/49/49 48/48/48
f 60/60/60 59/59/59 48/48/48
f 61/61/61 60/60/60 48/48/48
f 62/62/62 61/61/61 48/48/48
f 65/65/65 64/64/64 63/63/63
f 64/64/64 66/66/66 63/63/63
f 66/66/66 67/67/67 63/63/63
f 67/67/67 68/68/68 63/63/63
f 68/68/68 69/69/69 63/63/63
f 69/69/69 70/70/70 63/63/63
f 63/63/63 70/70/70 71/71/71
f 71/71/71 70/70/70 72/72/72
f 72/72/72 70/70/70 73/73/73
f 73/73/73 70/70/70 74/74/74
f 75/75/75 70/70/70 69/69/69
f 76/76/76 75/75/75 69/69/69
f 77/77/77 76/76/76 69/69/69
f 78/78/78 77/77/77 69/69/69
f 79/79/79 69/69/69 68/68/68
f 80/80/80 79/79/79 68/68/68
f 81/81/81 80/80/80 68/68/68
f 82/82/82 81/81/81 68/68/68
